solid 穿山甲
facet normal 0.7071067717164974 0.00016366188967739515 0.707106771716591
  outer loop
    vertex 135.38767061454507 477.80111497198277 58.64236605836634
    vertex 135.89921424250542 482.83111432089294 58.1296582226351
    vertex 135.38720139728062 482.83111432089294 58.641671067859846
  endloop
endfacet
facet normal 0.7071067717164974 0.00016366188967739515 0.707106771716591
  outer loop
    vertex 135.89921424250542 482.83111432089294 58.1296582226351
    vertex 135.38767061454507 477.80111497198277 58.64236605836634
    vertex 135.89968345976988 477.80111497198277 58.1303532131416
  endloop
endfacet
facet normal -0.4010029117163692 0.00016324562775368046 0.9160767643302928
  outer loop
    vertex 139.5758582095177 477.8038247871272 58.13034972555257
    vertex 138.74923996588876 482.83111432089294 57.76761046772209
    vertex 138.74877310324206 477.8038247871272 57.768301970639556
  endloop
endfacet
facet normal -0.4010029117163692 0.00016324562775368046 0.9160767643302928
  outer loop
    vertex 138.74923996588876 482.83111432089294 57.76761046772209
    vertex 139.5758582095177 477.8038247871272 58.13034972555257
    vertex 139.57632507216434 482.83111432089294 58.1296582226351
  endloop
endfacet
facet normal -0.6018740509862603 1.3472487036153628e-07 0.7985910259634592
  outer loop
    vertex 125.72890768250488 477.27342996399574 36.493747149882225
    vertex 132.06116724498503 479.4093122877571 41.26618055620035
    vertex 125.72890761696532 478.7093122877663 36.49374717928935
  endloop
endfacet
facet normal -0.6018740509862603 1.3472487036153628e-07 0.7985910259634592
  outer loop
    vertex 132.06116724498503 479.4093122877571 41.26618055620035
    vertex 125.72890768250488 477.27342996399574 36.493747149882225
    vertex 132.06117237829156 476.5734299640242 41.26618506599282
  endloop
endfacet
facet normal -0.24853037521459478 -0.964346725149906 0.09092879790442929
  outer loop
    vertex 132.06116461365178 480.4451946115368 41.26618123974926
    vertex 126.62890674849832 481.39519461153594 36.49374713088159
    vertex 132.06118206081197 479.99519461153824 36.49374720160334
  endloop
endfacet
facet normal -0.999999995687983 9.286567673513643e-05 -1.0149291855197719e-20
  outer loop
    vertex 140.6377953807183 482.83111432089294 60.692274237602376
    vertex 140.63732851807157 477.8038247871272 59.9688702306937
    vertex 140.63732851807157 477.8038247871272 60.69296574051986
  endloop
endfacet
facet normal -0.999999995687983 9.286567673513643e-05 -1.0149291855197719e-20
  outer loop
    vertex 140.63732851807157 477.8038247871272 59.9688702306937
    vertex 140.6377953807183 482.83111432089294 60.692274237602376
    vertex 140.6377953807183 482.83111432089294 59.968178727776234
  endloop
endfacet
facet normal -0.18924040896384764 0.9775944662849008 0.09217986279191175
  outer loop
    vertex 132.06117724346825 475.53754764021306 41.26618309240813
    vertex 132.06117921296757 475.9875536363353 36.49374163316705
    vertex 124.8289099049614 474.58754764023024 36.493747198094184
  endloop
endfacet
facet normal -0.9999999999919122 -2.354911752912189e-06 -3.2603807988997215e-06
  outer loop
    vertex 132.06116461365178 480.4451946115368 41.26618123974926
    vertex 132.06118091773118 479.85931228776747 36.49374608927354
    vertex 132.06116724498503 479.4093122877571 41.26618055620035
  endloop
endfacet
facet normal -0.9999999999919122 -2.354911752912189e-06 -3.2603807988997215e-06
  outer loop
    vertex 132.06118091773118 479.85931228776747 36.49374608927354
    vertex 132.06116461365178 480.4451946115368 41.26618123974926
    vertex 132.06118206081197 479.99519461153824 36.49374720160334
  endloop
endfacet
facet normal -0.9999999999900877 -4.287862657623843e-06 -1.1995813907586084e-06
  outer loop
    vertex 132.06117237829156 476.5734299640242 41.26618506599282
    vertex 132.06117921296757 475.9875536363353 36.49374163316705
    vertex 132.06117724346825 475.53754764021306 41.26618309240813
  endloop
endfacet
facet normal -0.9999999999900877 -4.287862657623843e-06 -1.1995813907586084e-06
  outer loop
    vertex 132.06117921296757 475.9875536363353 36.49374163316705
    vertex 132.06117237829156 476.5734299640242 41.26618506599282
    vertex 132.06118185863096 476.1234299639995 36.4937448778902
  endloop
endfacet
facet normal -0.5507723808474512 -2.7327667297894523e-06 0.8346554885029885
  outer loop
    vertex 132.06119188830868 473.1516653164573 41.26618123934672
    vertex 124.8289099049614 474.58754764023024 36.493747198094184
    vertex 124.82890764826404 473.15166531645457 36.493747164334025
  endloop
endfacet
facet normal -0.5507723808474512 -2.7327667297894523e-06 0.8346554885029885
  outer loop
    vertex 124.8289099049614 474.58754764023024 36.493747198094184
    vertex 132.06119188830868 473.1516653164573 41.26618123934672
    vertex 132.06117724346825 475.53754764021306 41.26618309240813
  endloop
endfacet
facet normal 0.8660253940584834 0.0001498706586997135 0.49999999438463394
  outer loop
    vertex 135.38720139728062 482.83111432089294 58.641671067859846
    vertex 135.0256228596321 477.80111497198277 59.2694511646419
    vertex 135.38767061454507 477.80111497198277 58.64236605836634
  endloop
endfacet
facet normal 0.8660253940584834 0.0001498706586997135 0.49999999438463394
  outer loop
    vertex 135.0256228596321 477.80111497198277 59.2694511646419
    vertex 135.38720139728062 482.83111432089294 58.641671067859846
    vertex 135.02515364236768 482.83111432089294 59.268756174135426
  endloop
endfacet
facet normal -0.565888259582471 -0.8051828703875257 0.17734436247376703
  outer loop
    vertex 129.39251604753233 475.3151642408454 57.58052248142538
    vertex 129.2647536444842 473.1516653164621 47.35007876949382
    vertex 132.47087304555438 473.15167300419523 57.58052248142538
  endloop
endfacet
facet normal -0.1779224348578101 -0.9796989995536466 0.09237682310976382
  outer loop
    vertex 132.06117237829156 476.5734299640242 41.26618506599282
    vertex 125.72890768250488 477.27342996399574 36.493747149882225
    vertex 132.06118185863096 476.1234299639995 36.4937448778902
  endloop
endfacet
facet normal 0.49999999308611565 0.00016629983358813652 0.8660253918091834
  outer loop
    vertex 135.89968345976988 477.80111497198277 58.1303532131416
    vertex 136.526299348781 482.83111432089294 57.767610467722065
    vertex 135.89921424250542 482.83111432089294 58.1296582226351
  endloop
endfacet
facet normal 0.49999999308611565 0.00016629983358813652 0.8660253918091834
  outer loop
    vertex 136.526299348781 482.83111432089294 57.767610467722065
    vertex 135.89968345976988 477.80111497198277 58.1303532131416
    vertex 136.52676856604546 477.80111497198277 57.76830545822857
  endloop
endfacet
facet normal -0.999922033337987 -1.4092742315165328e-05 0.012487075182780949
  outer loop
    vertex 129.39251604753233 475.3151642408454 57.58052248142538
    vertex 129.26464093780143 482.8310769353147 47.35005294757219
    vertex 129.2647536444842 473.1516653164621 47.35007876949382
  endloop
endfacet
facet normal -0.999922033337987 -1.4092742315165328e-05 0.012487075182780949
  outer loop
    vertex 129.26464093780143 482.8310769353147 47.35005294757219
    vertex 129.39251604753233 475.3151642408454 57.58052248142538
    vertex 129.39245821774225 477.8010978250842 57.58032768373856
  endloop
endfacet
facet normal -0.999922033337987 -1.4092742315165328e-05 0.012487075182780949
  outer loop
    vertex 129.26464093780143 482.8310769353147 47.35005294757219
    vertex 129.39245821774225 477.8010978250842 57.58032768373856
    vertex 129.39239708255022 480.2234052381311 57.58033354166017
  endloop
endfacet
facet normal -0.8660253941454469 0.00014919895849455352 0.49999999443489396
  outer loop
    vertex 140.45038567230208 482.83111432089294 59.26875617413538
    vertex 140.08787105474246 477.8038247871272 58.64236257077733
    vertex 140.44991880965543 477.8038247871272 59.26944767705287
  endloop
endfacet
facet normal -0.8660253941454469 0.00014919895849455352 0.49999999443489396
  outer loop
    vertex 140.08787105474246 477.8038247871272 58.64236257077733
    vertex 140.45038567230208 482.83111432089294 59.26875617413538
    vertex 140.08833791738917 482.83111432089294 58.64167106785987
  endloop
endfacet
facet normal 0.9963663883433432 5.742448694495547e-07 -0.08517053586371609
  outer loop
    vertex 142.55991704079645 482.83111210442735 36.493718604681334
    vertex 144.36241932664566 473.1517027020402 57.5802007593059
    vertex 142.5599288680617 473.15170048559366 36.493725279461884
  endloop
endfacet
facet normal 0.9963663883433432 5.742448694495547e-07 -0.08517053586371609
  outer loop
    vertex 144.36241932664566 473.1517027020402 57.5802007593059
    vertex 142.55991704079645 482.83111210442735 36.493718604681334
    vertex 144.10597659941962 476.93502263938325 54.58020244790656
  endloop
endfacet
facet normal 0.9963663883433432 5.742448694495547e-07 -0.08517053586371609
  outer loop
    vertex 144.36241932664566 473.1517027020402 57.5802007593059
    vertex 144.10597659941962 476.93502263938325 54.58020244790656
    vertex 144.36241932664566 476.93439640413783 57.5802007593059
  endloop
endfacet
facet normal 0.9963663883433432 5.742448694495547e-07 -0.08517053586371609
  outer loop
    vertex 144.10597659941962 476.93502263938325 54.58020244790656
    vertex 142.55991704079645 482.83111210442735 36.493718604681334
    vertex 144.10597650443225 477.8043797296628 54.58020085465654
  endloop
endfacet
facet normal 0.9963663883433432 5.742448694495547e-07 -0.08517053586371609
  outer loop
    vertex 144.10597650443225 477.8043797296628 54.58020085465654
    vertex 144.36241932664566 482.83111432089294 57.5802007593059
    vertex 144.36241932664566 477.8038247871272 57.5802007593059
  endloop
endfacet
facet normal 0.9963663883433432 5.742448694495547e-07 -0.08517053586371609
  outer loop
    vertex 144.36241932664566 482.83111432089294 57.5802007593059
    vertex 144.10597650443225 477.8043797296628 54.58020085465654
    vertex 142.55991704079645 482.83111210442735 36.493718604681334
  endloop
endfacet
facet normal 0.10761069178375691 -0.9655997744280812 0.23672138610243973
  outer loop
    vertex 132.06119188830868 473.1516653164573 41.26618123934672
    vertex 132.06118091773124 471.9816773086785 36.4937397018742
    vertex 142.5599288680617 473.15170048559366 36.493725279461884
  endloop
endfacet
facet normal -0.19877674315327895 0.9535694951998209 0.22625875498140263
  outer loop
    vertex 132.06115779498757 482.83107693531 41.26618123984989
    vertex 132.20128033307643 483.99267067404134 36.4937371706939
    vertex 126.62890764826403 482.8310769353073 36.493747164334025
  endloop
endfacet
facet normal 0.10823145380759011 0.9651910106613399 0.23810137619349567
  outer loop
    vertex 132.06115779498757 482.83107693531 41.26618123984989
    vertex 142.55991704079645 482.83111210442735 36.493718604681334
    vertex 132.20128033307643 483.99267067404134 36.4937371706939
  endloop
endfacet
facet normal -0.965925818706282 0.00012530187556621312 0.25881904307071185
  outer loop
    vertex 140.6377953807183 482.83111432089294 59.968178727776234
    vertex 140.44991880965543 477.8038247871272 59.26944767705287
    vertex 140.63732851807157 477.8038247871272 59.9688702306937
  endloop
endfacet
facet normal -0.965925818706282 0.00012530187556621312 0.25881904307071185
  outer loop
    vertex 140.44991880965543 477.8038247871272 59.26944767705287
    vertex 140.6377953807183 482.83111432089294 59.968178727776234
    vertex 140.45038567230208 482.83111432089294 59.26875617413538
  endloop
endfacet
facet normal -0.7071067718012172 0.00016292837902472083 0.7071067718012639
  outer loop
    vertex 140.08787105474246 477.8038247871272 58.64236257077733
    vertex 139.57632507216434 482.83111432089294 58.1296582226351
    vertex 139.5758582095177 477.8038247871272 58.13034972555257
  endloop
endfacet
facet normal -0.7071067718012172 0.00016292837902472083 0.7071067718012639
  outer loop
    vertex 139.57632507216434 482.83111432089294 58.1296582226351
    vertex 140.08787105474246 477.8038247871272 58.64236257077733
    vertex 140.08833791738917 482.83111432089294 58.64167106785987
  endloop
endfacet
facet normal -0.17792247612152404 0.9796989963838851 0.09237677725053096
  outer loop
    vertex 132.06116724498503 479.4093122877571 41.26618055620035
    vertex 132.06118091773118 479.85931228776747 36.49374608927354
    vertex 125.72890761696532 478.7093122877663 36.49374717928935
  endloop
endfacet
facet normal -1.4021313463445839e-06 -5.996402690293634e-08 -0.9999999999990152
  outer loop
    vertex 132.06118091773118 479.85931228776747 36.49374608927354
    vertex 125.72890768250488 477.27342996399574 36.493747149882225
    vertex 125.72890761696532 478.7093122877663 36.49374717928935
  endloop
endfacet
facet normal -1.4021313463445839e-06 -5.996402690293634e-08 -0.9999999999990152
  outer loop
    vertex 125.72890768250488 477.27342996399574 36.493747149882225
    vertex 132.06118091773118 479.85931228776747 36.49374608927354
    vertex 132.06118185863096 476.1234299639995 36.4937448778902
  endloop
endfacet
facet normal -1.4021313463445839e-06 -5.996402690293634e-08 -0.9999999999990152
  outer loop
    vertex 132.06118185863096 476.1234299639995 36.4937448778902
    vertex 132.06118091773118 479.85931228776747 36.49374608927354
    vertex 132.06118206081197 479.99519461153824 36.49374720160334
  endloop
endfacet
facet normal -1.4021313463445839e-06 -5.996402690293634e-08 -0.9999999999990152
  outer loop
    vertex 126.62890764826403 482.8310769353073 36.493747164334025
    vertex 132.06118206081197 479.99519461153824 36.49374720160334
    vertex 126.62890674849832 481.39519461153594 36.49374713088159
  endloop
endfacet
facet normal -1.4021313463445839e-06 -5.996402690293634e-08 -0.9999999999990152
  outer loop
    vertex 132.06118206081197 479.99519461153824 36.49374720160334
    vertex 126.62890764826403 482.8310769353073 36.493747164334025
    vertex 132.20128033307643 483.99267067404134 36.4937371706939
  endloop
endfacet
facet normal -1.4021313463445839e-06 -5.996402690293634e-08 -0.9999999999990152
  outer loop
    vertex 124.8289099049614 474.58754764023024 36.493747198094184
    vertex 132.06118091773124 471.9816773086785 36.4937397018742
    vertex 124.82890764826404 473.15166531645457 36.493747164334025
  endloop
endfacet
facet normal -1.4021313463445839e-06 -5.996402690293634e-08 -0.9999999999990152
  outer loop
    vertex 132.06118091773124 471.9816773086785 36.4937397018742
    vertex 124.8289099049614 474.58754764023024 36.493747198094184
    vertex 132.06117921296757 475.9875536363353 36.49374163316705
  endloop
endfacet
facet normal -1.4021313463445839e-06 -5.996402690293634e-08 -0.9999999999990152
  outer loop
    vertex 132.06118091773124 471.9816773086785 36.4937397018742
    vertex 132.06117921296757 475.9875536363353 36.49374163316705
    vertex 132.06118185863096 476.1234299639995 36.4937448778902
  endloop
endfacet
facet normal -1.4021313463445839e-06 -5.996402690293634e-08 -0.9999999999990152
  outer loop
    vertex 132.06118091773124 471.9816773086785 36.4937397018742
    vertex 132.06118185863096 476.1234299639995 36.4937448778902
    vertex 142.5599288680617 473.15170048559366 36.493725279461884
  endloop
endfacet
facet normal -1.4021313463445839e-06 -5.996402690293634e-08 -0.9999999999990152
  outer loop
    vertex 142.5599288680617 473.15170048559366 36.493725279461884
    vertex 132.06118185863096 476.1234299639995 36.4937448778902
    vertex 132.06118206081197 479.99519461153824 36.49374720160334
  endloop
endfacet
facet normal -1.4021313463445839e-06 -5.996402690293634e-08 -0.9999999999990152
  outer loop
    vertex 142.5599288680617 473.15170048559366 36.493725279461884
    vertex 132.06118206081197 479.99519461153824 36.49374720160334
    vertex 132.20128033307643 483.99267067404134 36.4937371706939
  endloop
endfacet
facet normal -1.4021313463445839e-06 -5.996402690293634e-08 -0.9999999999990152
  outer loop
    vertex 142.5599288680617 473.15170048559366 36.493725279461884
    vertex 132.20128033307643 483.99267067404134 36.4937371706939
    vertex 142.55991704079645 482.83111210442735 36.493718604681334
  endloop
endfacet
facet normal -0.15521606899438764 -0.9594686224393818 0.2352189075737846
  outer loop
    vertex 132.06119188830868 473.1516653164573 41.26618123934672
    vertex 124.82890764826404 473.15166531645457 36.493747164334025
    vertex 132.06118091773124 471.9816773086785 36.4937397018742
  endloop
endfacet
facet normal -0.6600081579496608 -1.2794272666907484e-06 0.7512584318583443
  outer loop
    vertex 132.06116461365178 480.4451946115368 41.26618123974926
    vertex 126.62890764826403 482.8310769353073 36.493747164334025
    vertex 126.62890674849832 481.39519461153594 36.49374713088159
  endloop
endfacet
facet normal -0.6600081579496608 -1.2794272666907484e-06 0.7512584318583443
  outer loop
    vertex 126.62890764826403 482.8310769353073 36.493747164334025
    vertex 132.06116461365178 480.4451946115368 41.26618123974926
    vertex 132.06115779498757 482.83107693531 41.26618123984989
  endloop
endfacet
facet normal -0.9086101675486427 -6.715648205378667e-06 -0.41764526021748133
  outer loop
    vertex 129.2647536444842 473.1516653164621 47.35007876949382
    vertex 132.06117724346825 475.53754764021306 41.26618309240813
    vertex 132.06119188830868 473.1516653164573 41.26618123934672
  endloop
endfacet
facet normal -0.9086101675486427 -6.715648205378667e-06 -0.41764526021748133
  outer loop
    vertex 132.06117724346825 475.53754764021306 41.26618309240813
    vertex 129.2647536444842 473.1516653164621 47.35007876949382
    vertex 129.26464093780143 482.8310769353147 47.35005294757219
  endloop
endfacet
facet normal -0.9086101675486427 -6.715648205378667e-06 -0.41764526021748133
  outer loop
    vertex 132.06117724346825 475.53754764021306 41.26618309240813
    vertex 129.26464093780143 482.8310769353147 47.35005294757219
    vertex 132.06117237829156 476.5734299640242 41.26618506599282
  endloop
endfacet
facet normal -0.9086101675486427 -6.715648205378667e-06 -0.41764526021748133
  outer loop
    vertex 132.06117237829156 476.5734299640242 41.26618506599282
    vertex 129.26464093780143 482.8310769353147 47.35005294757219
    vertex 132.06116724498503 479.4093122877571 41.26618055620035
  endloop
endfacet
facet normal -0.9086101675486427 -6.715648205378667e-06 -0.41764526021748133
  outer loop
    vertex 132.06116724498503 479.4093122877571 41.26618055620035
    vertex 129.26464093780143 482.8310769353147 47.35005294757219
    vertex 132.06116461365178 480.4451946115368 41.26618123974926
  endloop
endfacet
facet normal -0.9086101675486427 -6.715648205378667e-06 -0.41764526021748133
  outer loop
    vertex 132.06116461365178 480.4451946115368 41.26618123974926
    vertex 129.26464093780143 482.8310769353147 47.35005294757219
    vertex 132.06115779498757 482.83107693531 41.26618123984989
  endloop
endfacet
facet normal -0.33200799867838593 -3.265558416041106e-14 0.9432765706904699
  outer loop
    vertex 134.27279413281533 477.80878207198293 63.49267198270399
    vertex 134.27279413281528 482.83111432089305 63.492671982704145
    vertex 132.3523255084647 482.8311410299847 62.816718646951784
  endloop
endfacet
facet normal -0.33177670774082924 9.939354253017426e-05 0.9433579417811567
  outer loop
    vertex 134.27279413281533 477.80878207198293 63.49267198270399
    vertex 132.3523255084647 482.8311410299847 62.816718646951784
    vertex 132.3527947257295 477.80114168107485 62.817413637458046
  endloop
endfacet
facet normal 0.0028632313428633535 -0.9999908654247867 0.0031734796775014368
  outer loop
    vertex 134.27279413281533 477.80878207198293 63.49267198270399
    vertex 132.3527947257295 477.80114168107485 62.817413637458046
    vertex 134.9138981860352 477.80878207198276 62.91424407203856
  endloop
endfacet
facet normal -0.29962137835738667 0.00015905510054285165 0.9540581765975777
  outer loop
    vertex 138.74923996588876 482.83111432089294 57.76761046772209
    vertex 138.1498174122479 477.80111497198277 57.58020075930593
    vertex 138.74877310324206 477.8038247871272 57.768301970639556
  endloop
endfacet
facet normal 2.7100201282116545e-06 -0.9999999999963267 5.042613900220501e-08
  outer loop
    vertex 144.36241932664566 473.1517027020402 57.5802007593059
    vertex 132.06119188830868 473.1516653164573 41.26618123934672
    vertex 142.5599288680617 473.15170048559366 36.493725279461884
  endloop
endfacet
facet normal 2.7100201282116545e-06 -0.9999999999963267 5.042613900220501e-08
  outer loop
    vertex 132.06119188830868 473.1516653164573 41.26618123934672
    vertex 144.36241932664566 473.1517027020402 57.5802007593059
    vertex 129.2647536444842 473.1516653164621 47.35007876949382
  endloop
endfacet
facet normal 2.7100201282116545e-06 -0.9999999999963267 5.042613900220501e-08
  outer loop
    vertex 129.2647536444842 473.1516653164621 47.35007876949382
    vertex 144.36241932664566 473.1517027020402 57.5802007593059
    vertex 132.47087304555438 473.15167300419523 57.58052248142538
  endloop
endfacet
facet normal -0.6948041684717277 0.6947906536683787 0.1857770573816325
  outer loop
    vertex 132.00000557808164 482.8310956281048 57.58021696011153
    vertex 129.26464093780143 482.8310769353147 47.35005294757219
    vertex 129.39239708255022 480.2234052381311 57.58033354166017
  endloop
endfacet
facet normal 0.002814942623966494 -0.9999861353127717 0.004450312376758256
  outer loop
    vertex 134.9138981860352 477.80878207198276 62.91424407203856
    vertex 132.3527947257295 477.80114168107485 62.817413637458046
    vertex 135.15075633432664 477.8049482773277 61.90297043164265
  endloop
endfacet
facet normal -0.7063181148000836 0.7062980571914591 0.047516051107246826
  outer loop
    vertex 132.3523255084647 482.8311410299847 62.816718646951784
    vertex 132.00000557808164 482.8310956281048 57.58021696011153
    vertex 129.39239708255022 480.2234052381311 57.58033354166017
  endloop
endfacet
facet normal -0.004180703459776742 -0.9999851239302124 0.0035033750668955117
  outer loop
    vertex 140.94635854141663 477.81149188712675 63.49266849511517
    vertex 140.4616434832523 477.8114918871272 62.914240584449544
    vertex 142.4924719160958 477.80382478712676 63.14924411549191
  endloop
endfacet
facet normal 0.7252365046788478 2.7353468290043384e-05 0.6884998268213256
  outer loop
    vertex 144.3100246573349 482.83111432089294 61.234511446615485
    vertex 142.4924719160958 477.80382478712676 63.14924411549191
    vertex 144.30955779468817 477.8038247871272 61.23520294953296
  endloop
endfacet
facet normal 0.7329153296320753 -0.0058739703632677215 0.6802945068589619
  outer loop
    vertex 144.3100246573349 482.83111432089294 61.234511446615485
    vertex 142.53276326836396 482.8311143208928 63.14924411549187
    vertex 142.4924719160958 477.80382478712676 63.14924411549191
  endloop
endfacet
facet normal -0.006284749907443648 -0.9999505939962798 0.0077013950092098575
  outer loop
    vertex 142.4924719160958 477.80382478712676 63.14924411549191
    vertex 140.35578114645458 477.8076581470445 61.90331443930687
    vertex 140.49991880965544 477.8038247871272 61.523214294160724
  endloop
endfacet
facet normal -0.004265809969743453 -0.9999819169458201 0.004238944050747702
  outer loop
    vertex 142.4924719160958 477.80382478712676 63.14924411549191
    vertex 140.4616434832523 477.8114918871272 62.914240584449544
    vertex 140.35578114645458 477.8076581470445 61.90331443930687
  endloop
endfacet
facet normal 0.21683691040635475 0.00011431487550245744 0.9762078371010632
  outer loop
    vertex 142.4924719160958 477.80382478712676 63.14924411549191
    vertex 140.9468254040631 482.8311143208928 63.491976992197685
    vertex 140.94635854141663 477.81149188712675 63.49266849511517
  endloop
endfacet
facet normal 0.2112308593651154 -0.001692915617327841 0.977434733416297
  outer loop
    vertex 142.53276326836396 482.8311143208928 63.14924411549187
    vertex 140.9468254040631 482.8311143208928 63.491976992197685
    vertex 142.4924719160958 477.80382478712676 63.14924411549191
  endloop
endfacet
facet normal -0.298405777352601 4.282208518559485e-15 0.954439098131772
  outer loop
    vertex 138.74923996588876 482.83111432089294 57.76761046772209
    vertex 138.1498174122479 482.83111432089294 57.5802007593059
    vertex 138.1498174122479 477.80111497198277 57.58020075930593
  endloop
endfacet
facet normal 0.2588177819959332 0.00015760464807024703 0.9659261518788486
  outer loop
    vertex 136.52676856604546 477.80111497198277 57.76830545822857
    vertex 137.2257219024318 482.83111450669253 57.5802017370536
    vertex 136.526299348781 482.83111432089294 57.767610467722065
  endloop
endfacet
facet normal 0.2588177819959332 0.00015760464807024703 0.9659261518788486
  outer loop
    vertex 137.2257219024318 482.83111450669253 57.5802017370536
    vertex 136.52676856604546 477.80111497198277 57.76830545822857
    vertex 137.2261911196962 477.80111515778236 57.580896727560074
  endloop
endfacet
facet normal 0.9999998800473335 9.321731277833485e-05 -0.00048084909396657984
  outer loop
    vertex 137.22427937145332 482.83093956869567 54.580202088970104
    vertex 137.2261911196962 477.80111515778236 57.580896727560074
    vertex 137.22474858871774 477.8009402197855 54.58089707947658
  endloop
endfacet
facet normal 0.9999998800473335 9.321731277833485e-05 -0.00048084909396657984
  outer loop
    vertex 137.2261911196962 477.80111515778236 57.580896727560074
    vertex 137.22427937145332 482.83093956869567 54.580202088970104
    vertex 137.2257219024318 482.83111450669253 57.5802017370536
  endloop
endfacet
facet normal -0.9999998843946805 2.1743258640763025e-18 0.0004808436603063457
  outer loop
    vertex 138.1498174122479 477.80111497198277 57.58020075930593
    vertex 138.14837488126943 482.830939382896 54.58020111122241
    vertex 138.14837488126943 477.8009400339859 54.580201111222436
  endloop
endfacet
facet normal -0.9999998843946805 2.1743258640763025e-18 0.0004808436603063457
  outer loop
    vertex 138.14837488126943 482.830939382896 54.58020111122241
    vertex 138.1498174122479 477.80111497198277 57.58020075930593
    vertex 138.1498174122479 482.83111432089294 57.5802007593059
  endloop
endfacet
facet normal 4.684560057902974e-06 0.999999978243544 0.00020854487836882978
  outer loop
    vertex 131.79574718752366 476.9350808982822 54.580277598392726
    vertex 144.36241932664566 476.93439640413783 57.5802007593059
    vertex 144.10597659941962 476.93502263938325 54.58020244790656
  endloop
endfacet
facet normal 4.684560057902974e-06 0.999999978243544 0.00020854487836882978
  outer loop
    vertex 144.36241932664566 476.93439640413783 57.5802007593059
    vertex 131.79574718752366 476.9350808982822 54.580277598392726
    vertex 131.79576965557675 476.93445466316933 57.58027753294686
  endloop
endfacet
facet normal 1.0211957998391691e-05 2.2983793915762433e-05 0.9999999996837305
  outer loop
    vertex 131.79574718752366 476.9350808982822 54.580277598392726
    vertex 137.22474858871774 477.8009402197855 54.58089707947658
    vertex 131.7957286043654 477.8017823114919 54.580309762239885
  endloop
endfacet
facet normal 1.0211957998391691e-05 2.2983793915762433e-05 0.9999999996837305
  outer loop
    vertex 137.22474858871774 477.8009402197855 54.58089707947658
    vertex 131.79574718752366 476.9350808982822 54.580277598392726
    vertex 144.10597659941962 476.93502263938325 54.58020244790656
  endloop
endfacet
facet normal 1.0211957998391691e-05 2.2983793915762433e-05 0.9999999996837305
  outer loop
    vertex 137.22474858871774 477.8009402197855 54.58089707947658
    vertex 144.10597659941962 476.93502263938325 54.58020244790656
    vertex 138.14837488126943 477.8009400339859 54.580201111222436
  endloop
endfacet
facet normal 1.0211957998391691e-05 2.2983793915762433e-05 0.9999999996837305
  outer loop
    vertex 138.14837488126943 477.8009400339859 54.580201111222436
    vertex 144.10597659941962 476.93502263938325 54.58020244790656
    vertex 144.10597650443225 477.8043797296628 54.58020085465654
  endloop
endfacet
facet normal 1.0211957998391691e-05 2.2983793915762433e-05 0.9999999996837305
  outer loop
    vertex 137.22474858871774 477.8009402197855 54.58089707947658
    vertex 138.14837488126943 482.830939382896 54.58020111122241
    vertex 137.22427937145332 482.83093956869567 54.580202088970104
  endloop
endfacet
facet normal 1.0211957998391691e-05 2.2983793915762433e-05 0.9999999996837305
  outer loop
    vertex 138.14837488126943 482.830939382896 54.58020111122241
    vertex 137.22474858871774 477.8009402197855 54.58089707947658
    vertex 138.14837488126943 477.8009400339859 54.580201111222436
  endloop
endfacet
facet normal 0.999999999742119 2.1441523805075893e-05 -7.484875384051807e-06
  outer loop
    vertex 131.79574718752366 476.9350808982822 54.580277598392726
    vertex 131.7957510724185 477.801156076379 57.58030969679402
    vertex 131.79576965557675 476.93445466316933 57.58027753294686
  endloop
endfacet
facet normal 0.999999999742119 2.1441523805075893e-05 -7.484875384051807e-06
  outer loop
    vertex 131.7957510724185 477.801156076379 57.58030969679402
    vertex 131.79574718752366 476.9350808982822 54.580277598392726
    vertex 131.7957286043654 477.8017823114919 54.580309762239885
  endloop
endfacet
facet normal 1.7953925487724142e-05 3.9550057972853764e-05 0.9999999990567248
  outer loop
    vertex 129.39251604753233 475.3151642408454 57.58052248142538
    vertex 131.7957510724185 477.801156076379 57.58030969679402
    vertex 129.39245821774225 477.8010978250842 57.58032768373856
  endloop
endfacet
facet normal 1.7953925487724142e-05 3.9550057972853764e-05 0.9999999990567248
  outer loop
    vertex 131.7957510724185 477.801156076379 57.58030969679402
    vertex 129.39251604753233 475.3151642408454 57.58052248142538
    vertex 131.79576965557675 476.93445466316933 57.58027753294686
  endloop
endfacet
facet normal 1.7953925487724142e-05 3.9550057972853764e-05 0.9999999990567248
  outer loop
    vertex 131.79576965557675 476.93445466316933 57.58027753294686
    vertex 129.39251604753233 475.3151642408454 57.58052248142538
    vertex 132.47087304555438 473.15167300419523 57.58052248142538
  endloop
endfacet
facet normal 1.7953925487724142e-05 3.9550057972853764e-05 0.9999999990567248
  outer loop
    vertex 131.79576965557675 476.93445466316933 57.58027753294686
    vertex 132.47087304555438 473.15167300419523 57.58052248142538
    vertex 144.36241932664566 476.93439640413783 57.5802007593059
  endloop
endfacet
facet normal 1.7953925487724142e-05 3.9550057972853764e-05 0.9999999990567248
  outer loop
    vertex 144.36241932664566 476.93439640413783 57.5802007593059
    vertex 132.47087304555438 473.15167300419523 57.58052248142538
    vertex 144.36241932664566 473.1517027020402 57.5802007593059
  endloop
endfacet
facet normal 0.9998963308764734 -4.543774854866493e-05 0.014398799782517645
  outer loop
    vertex 144.36241932664566 482.83111432089294 57.5802007593059
    vertex 144.30955779468817 477.8038247871272 61.23520294953296
    vertex 144.36241932664566 477.8038247871272 57.5802007593059
  endloop
endfacet
facet normal 0.9998963308764734 -4.543774854866493e-05 0.014398799782517645
  outer loop
    vertex 144.30955779468817 477.8038247871272 61.23520294953296
    vertex 144.36241932664566 482.83111432089294 57.5802007593059
    vertex 144.3100246573349 482.83111432089294 61.234511446615485
  endloop
endfacet
facet normal 0.0005038145042311484 -0.9999998694739424 -8.498849098991e-05
  outer loop
    vertex 144.36241932664566 477.8038247871272 57.5802007593059
    vertex 138.14837488126943 477.8009400339859 54.580201111222436
    vertex 144.10597650443225 477.8043797296628 54.58020085465654
  endloop
endfacet
facet normal 0.0005038145042311484 -0.9999998694739424 -8.498849098991e-05
  outer loop
    vertex 138.14837488126943 477.8009400339859 54.580201111222436
    vertex 144.36241932664566 477.8038247871272 57.5802007593059
    vertex 138.1498174122479 477.80111497198277 57.58020075930593
  endloop
endfacet
facet normal 0.00043614340101153805 -0.9999151911315421 0.013016156241588542
  outer loop
    vertex 138.74877310324206 477.8038247871272 57.768301970639556
    vertex 138.1498174122479 477.80111497198277 57.58020075930593
    vertex 144.36241932664566 477.8038247871272 57.5802007593059
  endloop
endfacet
facet normal -0.7664641953858787 0.00015976836090377073 0.6422870165786853
  outer loop
    vertex 140.9468254040631 482.8311143208928 63.491976992197685
    vertex 140.4616434832523 477.8114918871272 62.914240584449544
    vertex 140.94635854141663 477.81149188712675 63.49266849511517
  endloop
endfacet
facet normal -0.7664641953858787 0.00015976836090377073 0.6422870165786853
  outer loop
    vertex 140.4616434832523 477.8114918871272 62.914240584449544
    vertex 140.9468254040631 482.8311143208928 63.491976992197685
    vertex 140.462110345899 482.83111432089294 62.913549081532054
  endloop
endfacet
facet normal 0.6702386658631566 8.265798374862936e-05 0.7421456217950988
  outer loop
    vertex 134.27279413281533 477.80878207198293 63.49267198270399
    vertex 134.91342896877077 482.83111432089294 62.913549081532054
    vertex 134.27279413281528 482.83111432089305 63.492671982704145
  endloop
endfacet
facet normal 0.6702386658631566 8.265798374862936e-05 0.7421456217950988
  outer loop
    vertex 134.91342896877077 482.83111432089294 62.913549081532054
    vertex 134.27279413281533 477.80878207198293 63.49267198270399
    vertex 134.9138981860352 477.80878207198276 62.91424407203856
  endloop
endfacet
facet normal -0.8705442469827744 -1.5088153151335926e-05 0.4920901480598263
  outer loop
    vertex 132.3527947257295 477.80114168107485 62.817413637458046
    vertex 129.39239708255022 480.2234052381311 57.58033354166017
    vertex 129.39245821774225 477.8010978250842 57.58032768373856
  endloop
endfacet
facet normal -0.8705442469827744 -1.5088153151335926e-05 0.4920901480598263
  outer loop
    vertex 129.39239708255022 480.2234052381311 57.58033354166017
    vertex 132.3527947257295 477.80114168107485 62.817413637458046
    vertex 132.3523255084647 482.8311410299847 62.816718646951784
  endloop
endfacet
facet normal -3.646322194279354e-05 -0.9999999988232042 -3.2000394412420094e-05
  outer loop
    vertex 137.22474858871774 477.8009402197855 54.58089707947658
    vertex 131.7957510724185 477.801156076379 57.58030969679402
    vertex 131.7957286043654 477.8017823114919 54.580309762239885
  endloop
endfacet
facet normal -3.646322194279354e-05 -0.9999999988232042 -3.2000394412420094e-05
  outer loop
    vertex 131.7957510724185 477.801156076379 57.58030969679402
    vertex 137.22474858871774 477.8009402197855 54.58089707947658
    vertex 137.2261911196962 477.80111515778236 57.580896727560074
  endloop
endfacet
facet normal -3.646322194279354e-05 -0.9999999988232042 -3.2000394412420094e-05
  outer loop
    vertex 131.7957510724185 477.801156076379 57.58030969679402
    vertex 137.2261911196962 477.80111515778236 57.580896727560074
    vertex 129.39245821774225 477.8010978250842 57.58032768373856
  endloop
endfacet
facet normal -3.646322194279354e-05 -0.9999999988232042 -3.2000394412420094e-05
  outer loop
    vertex 129.39245821774225 477.8010978250842 57.58032768373856
    vertex 137.2261911196962 477.80111515778236 57.580896727560074
    vertex 136.52676856604546 477.80111497198277 57.76830545822857
  endloop
endfacet
facet normal -3.646322194279354e-05 -0.9999999988232042 -3.2000394412420094e-05
  outer loop
    vertex 129.39245821774225 477.8010978250842 57.58032768373856
    vertex 136.52676856604546 477.80111497198277 57.76830545822857
    vertex 135.89968345976988 477.80111497198277 58.1303532131416
  endloop
endfacet
facet normal -3.646322194279354e-05 -0.9999999988232042 -3.2000394412420094e-05
  outer loop
    vertex 129.39245821774225 477.8010978250842 57.58032768373856
    vertex 135.89968345976988 477.80111497198277 58.1303532131416
    vertex 135.38767061454507 477.80111497198277 58.64236605836634
  endloop
endfacet
facet normal -3.646322194279354e-05 -0.9999999988232042 -3.2000394412420094e-05
  outer loop
    vertex 129.39245821774225 477.8010978250842 57.58032768373856
    vertex 135.38767061454507 477.80111497198277 58.64236605836634
    vertex 132.3527947257295 477.80114168107485 62.817413637458046
  endloop
endfacet
facet normal -3.646322194279354e-05 -0.9999999988232042 -3.2000394412420094e-05
  outer loop
    vertex 132.3527947257295 477.80114168107485 62.817413637458046
    vertex 135.38767061454507 477.80111497198277 58.64236605836634
    vertex 135.0256228596321 477.80111497198277 59.2694511646419
  endloop
endfacet
facet normal -3.646322194279354e-05 -0.9999999988232042 -3.2000394412420094e-05
  outer loop
    vertex 132.3527947257295 477.80114168107485 62.817413637458046
    vertex 135.0256228596321 477.80111497198277 59.2694511646419
    vertex 134.83821315121594 477.80111497198277 59.96887371828274
  endloop
endfacet
facet normal -3.646322194279354e-05 -0.9999999988232042 -3.2000394412420094e-05
  outer loop
    vertex 132.3527947257295 477.80114168107485 62.817413637458046
    vertex 134.83821315121594 477.80111497198277 59.96887371828274
    vertex 134.83821315121594 477.80111497198277 60.69296922810887
  endloop
endfacet
facet normal 0.9999999956490699 9.328376205537443e-05 2.1290554592852416e-20
  outer loop
    vertex 134.8377439339515 482.83111432089294 59.968178727776234
    vertex 134.83821315121594 477.80111497198277 60.69296922810887
    vertex 134.83821315121594 477.80111497198277 59.96887371828274
  endloop
endfacet
facet normal 0.9999999956490699 9.328376205537443e-05 2.1290554592852416e-20
  outer loop
    vertex 134.83821315121594 477.80111497198277 60.69296922810887
    vertex 134.8377439339515 482.83111432089294 59.968178727776234
    vertex 134.8377439339515 482.83111432089294 60.692274237602376
  endloop
endfacet
facet normal 0.9659258186378463 0.0001258659900689322 0.2588190430523985
  outer loop
    vertex 135.02515364236768 482.83111432089294 59.268756174135426
    vertex 134.83821315121594 477.80111497198277 59.96887371828274
    vertex 135.0256228596321 477.80111497198277 59.2694511646419
  endloop
endfacet
facet normal 0.9659258186378463 0.0001258659900689322 0.2588190430523985
  outer loop
    vertex 134.83821315121594 477.80111497198277 59.96887371828274
    vertex 135.02515364236768 482.83111432089294 59.268756174135426
    vertex 134.8377439339515 482.83111432089294 59.968178727776234
  endloop
endfacet
facet normal 0.9811803015608129 6.484859414237293e-05 -0.19309378970772753
  outer loop
    vertex 134.8377439339515 482.83111432089294 60.692274237602376
    vertex 134.99766656585606 482.83111424330616 61.50489973131192
    vertex 134.83821315121594 477.80111497198277 60.69296922810887
  endloop
endfacet
facet normal 0.0017221437665406252 -0.9999964620640572 0.0020273332770363362
  outer loop
    vertex 132.3527947257295 477.80114168107485 62.817413637458046
    vertex 134.83821315121594 477.80111497198277 60.69296922810887
    vertex 134.99448474277128 477.80303162465526 61.50562482987577
  endloop
endfacet
facet normal 0.002602435442867685 -0.9999893932994632 0.0038000813593213572
  outer loop
    vertex 132.3527947257295 477.80114168107485 62.817413637458046
    vertex 134.99448474277128 477.80303162465526 61.50562482987577
    vertex 135.15075633432664 477.8049482773277 61.90297043164265
  endloop
endfacet
facet normal 0.9820083911725035 -0.0006486571624102424 -0.18883616949799864
  outer loop
    vertex 134.99766656585606 482.83111424330616 61.50489973131192
    vertex 134.99448474277128 477.80303162465526 61.50562482987577
    vertex 134.83821315121594 477.80111497198277 60.69296922810887
  endloop
endfacet
facet normal 0.9736503786905906 0.00012247466217286737 0.22804588370682524
  outer loop
    vertex 135.1502871170622 482.8311140762379 61.902275441136155
    vertex 134.9138981860352 477.80878207198276 62.91424407203856
    vertex 135.15075633432664 477.8049482773277 61.90297043164265
  endloop
endfacet
facet normal 0.9736503786905906 0.00012247466217286737 0.22804588370682524
  outer loop
    vertex 134.9138981860352 477.80878207198276 62.91424407203856
    vertex 135.1502871170622 482.8311140762379 61.902275441136155
    vertex 134.91342896877077 482.83111432089294 62.913549081532054
  endloop
endfacet
facet normal 0.9306146415320442 3.6268911574902143e-05 -0.3660005295771458
  outer loop
    vertex 135.1502871170622 482.8311140762379 61.902275441136155
    vertex 135.15075633432664 477.8049482773277 61.90297043164265
    vertex 134.99448474277128 477.80303162465526 61.50562482987577
  endloop
endfacet
facet normal 0.933515527789733 -0.0006424428010665909 -0.35853639514378943
  outer loop
    vertex 134.99766656585606 482.83111424330616 61.50489973131192
    vertex 135.1502871170622 482.8311140762379 61.902275441136155
    vertex 134.99448474277128 477.80303162465526 61.50562482987577
  endloop
endfacet
facet normal -0.9350286629627337 3.807523794534502e-05 -0.3545721336884768
  outer loop
    vertex 140.35578114645458 477.8076581470445 61.90331443930687
    vertex 140.5003856723021 482.83111432089294 61.52252279124326
    vertex 140.49991880965544 477.8038247871272 61.523214294160724
  endloop
endfacet
facet normal -0.9350286629627337 3.807523794534502e-05 -0.3545721336884768
  outer loop
    vertex 140.5003856723021 482.83111432089294 61.52252279124326
    vertex 140.35578114645458 477.8076581470445 61.90331443930687
    vertex 140.35624800910122 482.83111413081025 61.902622936389406
  endloop
endfacet
facet normal -0.9865792520810129 6.915978288156855e-05 -0.16328311174213278
  outer loop
    vertex 140.5003856723021 482.83111432089294 61.52252279124326
    vertex 140.63732851807157 477.8038247871272 60.69296574051986
    vertex 140.49991880965544 477.8038247871272 61.523214294160724
  endloop
endfacet
facet normal -0.9865792520810129 6.915978288156855e-05 -0.16328311174213278
  outer loop
    vertex 140.63732851807157 477.8038247871272 60.69296574051986
    vertex 140.5003856723021 482.83111432089294 61.52252279124326
    vertex 140.6377953807183 482.83111432089294 60.692274237602376
  endloop
endfacet
facet normal -0.9945617535585908 0.00010680841340050263 0.10414848510863678
  outer loop
    vertex 140.4616434832523 477.8114918871272 62.914240584449544
    vertex 140.35624800910122 482.83111413081025 61.902622936389406
    vertex 140.35578114645458 477.8076581470445 61.90331443930687
  endloop
endfacet
facet normal -0.9945617535585908 0.00010680841340050263 0.10414848510863678
  outer loop
    vertex 140.35624800910122 482.83111413081025 61.902622936389406
    vertex 140.4616434832523 477.8114918871272 62.914240584449544
    vertex 140.462110345899 482.83111432089294 62.913549081532054
  endloop
endfacet
facet normal -4.2983001706492605e-15 -1.0 -4.8229641511654156e-14
  outer loop
    vertex 144.36241932664566 477.8038247871272 57.5802007593059
    vertex 139.5758582095177 477.8038247871272 58.13034972555257
    vertex 138.74877310324206 477.8038247871272 57.768301970639556
  endloop
endfacet
facet normal -4.2983001706492605e-15 -1.0 -4.8229641511654156e-14
  outer loop
    vertex 139.5758582095177 477.8038247871272 58.13034972555257
    vertex 144.36241932664566 477.8038247871272 57.5802007593059
    vertex 144.30955779468817 477.8038247871272 61.23520294953296
  endloop
endfacet
facet normal -4.2983001706492605e-15 -1.0 -4.8229641511654156e-14
  outer loop
    vertex 139.5758582095177 477.8038247871272 58.13034972555257
    vertex 144.30955779468817 477.8038247871272 61.23520294953296
    vertex 140.08787105474246 477.8038247871272 58.64236257077733
  endloop
endfacet
facet normal -4.2983001706492605e-15 -1.0 -4.8229641511654156e-14
  outer loop
    vertex 140.08787105474246 477.8038247871272 58.64236257077733
    vertex 144.30955779468817 477.8038247871272 61.23520294953296
    vertex 140.44991880965543 477.8038247871272 59.26944767705287
  endloop
endfacet
facet normal -4.2983001706492605e-15 -1.0 -4.8229641511654156e-14
  outer loop
    vertex 140.44991880965543 477.8038247871272 59.26944767705287
    vertex 144.30955779468817 477.8038247871272 61.23520294953296
    vertex 140.63732851807157 477.8038247871272 59.9688702306937
  endloop
endfacet
facet normal -4.2983001706492605e-15 -1.0 -4.8229641511654156e-14
  outer loop
    vertex 140.63732851807157 477.8038247871272 59.9688702306937
    vertex 144.30955779468817 477.8038247871272 61.23520294953296
    vertex 140.63732851807157 477.8038247871272 60.69296574051986
  endloop
endfacet
facet normal -4.2983001706492605e-15 -1.0 -4.8229641511654156e-14
  outer loop
    vertex 140.63732851807157 477.8038247871272 60.69296574051986
    vertex 144.30955779468817 477.8038247871272 61.23520294953296
    vertex 140.49991880965544 477.8038247871272 61.523214294160724
  endloop
endfacet
facet normal -4.2983001706492605e-15 -1.0 -4.8229641511654156e-14
  outer loop
    vertex 140.49991880965544 477.8038247871272 61.523214294160724
    vertex 144.30955779468817 477.8038247871272 61.23520294953296
    vertex 142.4924719160958 477.80382478712676 63.14924411549191
  endloop
endfacet
facet normal -5.633813776260698e-07 0.9999999999975806 -2.1263632627231535e-06
  outer loop
    vertex 129.26464093780143 482.8310769353147 47.35005294757219
    vertex 137.22427937145332 482.83093956869567 54.580202088970104
    vertex 138.14837488126943 482.830939382896 54.58020111122241
  endloop
endfacet
facet normal -5.633813776260698e-07 0.9999999999975806 -2.1263632627231535e-06
  outer loop
    vertex 137.22427937145332 482.83093956869567 54.580202088970104
    vertex 129.26464093780143 482.8310769353147 47.35005294757219
    vertex 132.00000557808164 482.8310956281048 57.58021696011153
  endloop
endfacet
facet normal -5.633813776260698e-07 0.9999999999975806 -2.1263632627231535e-06
  outer loop
    vertex 137.22427937145332 482.83093956869567 54.580202088970104
    vertex 132.00000557808164 482.8310956281048 57.58021696011153
    vertex 137.2257219024318 482.83111450669253 57.5802017370536
  endloop
endfacet
facet normal -5.633813776260698e-07 0.9999999999975806 -2.1263632627231535e-06
  outer loop
    vertex 137.2257219024318 482.83111450669253 57.5802017370536
    vertex 132.00000557808164 482.8310956281048 57.58021696011153
    vertex 136.526299348781 482.83111432089294 57.767610467722065
  endloop
endfacet
facet normal -5.633813776260698e-07 0.9999999999975806 -2.1263632627231535e-06
  outer loop
    vertex 136.526299348781 482.83111432089294 57.767610467722065
    vertex 132.00000557808164 482.8310956281048 57.58021696011153
    vertex 135.89921424250542 482.83111432089294 58.1296582226351
  endloop
endfacet
facet normal -5.633813776260698e-07 0.9999999999975806 -2.1263632627231535e-06
  outer loop
    vertex 135.89921424250542 482.83111432089294 58.1296582226351
    vertex 132.00000557808164 482.8310956281048 57.58021696011153
    vertex 135.38720139728062 482.83111432089294 58.641671067859846
  endloop
endfacet
facet normal -5.633813776260698e-07 0.9999999999975806 -2.1263632627231535e-06
  outer loop
    vertex 135.38720139728062 482.83111432089294 58.641671067859846
    vertex 132.00000557808164 482.8310956281048 57.58021696011153
    vertex 132.3523255084647 482.8311410299847 62.816718646951784
  endloop
endfacet
facet normal -5.633813776260698e-07 0.9999999999975806 -2.1263632627231535e-06
  outer loop
    vertex 135.38720139728062 482.83111432089294 58.641671067859846
    vertex 132.3523255084647 482.8311410299847 62.816718646951784
    vertex 135.02515364236768 482.83111432089294 59.268756174135426
  endloop
endfacet
facet normal -5.633813776260698e-07 0.9999999999975806 -2.1263632627231535e-06
  outer loop
    vertex 135.02515364236768 482.83111432089294 59.268756174135426
    vertex 132.3523255084647 482.8311410299847 62.816718646951784
    vertex 134.8377439339515 482.83111432089294 59.968178727776234
  endloop
endfacet
facet normal -5.633813776260698e-07 0.9999999999975806 -2.1263632627231535e-06
  outer loop
    vertex 134.8377439339515 482.83111432089294 59.968178727776234
    vertex 132.3523255084647 482.8311410299847 62.816718646951784
    vertex 134.8377439339515 482.83111432089294 60.692274237602376
  endloop
endfacet
facet normal -5.633813776260698e-07 0.9999999999975806 -2.1263632627231535e-06
  outer loop
    vertex 134.8377439339515 482.83111432089294 60.692274237602376
    vertex 132.3523255084647 482.8311410299847 62.816718646951784
    vertex 134.99766656585606 482.83111424330616 61.50489973131192
  endloop
endfacet
facet normal -5.633813776260698e-07 0.9999999999975806 -2.1263632627231535e-06
  outer loop
    vertex 134.99766656585606 482.83111424330616 61.50489973131192
    vertex 132.3523255084647 482.8311410299847 62.816718646951784
    vertex 135.1502871170622 482.8311140762379 61.902275441136155
  endloop
endfacet
facet normal -5.633813776260698e-07 0.9999999999975806 -2.1263632627231535e-06
  outer loop
    vertex 135.1502871170622 482.8311140762379 61.902275441136155
    vertex 132.3523255084647 482.8311410299847 62.816718646951784
    vertex 134.91342896877077 482.83111432089294 62.913549081532054
  endloop
endfacet
facet normal -5.633813776260698e-07 0.9999999999975806 -2.1263632627231535e-06
  outer loop
    vertex 134.91342896877077 482.83111432089294 62.913549081532054
    vertex 132.3523255084647 482.8311410299847 62.816718646951784
    vertex 134.27279413281528 482.83111432089305 63.492671982704145
  endloop
endfacet
facet normal -5.633813776260698e-07 0.9999999999975806 -2.1263632627231535e-06
  outer loop
    vertex 132.06115779498757 482.83107693531 41.26618123984989
    vertex 144.36241932664566 482.83111432089294 57.5802007593059
    vertex 142.55991704079645 482.83111210442735 36.493718604681334
  endloop
endfacet
facet normal -5.633813776260698e-07 0.9999999999975806 -2.1263632627231535e-06
  outer loop
    vertex 144.36241932664566 482.83111432089294 57.5802007593059
    vertex 132.06115779498757 482.83107693531 41.26618123984989
    vertex 129.26464093780143 482.8310769353147 47.35005294757219
  endloop
endfacet
facet normal -5.633813776260698e-07 0.9999999999975806 -2.1263632627231535e-06
  outer loop
    vertex 144.36241932664566 482.83111432089294 57.5802007593059
    vertex 129.26464093780143 482.8310769353147 47.35005294757219
    vertex 138.14837488126943 482.830939382896 54.58020111122241
  endloop
endfacet
facet normal -5.633813776260698e-07 0.9999999999975806 -2.1263632627231535e-06
  outer loop
    vertex 144.36241932664566 482.83111432089294 57.5802007593059
    vertex 138.14837488126943 482.830939382896 54.58020111122241
    vertex 138.1498174122479 482.83111432089294 57.5802007593059
  endloop
endfacet
facet normal -5.633813776260698e-07 0.9999999999975806 -2.1263632627231535e-06
  outer loop
    vertex 144.36241932664566 482.83111432089294 57.5802007593059
    vertex 138.1498174122479 482.83111432089294 57.5802007593059
    vertex 138.74923996588876 482.83111432089294 57.76761046772209
  endloop
endfacet
facet normal -5.633813776260698e-07 0.9999999999975806 -2.1263632627231535e-06
  outer loop
    vertex 144.36241932664566 482.83111432089294 57.5802007593059
    vertex 138.74923996588876 482.83111432089294 57.76761046772209
    vertex 139.57632507216434 482.83111432089294 58.1296582226351
  endloop
endfacet
facet normal -5.633813776260698e-07 0.9999999999975806 -2.1263632627231535e-06
  outer loop
    vertex 144.36241932664566 482.83111432089294 57.5802007593059
    vertex 139.57632507216434 482.83111432089294 58.1296582226351
    vertex 144.3100246573349 482.83111432089294 61.234511446615485
  endloop
endfacet
facet normal -5.633813776260698e-07 0.9999999999975806 -2.1263632627231535e-06
  outer loop
    vertex 144.3100246573349 482.83111432089294 61.234511446615485
    vertex 139.57632507216434 482.83111432089294 58.1296582226351
    vertex 140.08833791738917 482.83111432089294 58.64167106785987
  endloop
endfacet
facet normal -5.633813776260698e-07 0.9999999999975806 -2.1263632627231535e-06
  outer loop
    vertex 144.3100246573349 482.83111432089294 61.234511446615485
    vertex 140.08833791738917 482.83111432089294 58.64167106785987
    vertex 140.45038567230208 482.83111432089294 59.26875617413538
  endloop
endfacet
facet normal -5.633813776260698e-07 0.9999999999975806 -2.1263632627231535e-06
  outer loop
    vertex 144.3100246573349 482.83111432089294 61.234511446615485
    vertex 140.45038567230208 482.83111432089294 59.26875617413538
    vertex 140.6377953807183 482.83111432089294 59.968178727776234
  endloop
endfacet
facet normal -5.633813776260698e-07 0.9999999999975806 -2.1263632627231535e-06
  outer loop
    vertex 144.3100246573349 482.83111432089294 61.234511446615485
    vertex 140.6377953807183 482.83111432089294 59.968178727776234
    vertex 140.6377953807183 482.83111432089294 60.692274237602376
  endloop
endfacet
facet normal -5.633813776260698e-07 0.9999999999975806 -2.1263632627231535e-06
  outer loop
    vertex 144.3100246573349 482.83111432089294 61.234511446615485
    vertex 140.6377953807183 482.83111432089294 60.692274237602376
    vertex 140.5003856723021 482.83111432089294 61.52252279124326
  endloop
endfacet
facet normal -5.633813776260698e-07 0.9999999999975806 -2.1263632627231535e-06
  outer loop
    vertex 144.3100246573349 482.83111432089294 61.234511446615485
    vertex 140.5003856723021 482.83111432089294 61.52252279124326
    vertex 142.53276326836396 482.8311143208928 63.14924411549187
  endloop
endfacet
facet normal -5.633813776260698e-07 0.9999999999975806 -2.1263632627231535e-06
  outer loop
    vertex 142.53276326836396 482.8311143208928 63.14924411549187
    vertex 140.5003856723021 482.83111432089294 61.52252279124326
    vertex 140.35624800910122 482.83111413081025 61.902622936389406
  endloop
endfacet
facet normal -5.633813776260698e-07 0.9999999999975806 -2.1263632627231535e-06
  outer loop
    vertex 142.53276326836396 482.8311143208928 63.14924411549187
    vertex 140.35624800910122 482.83111413081025 61.902622936389406
    vertex 140.462110345899 482.83111432089294 62.913549081532054
  endloop
endfacet
facet normal -5.633813776260698e-07 0.9999999999975806 -2.1263632627231535e-06
  outer loop
    vertex 142.53276326836396 482.8311143208928 63.14924411549187
    vertex 140.462110345899 482.83111432089294 62.913549081532054
    vertex 140.9468254040631 482.8311143208928 63.491976992197685
  endloop
endfacet
endsolid 穿山甲
