solid 穿山甲
facet normal -0.1892404089638476 -0.9775944662849008 0.0921798627919117
  outer loop
    vertex 126.73199824346825 362.6494281950394 41.26618309240813
    vertex 119.49973090496141 363.5994281950222 36.493747198094184
    vertex 126.73200021296756 362.19942219891715 36.49374163316705
  endloop
endfacet
facet normal -0.24853037521459473 0.964346725149906 0.09092879790442927
  outer loop
    vertex 126.7319856136518 357.74178122371563 41.26618123974926
    vertex 126.73200306081196 358.1917812237142 36.49374720160334
    vertex 121.29972774849831 356.7917812237165 36.49374713088159
  endloop
endfacet
facet normal 0.7071067720820999 -0.00016047159910833705 0.7071067720821934
  outer loop
    vertex 130.67003524250543 355.3558615143595 58.1296582226351
    vertex 130.15849161454506 360.48586086326964 58.64236605836634
    vertex 130.15802239728063 355.3558615143595 58.641671067859846
  endloop
endfacet
facet normal 0.7071067720820999 -0.00016047159910833705 0.7071067720821934
  outer loop
    vertex 130.15849161454506 360.48586086326964 58.64236605836634
    vertex 130.67003524250543 355.3558615143595 58.1296582226351
    vertex 130.67050445976986 360.48586086326964 58.1303532131416
  endloop
endfacet
facet normal -0.17792247612152404 -0.9796989963838851 0.09237677725053096
  outer loop
    vertex 126.73198824498503 358.7776635474953 41.26618055620035
    vertex 120.39972861696532 359.47766354748615 36.49374717928935
    vertex 126.73200191773118 358.327663547485 36.49374608927354
  endloop
endfacet
facet normal -0.1779224348578101 0.9796989995536466 0.09237682310976382
  outer loop
    vertex 126.73199337829155 361.6135458712282 41.26618506599282
    vertex 126.73200285863095 362.0635458712529 36.4937448778902
    vertex 120.39972868250487 360.9135458712567 36.493747149882225
  endloop
endfacet
facet normal -0.9659258189991792 -0.00012285805270755064 0.25881904314919346
  outer loop
    vertex 135.10814951807157 360.4831510481252 59.9688702306937
    vertex 134.92120667230208 355.3558615143595 59.26875617413538
    vertex 135.1086163807183 355.3558615143595 59.968178727776234
  endloop
endfacet
facet normal -0.9659258189991792 -0.00012285805270755064 0.25881904314919346
  outer loop
    vertex 134.92120667230208 355.3558615143595 59.26875617413538
    vertex 135.10814951807157 360.4831510481252 59.9688702306937
    vertex 134.92073980965543 360.4831510481252 59.26944767705287
  endloop
endfacet
facet normal -0.49999999341258644 -0.00016232561087110446 0.8660253923747326
  outer loop
    vertex 133.42006096588875 355.3558615143595 57.76761046772209
    vertex 134.0466792095177 360.4831510481252 58.13034972555257
    vertex 133.41959410324205 360.4831510481252 57.768301970639556
  endloop
endfacet
facet normal -0.49999999341258644 -0.00016232561087110446 0.8660253923747326
  outer loop
    vertex 134.0466792095177 360.4831510481252 58.13034972555257
    vertex 133.42006096588875 355.3558615143595 57.76761046772209
    vertex 134.04714607216434 355.3558615143595 58.1296582226351
  endloop
endfacet
facet normal -0.9999999958545416 -9.105447267993435e-05 -4.098048963973224e-20
  outer loop
    vertex 135.10814951807157 360.4831510481252 60.69296574051986
    vertex 135.1086163807183 355.3558615143595 59.968178727776234
    vertex 135.1086163807183 355.3558615143595 60.692274237602376
  endloop
endfacet
facet normal -0.9999999958545416 -9.105447267993435e-05 -4.098048963973224e-20
  outer loop
    vertex 135.1086163807183 355.3558615143595 59.968178727776234
    vertex 135.10814951807157 360.4831510481252 60.69296574051986
    vertex 135.10814951807157 360.4831510481252 59.9688702306937
  endloop
endfacet
facet normal -0.9659258249300899 -5.3045680528421604e-05 -0.2588190447383678
  outer loop
    vertex 134.92073980965543 360.4831510481252 61.39238829416072
    vertex 135.1086163807183 355.3558615143595 60.692274237602376
    vertex 134.92120667230208 355.3558615143595 61.391696791243255
  endloop
endfacet
facet normal -0.9659258249300899 -5.3045680528421604e-05 -0.2588190447383678
  outer loop
    vertex 135.1086163807183 355.3558615143595 60.692274237602376
    vertex 134.92073980965543 360.4831510481252 61.39238829416072
    vertex 135.10814951807157 360.4831510481252 60.69296574051986
  endloop
endfacet
facet normal -0.7071067721637395 -0.0001597507083713941 0.7071067721637863
  outer loop
    vertex 134.04714607216434 355.3558615143595 58.1296582226351
    vertex 134.55869205474244 360.4831510481252 58.64236257077733
    vertex 134.0466792095177 360.4831510481252 58.13034972555257
  endloop
endfacet
facet normal -0.7071067721637395 -0.0001597507083713941 0.7071067721637863
  outer loop
    vertex 134.55869205474244 360.4831510481252 58.64236257077733
    vertex 134.04714607216434 355.3558615143595 58.1296582226351
    vertex 134.55915891738917 355.3558615143595 58.64167106785987
  endloop
endfacet
facet normal 0.4999999933530367 -0.0001630581211080407 0.8660253922715041
  outer loop
    vertex 131.29712034878102 355.3558615143595 57.767610467722065
    vertex 130.67050445976986 360.48586086326964 58.1303532131416
    vertex 130.67003524250543 355.3558615143595 58.1296582226351
  endloop
endfacet
facet normal 0.4999999933530367 -0.0001630581211080407 0.8660253922715041
  outer loop
    vertex 130.67050445976986 360.48586086326964 58.1303532131416
    vertex 131.29712034878102 355.3558615143595 57.767610467722065
    vertex 131.29758956604545 360.48586086326964 57.76830545822857
  endloop
endfacet
facet normal 0.965925818933232 -0.0001234124617237582 0.2588190431315469
  outer loop
    vertex 129.79644385963212 360.48586086326964 59.2694511646419
    vertex 129.6085649339515 355.3558615143595 59.968178727776234
    vertex 129.79597464236767 355.3558615143595 59.268756174135426
  endloop
endfacet
facet normal 0.965925818933232 -0.0001234124617237582 0.2588190431315469
  outer loop
    vertex 129.6085649339515 355.3558615143595 59.968178727776234
    vertex 129.79644385963212 360.48586086326964 59.2694511646419
    vertex 129.60903415121592 360.48586086326964 59.96887371828274
  endloop
endfacet
facet normal 0.8660253944339689 -0.00014694920305736116 0.49999999460142047
  outer loop
    vertex 130.15849161454506 360.48586086326964 58.64236605836634
    vertex 129.79597464236767 355.3558615143595 59.268756174135426
    vertex 130.15802239728063 355.3558615143595 58.641671067859846
  endloop
endfacet
facet normal 0.8660253944339689 -0.00014694920305736116 0.49999999460142047
  outer loop
    vertex 129.79597464236767 355.3558615143595 59.268756174135426
    vertex 130.15849161454506 360.48586086326964 58.64236605836634
    vertex 129.79644385963212 360.48586086326964 59.2694511646419
  endloop
endfacet
facet normal 0.2588190420121685 -0.00015453250189418087 0.9659258147557758
  outer loop
    vertex 131.99654290242188 355.3558615143595 57.5802007593059
    vertex 131.29758956604545 360.48586086326964 57.76830545822857
    vertex 131.29712034878102 355.3558615143595 57.767610467722065
  endloop
endfacet
facet normal 0.2588190420121685 -0.00015453250189418087 0.9659258147557758
  outer loop
    vertex 131.29758956604545 360.48586086326964 57.76830545822857
    vertex 131.99654290242188 355.3558615143595 57.5802007593059
    vertex 131.9970121196863 360.48586086326964 57.580895749812385
  endloop
endfacet
facet normal 0.9999999958170436 -9.146536491879372e-05 4.6492970688143517e-20
  outer loop
    vertex 129.60903415121592 360.48586086326964 59.96887371828274
    vertex 129.6085649339515 355.3558615143595 60.692274237602376
    vertex 129.6085649339515 355.3558615143595 59.968178727776234
  endloop
endfacet
facet normal 0.9999999958170436 -9.146536491879372e-05 4.6492970688143517e-20
  outer loop
    vertex 129.6085649339515 355.3558615143595 60.692274237602376
    vertex 129.60903415121592 360.48586086326964 59.96887371828274
    vertex 129.60903415121592 360.48586086326964 60.69296922810887
  endloop
endfacet
facet normal 0.9659258249177923 -5.3285054369422595e-05 -0.25881904473509243
  outer loop
    vertex 129.60903415121592 360.48586086326964 60.69296922810887
    vertex 129.7022697881596 355.3558615143595 61.04198551442281
    vertex 129.6085649339515 355.3558615143595 60.692274237602376
  endloop
endfacet
facet normal 0.9659258249177923 -5.3285054369422595e-05 -0.25881904473509243
  outer loop
    vertex 129.7022697881596 355.3558615143595 61.04198551442281
    vertex 129.60903415121592 360.48586086326964 60.69296922810887
    vertex 129.79597464236767 355.3558615143595 61.391696791243234
  endloop
endfacet
facet normal 0.9659258249177923 -5.3285054369422595e-05 -0.25881904473509243
  outer loop
    vertex 129.79597464236767 355.3558615143595 61.391696791243234
    vertex 129.60903415121592 360.48586086326964 60.69296922810887
    vertex 129.79644385963212 360.48586086326964 61.39239178174973
  endloop
endfacet
facet normal -0.8660253945177689 -0.00014628905933073335 0.4999999946498542
  outer loop
    vertex 134.92073980965543 360.4831510481252 59.26944767705287
    vertex 134.55915891738917 355.3558615143595 58.64167106785987
    vertex 134.92120667230208 355.3558615143595 59.26875617413538
  endloop
endfacet
facet normal -0.8660253945177689 -0.00014628905933073335 0.4999999946498542
  outer loop
    vertex 134.55915891738917 355.3558615143595 58.64167106785987
    vertex 134.92073980965543 360.4831510481252 59.26944767705287
    vertex 134.55869205474244 360.4831510481252 58.64236257077733
  endloop
endfacet
facet normal -1.4021313463445839e-06 5.996402690293634e-08 -0.9999999999990152
  outer loop
    vertex 126.73200191773124 366.2052985265739 36.4937397018742
    vertex 119.49973090496141 363.5994281950222 36.493747198094184
    vertex 119.49972864826404 365.0353105187978 36.493747164334025
  endloop
endfacet
facet normal -1.4021313463445839e-06 5.996402690293634e-08 -0.9999999999990152
  outer loop
    vertex 119.49973090496141 363.5994281950222 36.493747198094184
    vertex 126.73200191773124 366.2052985265739 36.4937397018742
    vertex 126.73200021296756 362.19942219891715 36.49374163316705
  endloop
endfacet
facet normal -1.4021313463445839e-06 5.996402690293634e-08 -0.9999999999990152
  outer loop
    vertex 126.73200021296756 362.19942219891715 36.49374163316705
    vertex 126.73200191773124 366.2052985265739 36.4937397018742
    vertex 126.73200285863095 362.0635458712529 36.4937448778902
  endloop
endfacet
facet normal -1.4021313463445839e-06 5.996402690293634e-08 -0.9999999999990152
  outer loop
    vertex 126.73200285863095 362.0635458712529 36.4937448778902
    vertex 126.73200191773124 366.2052985265739 36.4937397018742
    vertex 137.23074986806168 365.0352753496588 36.493725279461884
  endloop
endfacet
facet normal -1.4021313463445839e-06 5.996402690293634e-08 -0.9999999999990152
  outer loop
    vertex 126.73200285863095 362.0635458712529 36.4937448778902
    vertex 137.23074986806168 365.0352753496588 36.493725279461884
    vertex 126.73200306081196 358.1917812237142 36.49374720160334
  endloop
endfacet
facet normal -1.4021313463445839e-06 5.996402690293634e-08 -0.9999999999990152
  outer loop
    vertex 126.73200306081196 358.1917812237142 36.49374720160334
    vertex 137.23074986806168 365.0352753496588 36.493725279461884
    vertex 126.87210133307642 354.1943051612111 36.4937371706939
  endloop
endfacet
facet normal -1.4021313463445839e-06 5.996402690293634e-08 -0.9999999999990152
  outer loop
    vertex 126.87210133307642 354.1943051612111 36.4937371706939
    vertex 137.23074986806168 365.0352753496588 36.493725279461884
    vertex 137.23073804079644 355.3558637308251 36.493718604681334
  endloop
endfacet
facet normal -1.4021313463445839e-06 5.996402690293634e-08 -0.9999999999990152
  outer loop
    vertex 126.73200306081196 358.1917812237142 36.49374720160334
    vertex 121.29972864826404 355.35589889994515 36.493747164334025
    vertex 121.29972774849831 356.7917812237165 36.49374713088159
  endloop
endfacet
facet normal -1.4021313463445839e-06 5.996402690293634e-08 -0.9999999999990152
  outer loop
    vertex 121.29972864826404 355.35589889994515 36.493747164334025
    vertex 126.73200306081196 358.1917812237142 36.49374720160334
    vertex 126.87210133307642 354.1943051612111 36.4937371706939
  endloop
endfacet
facet normal -1.4021313463445839e-06 5.996402690293634e-08 -0.9999999999990152
  outer loop
    vertex 120.39972868250487 360.9135458712567 36.493747149882225
    vertex 126.73200191773118 358.327663547485 36.49374608927354
    vertex 120.39972861696532 359.47766354748615 36.49374717928935
  endloop
endfacet
facet normal -1.4021313463445839e-06 5.996402690293634e-08 -0.9999999999990152
  outer loop
    vertex 126.73200191773118 358.327663547485 36.49374608927354
    vertex 120.39972868250487 360.9135458712567 36.493747149882225
    vertex 126.73200285863095 362.0635458712529 36.4937448778902
  endloop
endfacet
facet normal -1.4021313463445839e-06 5.996402690293634e-08 -0.9999999999990152
  outer loop
    vertex 126.73200191773118 358.327663547485 36.49374608927354
    vertex 126.73200285863095 362.0635458712529 36.4937448778902
    vertex 126.73200306081196 358.1917812237142 36.49374720160334
  endloop
endfacet
facet normal 0.10823145380759014 -0.9651910106613402 0.23810137619349572
  outer loop
    vertex 126.73197879498755 355.3558988999424 41.26618123984989
    vertex 126.87210133307642 354.1943051612111 36.4937371706939
    vertex 137.23073804079644 355.3558637308251 36.493718604681334
  endloop
endfacet
facet normal -0.15521606899438764 0.9594686224393818 0.2352189075737846
  outer loop
    vertex 126.73201288830869 365.03531051879514 41.26618123934672
    vertex 126.73200191773124 366.2052985265739 36.4937397018742
    vertex 119.49972864826404 365.0353105187978 36.493747164334025
  endloop
endfacet
facet normal -0.1987767431532789 -0.9535694951998207 0.22625875498140258
  outer loop
    vertex 126.73197879498755 355.3558988999424 41.26618123984989
    vertex 121.29972864826404 355.35589889994515 36.493747164334025
    vertex 126.87210133307642 354.1943051612111 36.4937371706939
  endloop
endfacet
facet normal 0.9974003266454239 -8.149569955195784e-05 -0.07205957095384853
  outer loop
    vertex 129.79644385963212 360.48586086326964 61.39239178174973
    vertex 129.84011230556925 355.3558615143595 62.002622936387645
    vertex 129.79597464236767 355.3558615143595 61.391696791243234
  endloop
endfacet
facet normal 0.9974003266454239 -8.149569955195784e-05 -0.07205957095384853
  outer loop
    vertex 129.84011230556925 355.3558615143595 62.002622936387645
    vertex 129.79644385963212 360.48586086326964 61.39239178174973
    vertex 129.84058152283367 360.48202731326967 62.00331792689414
  endloop
endfacet
facet normal 0.9963663881640888 -5.790227139570847e-07 -0.0851705379606889
  outer loop
    vertex 137.23073804079644 355.3558637308251 36.493718604681334
    vertex 139.03324032664565 360.4831510481252 57.5802007593059
    vertex 139.03324032664565 355.3558615143595 57.5802007593059
  endloop
endfacet
facet normal 0.9963663881640888 -5.790227139570847e-07 -0.0851705379606889
  outer loop
    vertex 139.03324032664565 360.4831510481252 57.5802007593059
    vertex 137.23073804079644 355.3558637308251 36.493718604681334
    vertex 137.23074986806168 365.0352753496588 36.493725279461884
  endloop
endfacet
facet normal 0.9963663881640888 -5.790227139570847e-07 -0.0851705379606889
  outer loop
    vertex 139.03324032664565 360.4831510481252 57.5802007593059
    vertex 137.23074986806168 365.0352753496588 36.493725279461884
    vertex 139.03324032664565 365.03527313321223 57.5802007593059
  endloop
endfacet
facet normal -0.565888259582471 0.8051828703875259 0.17734436247376703
  outer loop
    vertex 127.14169404555437 365.0353028310572 57.58052248142538
    vertex 123.93557464448418 365.03531051879037 47.35007876949382
    vertex 124.06333704753231 362.87181159440706 57.58052248142538
  endloop
endfacet
facet normal 0.10761069178375691 0.9655997744280812 0.23672138610243967
  outer loop
    vertex 126.73201288830869 365.03531051879514 41.26618123934672
    vertex 137.23074986806168 365.0352753496588 36.493725279461884
    vertex 126.73200191773124 366.2052985265739 36.4937397018742
  endloop
endfacet
facet normal -0.999922033912087 1.4095451079013525e-05 0.012487029207686576
  outer loop
    vertex 124.06321808255022 357.96357059712136 57.58033354166017
    vertex 123.93557464448418 365.03531051879037 47.35007876949382
    vertex 123.93546193780143 355.3558988999377 47.35005294757219
  endloop
endfacet
facet normal -0.999922033912087 1.4095451079013525e-05 0.012487029207686576
  outer loop
    vertex 123.93557464448418 365.03531051879037 47.35007876949382
    vertex 124.06321808255022 357.96357059712136 57.58033354166017
    vertex 124.06327921774223 360.48587801016816 57.58032768373856
  endloop
endfacet
facet normal -0.999922033912087 1.4095451079013525e-05 0.012487029207686576
  outer loop
    vertex 123.93557464448418 365.03531051879037 47.35007876949382
    vertex 124.06327921774223 360.48587801016816 57.58032768373856
    vertex 124.06333704753231 362.87181159440706 57.58052248142538
  endloop
endfacet
facet normal 0.9223734607369869 -0.00013685280022866341 0.3862993401487833
  outer loop
    vertex 129.84058152283367 360.48202731326967 62.00331792689414
    vertex 129.58424996877076 355.3558615143595 62.61354908153206
    vertex 129.84011230556925 355.3558615143595 62.002622936387645
  endloop
endfacet
facet normal 0.9223734607369869 -0.00013685280022866341 0.3862993401487833
  outer loop
    vertex 129.58424996877076 355.3558615143595 62.61354908153206
    vertex 129.84058152283367 360.48202731326967 62.00331792689414
    vertex 129.58471918603522 360.47819376326964 62.61424407203855
  endloop
endfacet
facet normal -0.9999999999900877 4.287862657623842e-06 -1.1995813907586084e-06
  outer loop
    vertex 126.73199824346825 362.6494281950394 41.26618309240813
    vertex 126.73200285863095 362.0635458712529 36.4937448778902
    vertex 126.73199337829155 361.6135458712282 41.26618506599282
  endloop
endfacet
facet normal -0.9999999999900877 4.287862657623842e-06 -1.1995813907586084e-06
  outer loop
    vertex 126.73200285863095 362.0635458712529 36.4937448778902
    vertex 126.73199824346825 362.6494281950394 41.26618309240813
    vertex 126.73200021296756 362.19942219891715 36.49374163316705
  endloop
endfacet
facet normal -0.9999999999919122 2.354911752912189e-06 -3.2603807988997215e-06
  outer loop
    vertex 126.73198824498503 358.7776635474953 41.26618055620035
    vertex 126.73200306081196 358.1917812237142 36.49374720160334
    vertex 126.7319856136518 357.74178122371563 41.26618123974926
  endloop
endfacet
facet normal -0.9999999999919122 2.354911752912189e-06 -3.2603807988997215e-06
  outer loop
    vertex 126.73200306081196 358.1917812237142 36.49374720160334
    vertex 126.73198824498503 358.7776635474953 41.26618055620035
    vertex 126.73200191773118 358.327663547485 36.49374608927354
  endloop
endfacet
facet normal -0.6018740509862603 -1.3472487036153628e-07 0.7985910259634592
  outer loop
    vertex 126.73198824498503 358.7776635474953 41.26618055620035
    vertex 120.39972868250487 360.9135458712567 36.493747149882225
    vertex 120.39972861696532 359.47766354748615 36.49374717928935
  endloop
endfacet
facet normal -0.6018740509862603 -1.3472487036153628e-07 0.7985910259634592
  outer loop
    vertex 120.39972868250487 360.9135458712567 36.493747149882225
    vertex 126.73198824498503 358.7776635474953 41.26618055620035
    vertex 126.73199337829155 361.6135458712282 41.26618506599282
  endloop
endfacet
facet normal -0.5507723808474512 2.7327667297894523e-06 0.8346554885029885
  outer loop
    vertex 119.49973090496141 363.5994281950222 36.493747198094184
    vertex 126.73201288830869 365.03531051879514 41.26618123934672
    vertex 119.49972864826404 365.0353105187978 36.493747164334025
  endloop
endfacet
facet normal -0.5507723808474512 2.7327667297894523e-06 0.8346554885029885
  outer loop
    vertex 126.73201288830869 365.03531051879514 41.26618123934672
    vertex 119.49973090496141 363.5994281950222 36.493747198094184
    vertex 126.73199824346825 362.6494281950394 41.26618309240813
  endloop
endfacet
facet normal -0.660008157949661 1.279427267135236e-06 0.7512584318583445
  outer loop
    vertex 121.29972864826404 355.35589889994515 36.493747164334025
    vertex 126.7319856136518 357.74178122371563 41.26618123974926
    vertex 121.29972774849831 356.7917812237165 36.49374713088159
  endloop
endfacet
facet normal -0.660008157949661 1.279427267135236e-06 0.7512584318583445
  outer loop
    vertex 126.7319856136518 357.74178122371563 41.26618123974926
    vertex 121.29972864826404 355.35589889994515 36.493747164334025
    vertex 126.73197879498755 355.3558988999424 41.26618123984989
  endloop
endfacet
facet normal -0.9086101675486427 6.715648205378667e-06 -0.41764526021748133
  outer loop
    vertex 123.93557464448418 365.03531051879037 47.35007876949382
    vertex 126.73197879498755 355.3558988999424 41.26618123984989
    vertex 123.93546193780143 355.3558988999377 47.35005294757219
  endloop
endfacet
facet normal -0.9086101675486427 6.715648205378667e-06 -0.41764526021748133
  outer loop
    vertex 126.73197879498755 355.3558988999424 41.26618123984989
    vertex 123.93557464448418 365.03531051879037 47.35007876949382
    vertex 126.7319856136518 357.74178122371563 41.26618123974926
  endloop
endfacet
facet normal -0.9086101675486427 6.715648205378667e-06 -0.41764526021748133
  outer loop
    vertex 126.7319856136518 357.74178122371563 41.26618123974926
    vertex 123.93557464448418 365.03531051879037 47.35007876949382
    vertex 126.73198824498503 358.7776635474953 41.26618055620035
  endloop
endfacet
facet normal -0.9086101675486427 6.715648205378667e-06 -0.41764526021748133
  outer loop
    vertex 126.73198824498503 358.7776635474953 41.26618055620035
    vertex 123.93557464448418 365.03531051879037 47.35007876949382
    vertex 126.73199337829155 361.6135458712282 41.26618506599282
  endloop
endfacet
facet normal -0.9086101675486427 6.715648205378667e-06 -0.41764526021748133
  outer loop
    vertex 126.73199337829155 361.6135458712282 41.26618506599282
    vertex 123.93557464448418 365.03531051879037 47.35007876949382
    vertex 126.73199824346825 362.6494281950394 41.26618309240813
  endloop
endfacet
facet normal -0.9086101675486427 6.715648205378667e-06 -0.41764526021748133
  outer loop
    vertex 126.73199824346825 362.6494281950394 41.26618309240813
    vertex 123.93557464448418 365.03531051879037 47.35007876949382
    vertex 126.73201288830869 365.03531051879514 41.26618123934672
  endloop
endfacet
facet normal -3.2935486681825764e-22 -0.9999999982083634 -5.986044845545916e-05
  outer loop
    vertex 131.95911412542276 354.9557268743162 54.20423205373961
    vertex 126.61651685297399 354.9558989006543 51.33044239427623
    vertex 137.23415760066374 354.9558989006543 51.33044239427623
  endloop
endfacet
facet normal 0.47840215127301083 -5.256590610396653e-05 0.8781408650633342
  outer loop
    vertex 137.23415760066374 354.9558989006543 51.33044239427623
    vertex 131.95911412542276 355.35572687359956 54.204255997919
    vertex 131.95911412542276 354.9557268743162 54.20423205373961
  endloop
endfacet
facet normal 0.47840215127301083 -5.256590610396653e-05 0.8781408650633342
  outer loop
    vertex 131.95911412542276 355.35572687359956 54.204255997919
    vertex 137.23415760066374 354.9558989006543 51.33044239427623
    vertex 137.23415760066374 355.35589889993764 51.33046633845562
  endloop
endfacet
facet normal -0.47371724336583043 -5.271772001536277e-05 0.8806769955884624
  outer loop
    vertex 131.95911412542276 354.9557268743162 54.20423205373961
    vertex 126.61651685297399 355.35589889993764 51.33046633845562
    vertex 126.61651685297399 354.9558989006543 51.33044239427623
  endloop
endfacet
facet normal -0.47371724336583043 -5.271772001536277e-05 0.8806769955884624
  outer loop
    vertex 126.61651685297399 355.35589889993764 51.33046633845562
    vertex 131.95911412542276 354.9557268743162 54.20423205373961
    vertex 131.95911412542276 355.35572687359956 54.204255997919
  endloop
endfacet
facet normal -7.574111976775168e-23 5.9860448478724826e-05 -0.9999999982083634
  outer loop
    vertex 137.23415760066374 355.35589889993764 51.33046633845562
    vertex 126.61651685297399 354.9558989006543 51.33044239427623
    vertex 126.61651685297399 355.35589889993764 51.33046633845562
  endloop
endfacet
facet normal -7.574111976775168e-23 5.9860448478724826e-05 -0.9999999982083634
  outer loop
    vertex 126.61651685297399 354.9558989006543 51.33044239427623
    vertex 137.23415760066374 355.35589889993764 51.33046633845562
    vertex 137.23415760066374 354.9558989006543 51.33044239427623
  endloop
endfacet
facet normal 5.49515096638659e-15 -0.9999999982083634 -5.986044851015609e-05
  outer loop
    vertex 137.06112881499948 354.9562446988655 45.55370300968659
    vertex 134.05802108992333 354.9562845420665 44.88810156597724
    vertex 137.06112881499948 354.9562845420665 44.88810156597724
  endloop
endfacet
facet normal 5.49515096638659e-15 -0.9999999982083634 -5.986044851015609e-05
  outer loop
    vertex 134.05802108992333 354.9562845420665 44.88810156597724
    vertex 137.06112881499948 354.9562446988655 45.55370300968659
    vertex 134.05802108992333 354.9562446988655 45.55370300968659
  endloop
endfacet
facet normal 5.49515096638659e-15 -0.9999999982083634 -5.986044851015609e-05
  outer loop
    vertex 134.05802108992333 354.9562446988655 45.55370300968659
    vertex 137.06112881499948 354.9562446988655 45.55370300968659
    vertex 136.39991039454657 354.9562281582853 45.83002202380689
  endloop
endfacet
facet normal 5.49515096638659e-15 -0.9999999982083634 -5.986044851015609e-05
  outer loop
    vertex 134.05802108992333 354.9562446988655 45.55370300968659
    vertex 136.39991039454657 354.9562281582853 45.83002202380689
    vertex 134.69195713845295 354.9562305394656 45.79024316249389
  endloop
endfacet
facet normal 5.49515096638659e-15 -0.9999999982083634 -5.986044851015609e-05
  outer loop
    vertex 134.69195713845295 354.9562305394656 45.79024316249389
    vertex 136.39991039454657 354.9562281582853 45.83002202380689
    vertex 134.742953498218 354.9559962952311 49.703415216854026
  endloop
endfacet
facet normal 5.49515096638659e-15 -0.9999999982083634 -5.986044851015609e-05
  outer loop
    vertex 134.742953498218 354.9559962952311 49.703415216854026
    vertex 136.39991039454657 354.9562281582853 45.83002202380689
    vertex 136.42719276646974 354.95599139151415 49.78533436467684
  endloop
endfacet
facet normal 5.49515096638659e-15 -0.9999999982083634 -5.986044851015609e-05
  outer loop
    vertex 134.742953498218 354.9559962952311 49.703415216854026
    vertex 136.42719276646974 354.95599139151415 49.78533436467684
    vertex 134.05802108992333 354.95597723211455 50.0218745174842
  endloop
endfacet
facet normal 5.49515096638659e-15 -0.9999999982083634 -5.986044851015609e-05
  outer loop
    vertex 134.05802108992333 354.95597723211455 50.0218745174842
    vertex 136.42719276646974 354.95599139151415 49.78533436467684
    vertex 137.06112881499948 354.95597723211455 50.0218745174842
  endloop
endfacet
facet normal 5.49515096638659e-15 -0.9999999982083634 -5.986044851015609e-05
  outer loop
    vertex 134.05802108992333 354.95597723211455 50.0218745174842
    vertex 137.06112881499948 354.95597723211455 50.0218745174842
    vertex 137.06112881499948 354.9559373889134 50.68747596119352
  endloop
endfacet
facet normal 5.49515096638659e-15 -0.9999999982083634 -5.986044851015609e-05
  outer loop
    vertex 134.05802108992333 354.95597723211455 50.0218745174842
    vertex 137.06112881499948 354.9559373889134 50.68747596119352
    vertex 134.05802108992333 354.9559373889134 50.68747596119352
  endloop
endfacet
facet normal 0.9999762120406517 4.1288677784110355e-07 -0.006897488866189684
  outer loop
    vertex 136.39991039454657 354.9562281582853 45.83002202380689
    vertex 136.42719276646974 355.35599139079744 49.785358308856246
    vertex 136.42719276646974 354.95599139151415 49.78533436467684
  endloop
endfacet
facet normal 0.9999762120406517 4.1288677784110355e-07 -0.006897488866189684
  outer loop
    vertex 136.42719276646974 355.35599139079744 49.785358308856246
    vertex 136.39991039454657 354.9562281582853 45.83002202380689
    vertex 136.39991039454657 355.35622815756864 45.830045967986294
  endloop
endfacet
facet normal 0.3495864352439097 5.6083500646568607e-05 -0.9369041152370379
  outer loop
    vertex 137.06112881499948 355.35597723139784 50.0218984616636
    vertex 136.42719276646974 354.95599139151415 49.78533436467684
    vertex 136.42719276646974 355.35599139079744 49.785358308856246
  endloop
endfacet
facet normal 0.3495864352439097 5.6083500646568607e-05 -0.9369041152370379
  outer loop
    vertex 136.42719276646974 354.95599139151415 49.78533436467684
    vertex 137.06112881499948 355.35597723139784 50.0218984616636
    vertex 137.06112881499948 354.95597723211455 50.0218745174842
  endloop
endfacet
facet normal 1.0 -0.0 -0.0
  outer loop
    vertex 137.06112881499948 354.95597723211455 50.0218745174842
    vertex 137.06112881499948 355.35593738819676 50.687499905372924
    vertex 137.06112881499948 354.9559373889134 50.68747596119352
  endloop
endfacet
facet normal 1.0 -0.0 -0.0
  outer loop
    vertex 137.06112881499948 355.35593738819676 50.687499905372924
    vertex 137.06112881499948 354.95597723211455 50.0218745174842
    vertex 137.06112881499948 355.35597723139784 50.0218984616636
  endloop
endfacet
facet normal -0.0 -5.986044850692449e-05 0.9999999982083634
  outer loop
    vertex 137.06112881499948 354.9559373889134 50.68747596119352
    vertex 134.05802108992333 355.35593738819676 50.687499905372924
    vertex 134.05802108992333 354.9559373889134 50.68747596119352
  endloop
endfacet
facet normal -0.0 -5.986044850692449e-05 0.9999999982083634
  outer loop
    vertex 134.05802108992333 355.35593738819676 50.687499905372924
    vertex 137.06112881499948 354.9559373889134 50.68747596119352
    vertex 137.06112881499948 355.35593738819676 50.687499905372924
  endloop
endfacet
facet normal -1.0 0.0 0.0
  outer loop
    vertex 134.05802108992333 355.35593738819676 50.687499905372924
    vertex 134.05802108992333 354.95597723211455 50.0218745174842
    vertex 134.05802108992333 354.9559373889134 50.68747596119352
  endloop
endfacet
facet normal -1.0 0.0 0.0
  outer loop
    vertex 134.05802108992333 354.95597723211455 50.0218745174842
    vertex 134.05802108992333 355.35593738819676 50.687499905372924
    vertex 134.05802108992333 355.35597723139784 50.0218984616636
  endloop
endfacet
facet normal -0.42160676041296935 5.4280183929860216e-05 -0.9067787693962308
  outer loop
    vertex 134.742953498218 355.3559962945144 49.70343916103343
    vertex 134.05802108992333 354.95597723211455 50.0218745174842
    vertex 134.05802108992333 355.35597723139784 50.0218984616636
  endloop
endfacet
facet normal -0.42160676041296935 5.4280183929860216e-05 -0.9067787693962308
  outer loop
    vertex 134.05802108992333 354.95597723211455 50.0218745174842
    vertex 134.742953498218 355.3559962945144 49.70343916103343
    vertex 134.742953498218 354.9559962952311 49.703415216854026
  endloop
endfacet
facet normal -0.9999150946307693 -7.800336229124793e-07 0.013030868310722785
  outer loop
    vertex 134.742953498218 355.3559962945144 49.70343916103343
    vertex 134.69195713845295 354.9562305394656 45.79024316249389
    vertex 134.742953498218 354.9559962952311 49.703415216854026
  endloop
endfacet
facet normal -0.9999150946307693 -7.800336229124793e-07 0.013030868310722785
  outer loop
    vertex 134.69195713845295 354.9562305394656 45.79024316249389
    vertex 134.742953498218 355.3559962945144 49.70343916103343
    vertex 134.69195713845295 355.35623053874895 45.79026710667329
  endloop
endfacet
facet normal -0.34958643524387645 -5.608350064656912e-05 0.9369041152370504
  outer loop
    vertex 134.69195713845295 354.9562305394656 45.79024316249389
    vertex 134.05802108992333 355.35624469814877 45.553726953866
    vertex 134.05802108992333 354.9562446988655 45.55370300968659
  endloop
endfacet
facet normal -0.34958643524387645 -5.608350064656912e-05 0.9369041152370504
  outer loop
    vertex 134.05802108992333 355.35624469814877 45.553726953866
    vertex 134.69195713845295 354.9562305394656 45.79024316249389
    vertex 134.69195713845295 355.35623053874895 45.79026710667329
  endloop
endfacet
facet normal -1.0 0.0 0.0
  outer loop
    vertex 134.05802108992333 355.35624469814877 45.553726953866
    vertex 134.05802108992333 354.9562845420665 44.88810156597724
    vertex 134.05802108992333 354.9562446988655 45.55370300968659
  endloop
endfacet
facet normal -1.0 0.0 0.0
  outer loop
    vertex 134.05802108992333 354.9562845420665 44.88810156597724
    vertex 134.05802108992333 355.35624469814877 45.553726953866
    vertex 134.05802108992333 355.35628454134985 44.88812551015664
  endloop
endfacet
facet normal 0.0 5.986044850692449e-05 -0.9999999982083634
  outer loop
    vertex 137.06112881499948 355.35628454134985 44.88812551015664
    vertex 134.05802108992333 354.9562845420665 44.88810156597724
    vertex 134.05802108992333 355.35628454134985 44.88812551015664
  endloop
endfacet
facet normal 0.0 5.986044850692449e-05 -0.9999999982083634
  outer loop
    vertex 134.05802108992333 354.9562845420665 44.88810156597724
    vertex 137.06112881499948 355.35628454134985 44.88812551015664
    vertex 137.06112881499948 354.9562845420665 44.88810156597724
  endloop
endfacet
facet normal 1.0 -0.0 -0.0
  outer loop
    vertex 137.06112881499948 354.9562845420665 44.88810156597724
    vertex 137.06112881499948 355.35624469814877 45.553726953866
    vertex 137.06112881499948 354.9562446988655 45.55370300968659
  endloop
endfacet
facet normal 1.0 -0.0 -0.0
  outer loop
    vertex 137.06112881499948 355.35624469814877 45.553726953866
    vertex 137.06112881499948 354.9562845420665 44.88810156597724
    vertex 137.06112881499948 355.35628454134985 44.88812551015664
  endloop
endfacet
facet normal 0.385579851593774 -5.523170761486111e-05 0.9226744685935457
  outer loop
    vertex 137.06112881499948 354.9562446988655 45.55370300968659
    vertex 136.39991039454657 355.35622815756864 45.830045967986294
    vertex 136.39991039454657 354.9562281582853 45.83002202380689
  endloop
endfacet
facet normal 0.385579851593774 -5.523170761486111e-05 0.9226744685935457
  outer loop
    vertex 136.39991039454657 355.35622815756864 45.830045967986294
    vertex 137.06112881499948 354.9562446988655 45.55370300968659
    vertex 137.06112881499948 355.35624469814877 45.553726953866
  endloop
endfacet
facet normal -4.639728445502945e-15 -0.9999999982083634 -5.986044849495472e-05
  outer loop
    vertex 133.45584663691227 354.95624469886536 45.55370300968661
    vertex 130.45273891183598 354.9562845420664 44.88810156597725
    vertex 133.45584663691227 354.9562845420664 44.88810156597725
  endloop
endfacet
facet normal -4.639728445502945e-15 -0.9999999982083634 -5.986044849495472e-05
  outer loop
    vertex 130.45273891183598 354.9562845420664 44.88810156597725
    vertex 133.45584663691227 354.95624469886536 45.55370300968661
    vertex 130.45273891183598 354.95624469886536 45.55370300968661
  endloop
endfacet
facet normal -4.639728445502945e-15 -0.9999999982083634 -5.986044849495472e-05
  outer loop
    vertex 130.45273891183598 354.95624469886536 45.55370300968661
    vertex 133.45584663691227 354.95624469886536 45.55370300968661
    vertex 132.8219105883825 354.9562305394656 45.790243162493894
  endloop
endfacet
facet normal -4.639728445502945e-15 -0.9999999982083634 -5.986044849495472e-05
  outer loop
    vertex 130.45273891183598 354.95624469886536 45.55370300968661
    vertex 132.8219105883825 354.9562305394656 45.790243162493894
    vertex 131.08667496036583 354.9562305394656 45.790243162493894
  endloop
endfacet
facet normal -4.639728445502945e-15 -0.9999999982083634 -5.986044849495472e-05
  outer loop
    vertex 131.08667496036583 354.9562305394656 45.790243162493894
    vertex 132.8219105883825 354.9562305394656 45.790243162493894
    vertex 132.8219105883825 354.95599139151403 49.78533436467686
  endloop
endfacet
facet normal -4.639728445502945e-15 -0.9999999982083634 -5.986044849495472e-05
  outer loop
    vertex 131.08667496036583 354.9562305394656 45.790243162493894
    vertex 132.8219105883825 354.95599139151403 49.78533436467686
    vertex 131.13767132013086 354.9559962952311 49.70341521685403
  endloop
endfacet
facet normal -4.639728445502945e-15 -0.9999999982083634 -5.986044849495472e-05
  outer loop
    vertex 131.13767132013086 354.9559962952311 49.70341521685403
    vertex 132.8219105883825 354.95599139151403 49.78533436467686
    vertex 130.45273891183598 354.95597723211455 50.02187451748422
  endloop
endfacet
facet normal -4.639728445502945e-15 -0.9999999982083634 -5.986044849495472e-05
  outer loop
    vertex 130.45273891183598 354.95597723211455 50.02187451748422
    vertex 132.8219105883825 354.95599139151403 49.78533436467686
    vertex 133.45584663691227 354.95597723211455 50.02187451748422
  endloop
endfacet
facet normal -4.639728445502945e-15 -0.9999999982083634 -5.986044849495472e-05
  outer loop
    vertex 130.45273891183598 354.95597723211455 50.02187451748422
    vertex 133.45584663691227 354.95597723211455 50.02187451748422
    vertex 133.45584663691227 354.9559373889134 50.687475961193535
  endloop
endfacet
facet normal -4.639728445502945e-15 -0.9999999982083634 -5.986044849495472e-05
  outer loop
    vertex 130.45273891183598 354.95597723211455 50.02187451748422
    vertex 133.45584663691227 354.9559373889134 50.687475961193535
    vertex 130.45273891183598 354.9559373889134 50.687475961193535
  endloop
endfacet
facet normal -0.9999150946307693 -7.800336229052514e-07 0.013030868310722787
  outer loop
    vertex 131.13767132013086 355.3559962945145 49.70343916103344
    vertex 131.08667496036583 354.9562305394656 45.790243162493894
    vertex 131.13767132013086 354.9559962952311 49.70341521685403
  endloop
endfacet
facet normal -0.9999150946307693 -7.800336229052514e-07 0.013030868310722787
  outer loop
    vertex 131.08667496036583 354.9562305394656 45.790243162493894
    vertex 131.13767132013086 355.3559962945145 49.70343916103344
    vertex 131.08667496036583 355.35623053874895 45.7902671066733
  endloop
endfacet
facet normal -0.34958643524377814 -5.6083500646500864e-05 0.936904115237087
  outer loop
    vertex 131.08667496036583 354.9562305394656 45.790243162493894
    vertex 130.45273891183598 355.35624469814877 45.55372695386601
    vertex 130.45273891183598 354.95624469886536 45.55370300968661
  endloop
endfacet
facet normal -0.34958643524377814 -5.6083500646500864e-05 0.936904115237087
  outer loop
    vertex 130.45273891183598 355.35624469814877 45.55372695386601
    vertex 131.08667496036583 354.9562305394656 45.790243162493894
    vertex 131.08667496036583 355.35623053874895 45.7902671066733
  endloop
endfacet
facet normal -1.0 0.0 0.0
  outer loop
    vertex 130.45273891183598 355.35624469814877 45.55372695386601
    vertex 130.45273891183598 354.9562845420664 44.88810156597725
    vertex 130.45273891183598 354.95624469886536 45.55370300968661
  endloop
endfacet
facet normal -1.0 0.0 0.0
  outer loop
    vertex 130.45273891183598 354.9562845420664 44.88810156597725
    vertex 130.45273891183598 355.35624469814877 45.55372695386601
    vertex 130.45273891183598 355.35628454134985 44.88812551015665
  endloop
endfacet
facet normal 0.0 5.986044850691099e-05 -0.9999999982083634
  outer loop
    vertex 133.45584663691227 355.35628454134985 44.88812551015665
    vertex 130.45273891183598 354.9562845420664 44.88810156597725
    vertex 130.45273891183598 355.35628454134985 44.88812551015665
  endloop
endfacet
facet normal 0.0 5.986044850691099e-05 -0.9999999982083634
  outer loop
    vertex 130.45273891183598 354.9562845420664 44.88810156597725
    vertex 133.45584663691227 355.35628454134985 44.88812551015665
    vertex 133.45584663691227 354.9562845420664 44.88810156597725
  endloop
endfacet
facet normal 1.0 -0.0 -0.0
  outer loop
    vertex 133.45584663691227 354.9562845420664 44.88810156597725
    vertex 133.45584663691227 355.35624469814877 45.55372695386601
    vertex 133.45584663691227 354.95624469886536 45.55370300968661
  endloop
endfacet
facet normal 1.0 -0.0 -0.0
  outer loop
    vertex 133.45584663691227 355.35624469814877 45.55372695386601
    vertex 133.45584663691227 354.9562845420664 44.88810156597725
    vertex 133.45584663691227 355.35628454134985 44.88812551015665
  endloop
endfacet
facet normal 0.34958643524381094 -5.6083500646591626e-05 0.9369041152370747
  outer loop
    vertex 133.45584663691227 354.95624469886536 45.55370300968661
    vertex 132.8219105883825 355.35623053874895 45.7902671066733
    vertex 132.8219105883825 354.9562305394656 45.790243162493894
  endloop
endfacet
facet normal 0.34958643524381094 -5.6083500646591626e-05 0.9369041152370747
  outer loop
    vertex 132.8219105883825 355.35623053874895 45.7902671066733
    vertex 133.45584663691227 354.95624469886536 45.55370300968661
    vertex 133.45584663691227 355.35624469814877 45.55372695386601
  endloop
endfacet
facet normal 1.0 -0.0 -0.0
  outer loop
    vertex 132.8219105883825 354.9562305394656 45.790243162493894
    vertex 132.8219105883825 355.35599139079744 49.78535830885626
    vertex 132.8219105883825 354.95599139151403 49.78533436467686
  endloop
endfacet
facet normal 1.0 -0.0 -0.0
  outer loop
    vertex 132.8219105883825 355.35599139079744 49.78535830885626
    vertex 132.8219105883825 354.9562305394656 45.790243162493894
    vertex 132.8219105883825 355.35623053874895 45.7902671066733
  endloop
endfacet
facet normal 0.34958643524390604 5.608350064655549e-05 -0.9369041152370393
  outer loop
    vertex 133.45584663691227 355.35597723139784 50.021898461663625
    vertex 132.8219105883825 354.95599139151403 49.78533436467686
    vertex 132.8219105883825 355.35599139079744 49.78535830885626
  endloop
endfacet
facet normal 0.34958643524390604 5.608350064655549e-05 -0.9369041152370393
  outer loop
    vertex 132.8219105883825 354.95599139151403 49.78533436467686
    vertex 133.45584663691227 355.35597723139784 50.021898461663625
    vertex 133.45584663691227 354.95597723211455 50.02187451748422
  endloop
endfacet
facet normal 1.0 -0.0 -0.0
  outer loop
    vertex 133.45584663691227 354.95597723211455 50.02187451748422
    vertex 133.45584663691227 355.35593738819676 50.68749990537293
    vertex 133.45584663691227 354.9559373889134 50.687475961193535
  endloop
endfacet
facet normal 1.0 -0.0 -0.0
  outer loop
    vertex 133.45584663691227 355.35593738819676 50.68749990537293
    vertex 133.45584663691227 354.95597723211455 50.02187451748422
    vertex 133.45584663691227 355.35597723139784 50.021898461663625
  endloop
endfacet
facet normal -0.0 -5.986044850692449e-05 0.9999999982083634
  outer loop
    vertex 133.45584663691227 354.9559373889134 50.687475961193535
    vertex 130.45273891183598 355.35593738819676 50.68749990537293
    vertex 130.45273891183598 354.9559373889134 50.687475961193535
  endloop
endfacet
facet normal -0.0 -5.986044850692449e-05 0.9999999982083634
  outer loop
    vertex 130.45273891183598 355.35593738819676 50.68749990537293
    vertex 133.45584663691227 354.9559373889134 50.687475961193535
    vertex 133.45584663691227 355.35593738819676 50.68749990537293
  endloop
endfacet
facet normal -1.0 0.0 0.0
  outer loop
    vertex 130.45273891183598 355.35593738819676 50.68749990537293
    vertex 130.45273891183598 354.95597723211455 50.02187451748422
    vertex 130.45273891183598 354.9559373889134 50.687475961193535
  endloop
endfacet
facet normal -1.0 0.0 0.0
  outer loop
    vertex 130.45273891183598 354.95597723211455 50.02187451748422
    vertex 130.45273891183598 355.35593738819676 50.68749990537293
    vertex 130.45273891183598 355.35597723139784 50.021898461663625
  endloop
endfacet
facet normal -0.4216067604128727 5.428018392986898e-05 -0.9067787693962757
  outer loop
    vertex 131.13767132013086 355.3559962945145 49.70343916103344
    vertex 130.45273891183598 354.95597723211455 50.02187451748422
    vertex 130.45273891183598 355.35597723139784 50.021898461663625
  endloop
endfacet
facet normal -0.4216067604128727 5.428018392986898e-05 -0.9067787693962757
  outer loop
    vertex 130.45273891183598 354.95597723211455 50.02187451748422
    vertex 131.13767132013086 355.3559962945145 49.70343916103344
    vertex 131.13767132013086 354.9559962952311 49.70341521685403
  endloop
endfacet
facet normal 1.861020514334237e-15 -0.9999999982083634 -5.986044851279324e-05
  outer loop
    vertex 129.85056445882498 354.95624469886536 45.5537030096866
    vertex 126.84745673374863 354.9562845420664 44.888101565977244
    vertex 129.85056445882498 354.9562845420664 44.888101565977244
  endloop
endfacet
facet normal 1.861020514334237e-15 -0.9999999982083634 -5.986044851279324e-05
  outer loop
    vertex 126.84745673374863 354.9562845420664 44.888101565977244
    vertex 129.85056445882498 354.95624469886536 45.5537030096866
    vertex 126.84745673374863 354.95624469886536 45.5537030096866
  endloop
endfacet
facet normal 1.861020514334237e-15 -0.9999999982083634 -5.986044851279324e-05
  outer loop
    vertex 126.84745673374863 354.95624469886536 45.5537030096866
    vertex 129.85056445882498 354.95624469886536 45.5537030096866
    vertex 129.18934603837198 354.9562281582853 45.8300220238069
  endloop
endfacet
facet normal 1.861020514334237e-15 -0.9999999982083634 -5.986044851279324e-05
  outer loop
    vertex 126.84745673374863 354.95624469886536 45.5537030096866
    vertex 129.18934603837198 354.9562281582853 45.8300220238069
    vertex 127.48139278227846 354.9562305394656 45.790243162493894
  endloop
endfacet
facet normal 1.861020514334237e-15 -0.9999999982083634 -5.986044851279324e-05
  outer loop
    vertex 127.48139278227846 354.9562305394656 45.790243162493894
    vertex 129.18934603837198 354.9562281582853 45.8300220238069
    vertex 127.53238914204341 354.9559962952311 49.70341521685403
  endloop
endfacet
facet normal 1.861020514334237e-15 -0.9999999982083634 -5.986044851279324e-05
  outer loop
    vertex 127.53238914204341 354.9559962952311 49.70341521685403
    vertex 129.18934603837198 354.9562281582853 45.8300220238069
    vertex 129.21662841029516 354.95599139151403 49.78533436467685
  endloop
endfacet
facet normal 1.861020514334237e-15 -0.9999999982083634 -5.986044851279324e-05
  outer loop
    vertex 127.53238914204341 354.9559962952311 49.70341521685403
    vertex 129.21662841029516 354.95599139151403 49.78533436467685
    vertex 126.84745673374863 354.95597723211444 50.021874517484214
  endloop
endfacet
facet normal 1.861020514334237e-15 -0.9999999982083634 -5.986044851279324e-05
  outer loop
    vertex 126.84745673374863 354.95597723211444 50.021874517484214
    vertex 129.21662841029516 354.95599139151403 49.78533436467685
    vertex 129.85056445882498 354.95597723211444 50.021874517484214
  endloop
endfacet
facet normal 1.861020514334237e-15 -0.9999999982083634 -5.986044851279324e-05
  outer loop
    vertex 126.84745673374863 354.95597723211444 50.021874517484214
    vertex 129.85056445882498 354.95597723211444 50.021874517484214
    vertex 129.85056445882498 354.95593738891336 50.68747596119353
  endloop
endfacet
facet normal 1.861020514334237e-15 -0.9999999982083634 -5.986044851279324e-05
  outer loop
    vertex 126.84745673374863 354.95597723211444 50.021874517484214
    vertex 129.85056445882498 354.95593738891336 50.68747596119353
    vertex 126.84745673374863 354.95593738891336 50.68747596119353
  endloop
endfacet
facet normal 1.0 -0.0 -0.0
  outer loop
    vertex 129.85056445882498 354.9562845420664 44.888101565977244
    vertex 129.85056445882498 355.35624469814877 45.553726953866004
    vertex 129.85056445882498 354.95624469886536 45.5537030096866
  endloop
endfacet
facet normal 1.0 -0.0 -0.0
  outer loop
    vertex 129.85056445882498 355.35624469814877 45.553726953866004
    vertex 129.85056445882498 354.9562845420664 44.888101565977244
    vertex 129.85056445882498 355.35628454134985 44.88812551015665
  endloop
endfacet
facet normal 0.385579851593718 -5.523170761485295e-05 0.9226744685935692
  outer loop
    vertex 129.85056445882498 354.95624469886536 45.5537030096866
    vertex 129.18934603837198 355.35622815756864 45.830045967986294
    vertex 129.18934603837198 354.9562281582853 45.8300220238069
  endloop
endfacet
facet normal 0.385579851593718 -5.523170761485295e-05 0.9226744685935692
  outer loop
    vertex 129.18934603837198 355.35622815756864 45.830045967986294
    vertex 129.85056445882498 354.95624469886536 45.5537030096866
    vertex 129.85056445882498 355.35624469814877 45.553726953866004
  endloop
endfacet
facet normal 0.9999762120406517 4.1288677783770796e-07 -0.0068974888661953865
  outer loop
    vertex 129.18934603837198 354.9562281582853 45.8300220238069
    vertex 129.21662841029516 355.3559913907974 49.78535830885625
    vertex 129.21662841029516 354.95599139151403 49.78533436467685
  endloop
endfacet
facet normal 0.9999762120406517 4.1288677783770796e-07 -0.0068974888661953865
  outer loop
    vertex 129.21662841029516 355.3559913907974 49.78535830885625
    vertex 129.18934603837198 354.9562281582853 45.8300220238069
    vertex 129.18934603837198 355.35622815756864 45.830045967986294
  endloop
endfacet
facet normal 0.34958643524387323 5.608350064656712e-05 -0.9369041152370516
  outer loop
    vertex 129.85056445882498 355.35597723139784 50.02189846166362
    vertex 129.21662841029516 354.95599139151403 49.78533436467685
    vertex 129.21662841029516 355.3559913907974 49.78535830885625
  endloop
endfacet
facet normal 0.34958643524387323 5.608350064656712e-05 -0.9369041152370516
  outer loop
    vertex 129.21662841029516 354.95599139151403 49.78533436467685
    vertex 129.85056445882498 355.35597723139784 50.02189846166362
    vertex 129.85056445882498 354.95597723211444 50.021874517484214
  endloop
endfacet
facet normal 1.0 -0.0 -0.0
  outer loop
    vertex 129.85056445882498 354.95597723211444 50.021874517484214
    vertex 129.85056445882498 355.35593738819676 50.68749990537293
    vertex 129.85056445882498 354.95593738891336 50.68747596119353
  endloop
endfacet
facet normal 1.0 -0.0 -0.0
  outer loop
    vertex 129.85056445882498 355.35593738819676 50.68749990537293
    vertex 129.85056445882498 354.95597723211444 50.021874517484214
    vertex 129.85056445882498 355.35597723139784 50.02189846166362
  endloop
endfacet
facet normal -0.0 -5.9860448506910986e-05 0.9999999982083634
  outer loop
    vertex 129.85056445882498 354.95593738891336 50.68747596119353
    vertex 126.84745673374863 355.35593738819676 50.68749990537293
    vertex 126.84745673374863 354.95593738891336 50.68747596119353
  endloop
endfacet
facet normal -0.0 -5.9860448506910986e-05 0.9999999982083634
  outer loop
    vertex 126.84745673374863 355.35593738819676 50.68749990537293
    vertex 129.85056445882498 354.95593738891336 50.68747596119353
    vertex 129.85056445882498 355.35593738819676 50.68749990537293
  endloop
endfacet
facet normal -1.0 0.0 0.0
  outer loop
    vertex 126.84745673374863 355.35593738819676 50.68749990537293
    vertex 126.84745673374863 354.95597723211444 50.021874517484214
    vertex 126.84745673374863 354.95593738891336 50.68747596119353
  endloop
endfacet
facet normal -1.0 0.0 0.0
  outer loop
    vertex 126.84745673374863 354.95597723211444 50.021874517484214
    vertex 126.84745673374863 355.35593738819676 50.68749990537293
    vertex 126.84745673374863 355.35597723139784 50.02189846166362
  endloop
endfacet
facet normal -0.42160676041291845 5.428018392987224e-05 -0.9067787693962545
  outer loop
    vertex 127.53238914204341 355.3559962945144 49.70343916103343
    vertex 126.84745673374863 354.95597723211444 50.021874517484214
    vertex 126.84745673374863 355.35597723139784 50.02189846166362
  endloop
endfacet
facet normal -0.42160676041291845 5.428018392987224e-05 -0.9067787693962545
  outer loop
    vertex 126.84745673374863 354.95597723211444 50.021874517484214
    vertex 127.53238914204341 355.3559962945144 49.70343916103343
    vertex 127.53238914204341 354.9559962952311 49.70341521685403
  endloop
endfacet
facet normal -0.9999150946307696 -7.800336229065867e-07 0.013030868310699733
  outer loop
    vertex 127.53238914204341 355.3559962945144 49.70343916103343
    vertex 127.48139278227846 354.9562305394656 45.790243162493894
    vertex 127.53238914204341 354.9559962952311 49.70341521685403
  endloop
endfacet
facet normal -0.9999150946307696 -7.800336229065867e-07 0.013030868310699733
  outer loop
    vertex 127.48139278227846 354.9562305394656 45.790243162493894
    vertex 127.53238914204341 355.3559962945144 49.70343916103343
    vertex 127.48139278227846 355.35623053874895 45.79026710667329
  endloop
endfacet
facet normal -0.34958643524377814 -5.6083500646500864e-05 0.936904115237087
  outer loop
    vertex 127.48139278227846 354.9562305394656 45.790243162493894
    vertex 126.84745673374863 355.35624469814877 45.553726953866004
    vertex 126.84745673374863 354.95624469886536 45.5537030096866
  endloop
endfacet
facet normal -0.34958643524377814 -5.6083500646500864e-05 0.936904115237087
  outer loop
    vertex 126.84745673374863 355.35624469814877 45.553726953866004
    vertex 127.48139278227846 354.9562305394656 45.790243162493894
    vertex 127.48139278227846 355.35623053874895 45.79026710667329
  endloop
endfacet
facet normal -1.0 0.0 0.0
  outer loop
    vertex 126.84745673374863 355.35624469814877 45.553726953866004
    vertex 126.84745673374863 354.9562845420664 44.888101565977244
    vertex 126.84745673374863 354.95624469886536 45.5537030096866
  endloop
endfacet
facet normal -1.0 0.0 0.0
  outer loop
    vertex 126.84745673374863 354.9562845420664 44.888101565977244
    vertex 126.84745673374863 355.35624469814877 45.553726953866004
    vertex 126.84745673374863 355.35628454134985 44.88812551015665
  endloop
endfacet
facet normal 0.0 5.9860448506910986e-05 -0.9999999982083634
  outer loop
    vertex 129.85056445882498 355.35628454134985 44.88812551015665
    vertex 126.84745673374863 354.9562845420664 44.888101565977244
    vertex 126.84745673374863 355.35628454134985 44.88812551015665
  endloop
endfacet
facet normal 0.0 5.9860448506910986e-05 -0.9999999982083634
  outer loop
    vertex 126.84745673374863 354.9562845420664 44.888101565977244
    vertex 129.85056445882498 355.35628454134985 44.88812551015665
    vertex 129.85056445882498 354.9562845420664 44.888101565977244
  endloop
endfacet
facet normal -0.0 -0.00013547574820767892 0.9999999908231608
  outer loop
    vertex 132.7206384122479 355.3558615143595 57.5802007593059
    vertex 131.9970121196863 360.48586086326964 57.580895749812385
    vertex 131.99654290242188 355.3558615143595 57.5802007593059
  endloop
endfacet
facet normal 0.0009622604901017234 9.41935258158558e-06 0.9999995369829054
  outer loop
    vertex 132.7206384122479 355.3558615143595 57.5802007593059
    vertex 132.36391226326998 360.4851134056675 57.58040033733067
    vertex 131.9970121196863 360.48586086326964 57.580895749812385
  endloop
endfacet
facet normal 0.0009622604901017234 9.41935258158558e-06 0.9999995369829054
  outer loop
    vertex 132.36391226326998 360.4851134056675 57.58040033733067
    vertex 132.7206384122479 355.3558615143595 57.5802007593059
    vertex 132.7206384122479 360.48586086326964 57.58020075930593
  endloop
endfacet
facet normal 0.6402802622689854 3.551987980382353e-14 0.768141383957901
  outer loop
    vertex 129.58424996877076 355.3558615143595 62.61354908153206
    vertex 128.52957013281517 360.4781937632698 63.492671982703975
    vertex 128.52957013281522 355.35586151435956 63.49267198270416
  endloop
endfacet
facet normal 0.6398133676743991 -0.00016288141861171062 0.7685303039014063
  outer loop
    vertex 129.58471918603522 360.47819376326964 62.61424407203855
    vertex 128.52957013281517 360.4781937632698 63.492671982703975
    vertex 129.58424996877076 355.3558615143595 62.61354908153206
  endloop
endfacet
facet normal -0.24297068355871845 3.0976865288829266e-14 0.9700336318556224
  outer loop
    vertex 128.52957013281522 355.35586151435956 63.49267198270416
    vertex 128.52957013281517 360.4781937632698 63.492671982703975
    vertex 127.15571153592745 355.35586151435956 63.14855261257439
  endloop
endfacet
facet normal -0.24258741179693952 -0.00010924068101389235 0.9701295458360887
  outer loop
    vertex 128.52957013281517 360.4781937632698 63.492671982703975
    vertex 127.15618075319186 360.48586086326986 63.149247603080674
    vertex 127.15571153592745 355.35586151435956 63.14855261257439
  endloop
endfacet
facet normal -1.257565305910196e-06 -0.9999999999988036 -9.007616752993332e-07
  outer loop
    vertex 129.85056445882498 355.35628454134985 44.88812551015665
    vertex 130.45273891183598 355.35628454134985 44.88812551015665
    vertex 129.85056445882498 355.35624469814877 45.553726953866004
  endloop
endfacet
facet normal -1.257565305910196e-06 -0.9999999999988036 -9.007616752993332e-07
  outer loop
    vertex 130.45273891183598 355.35628454134985 44.88812551015665
    vertex 129.85056445882498 355.35628454134985 44.88812551015665
    vertex 133.45584663691227 355.35628454134985 44.88812551015665
  endloop
endfacet
facet normal -1.257565305910196e-06 -0.9999999999988036 -9.007616752993332e-07
  outer loop
    vertex 129.85056445882498 355.35624469814877 45.553726953866004
    vertex 130.45273891183598 355.35628454134985 44.88812551015665
    vertex 130.45273891183598 355.35624469814877 45.55372695386601
  endloop
endfacet
facet normal -1.257565305910196e-06 -0.9999999999988036 -9.007616752993332e-07
  outer loop
    vertex 129.85056445882498 355.35624469814877 45.553726953866004
    vertex 130.45273891183598 355.35624469814877 45.55372695386601
    vertex 129.18934603837198 355.35622815756864 45.830045967986294
  endloop
endfacet
facet normal -1.257565305910196e-06 -0.9999999999988036 -9.007616752993332e-07
  outer loop
    vertex 129.18934603837198 355.35622815756864 45.830045967986294
    vertex 130.45273891183598 355.35624469814877 45.55372695386601
    vertex 131.08667496036583 355.35623053874895 45.7902671066733
  endloop
endfacet
facet normal -1.257565305910196e-06 -0.9999999999988036 -9.007616752993332e-07
  outer loop
    vertex 129.18934603837198 355.35622815756864 45.830045967986294
    vertex 131.08667496036583 355.35623053874895 45.7902671066733
    vertex 131.13767132013086 355.3559962945145 49.70343916103344
  endloop
endfacet
facet normal -1.257565305910196e-06 -0.9999999999988036 -9.007616752993332e-07
  outer loop
    vertex 129.18934603837198 355.35622815756864 45.830045967986294
    vertex 131.13767132013086 355.3559962945145 49.70343916103344
    vertex 129.21662841029516 355.3559913907974 49.78535830885625
  endloop
endfacet
facet normal -1.257565305910196e-06 -0.9999999999988036 -9.007616752993332e-07
  outer loop
    vertex 129.21662841029516 355.3559913907974 49.78535830885625
    vertex 131.13767132013086 355.3559962945145 49.70343916103344
    vertex 130.45273891183598 355.35597723139784 50.021898461663625
  endloop
endfacet
facet normal -1.257565305910196e-06 -0.9999999999988036 -9.007616752993332e-07
  outer loop
    vertex 129.21662841029516 355.3559913907974 49.78535830885625
    vertex 130.45273891183598 355.35597723139784 50.021898461663625
    vertex 129.85056445882498 355.35597723139784 50.02189846166362
  endloop
endfacet
facet normal -1.257565305910196e-06 -0.9999999999988036 -9.007616752993332e-07
  outer loop
    vertex 129.85056445882498 355.35597723139784 50.02189846166362
    vertex 130.45273891183598 355.35597723139784 50.021898461663625
    vertex 129.85056445882498 355.35593738819676 50.68749990537293
  endloop
endfacet
facet normal -1.257565305910196e-06 -0.9999999999988036 -9.007616752993332e-07
  outer loop
    vertex 129.85056445882498 355.35593738819676 50.68749990537293
    vertex 130.45273891183598 355.35597723139784 50.021898461663625
    vertex 130.45273891183598 355.35593738819676 50.68749990537293
  endloop
endfacet
facet normal -1.257565305910196e-06 -0.9999999999988036 -9.007616752993332e-07
  outer loop
    vertex 129.85056445882498 355.35593738819676 50.68749990537293
    vertex 130.45273891183598 355.35593738819676 50.68749990537293
    vertex 126.84745673374863 355.35593738819676 50.68749990537293
  endloop
endfacet
facet normal -1.257565305910196e-06 -0.9999999999988036 -9.007616752993332e-07
  outer loop
    vertex 137.23073804079644 355.3558637308251 36.493718604681334
    vertex 137.06112881499948 355.35628454134985 44.88812551015664
    vertex 126.73197879498755 355.3558988999424 41.26618123984989
  endloop
endfacet
facet normal -1.257565305910196e-06 -0.9999999999988036 -9.007616752993332e-07
  outer loop
    vertex 137.06112881499948 355.35628454134985 44.88812551015664
    vertex 137.23073804079644 355.3558637308251 36.493718604681334
    vertex 139.03324032664565 355.3558615143595 57.5802007593059
  endloop
endfacet
facet normal -1.257565305910196e-06 -0.9999999999988036 -9.007616752993332e-07
  outer loop
    vertex 137.06112881499948 355.35628454134985 44.88812551015664
    vertex 139.03324032664565 355.3558615143595 57.5802007593059
    vertex 137.06112881499948 355.35624469814877 45.553726953866
  endloop
endfacet
facet normal -1.257565305910196e-06 -0.9999999999988036 -9.007616752993332e-07
  outer loop
    vertex 137.06112881499948 355.35624469814877 45.553726953866
    vertex 139.03324032664565 355.3558615143595 57.5802007593059
    vertex 136.39991039454657 355.35622815756864 45.830045967986294
  endloop
endfacet
facet normal -1.257565305910196e-06 -0.9999999999988036 -9.007616752993332e-07
  outer loop
    vertex 136.39991039454657 355.35622815756864 45.830045967986294
    vertex 139.03324032664565 355.3558615143595 57.5802007593059
    vertex 137.06112881499948 355.35597723139784 50.0218984616636
  endloop
endfacet
facet normal -1.257565305910196e-06 -0.9999999999988036 -9.007616752993332e-07
  outer loop
    vertex 136.39991039454657 355.35622815756864 45.830045967986294
    vertex 137.06112881499948 355.35597723139784 50.0218984616636
    vertex 136.42719276646974 355.35599139079744 49.785358308856246
  endloop
endfacet
facet normal -1.257565305910196e-06 -0.9999999999988036 -9.007616752993332e-07
  outer loop
    vertex 137.06112881499948 355.35597723139784 50.0218984616636
    vertex 139.03324032664565 355.3558615143595 57.5802007593059
    vertex 137.06112881499948 355.35593738819676 50.687499905372924
  endloop
endfacet
facet normal -1.257565305910196e-06 -0.9999999999988036 -9.007616752993332e-07
  outer loop
    vertex 137.06112881499948 355.35593738819676 50.687499905372924
    vertex 139.03324032664565 355.3558615143595 57.5802007593059
    vertex 137.23415760066374 355.35589889993764 51.33046633845562
  endloop
endfacet
facet normal -1.257565305910196e-06 -0.9999999999988036 -9.007616752993332e-07
  outer loop
    vertex 137.06112881499948 355.35593738819676 50.687499905372924
    vertex 137.23415760066374 355.35589889993764 51.33046633845562
    vertex 134.05802108992333 355.35593738819676 50.687499905372924
  endloop
endfacet
facet normal -1.257565305910196e-06 -0.9999999999988036 -9.007616752993332e-07
  outer loop
    vertex 134.05802108992333 355.35593738819676 50.687499905372924
    vertex 137.23415760066374 355.35589889993764 51.33046633845562
    vertex 133.45584663691227 355.35593738819676 50.68749990537293
  endloop
endfacet
facet normal -1.257565305910196e-06 -0.9999999999988036 -9.007616752993332e-07
  outer loop
    vertex 133.45584663691227 355.35593738819676 50.68749990537293
    vertex 137.23415760066374 355.35589889993764 51.33046633845562
    vertex 130.45273891183598 355.35593738819676 50.68749990537293
  endloop
endfacet
facet normal -1.257565305910196e-06 -0.9999999999988036 -9.007616752993332e-07
  outer loop
    vertex 137.23415760066374 355.35589889993764 51.33046633845562
    vertex 139.03324032664565 355.3558615143595 57.5802007593059
    vertex 131.95911412542276 355.35572687359956 54.204255997919
  endloop
endfacet
facet normal -1.257565305910196e-06 -0.9999999999988036 -9.007616752993332e-07
  outer loop
    vertex 139.03324032664565 355.3558615143595 57.5802007593059
    vertex 133.42006096588875 355.3558615143595 57.76761046772209
    vertex 132.7206384122479 355.3558615143595 57.5802007593059
  endloop
endfacet
facet normal -1.257565305910196e-06 -0.9999999999988036 -9.007616752993332e-07
  outer loop
    vertex 133.42006096588875 355.3558615143595 57.76761046772209
    vertex 139.03324032664565 355.3558615143595 57.5802007593059
    vertex 134.04714607216434 355.3558615143595 58.1296582226351
  endloop
endfacet
facet normal -1.257565305910196e-06 -0.9999999999988036 -9.007616752993332e-07
  outer loop
    vertex 134.04714607216434 355.3558615143595 58.1296582226351
    vertex 139.03324032664565 355.3558615143595 57.5802007593059
    vertex 138.6808456573349 355.3558615143595 60.93451144661549
  endloop
endfacet
facet normal -1.257565305910196e-06 -0.9999999999988036 -9.007616752993332e-07
  outer loop
    vertex 134.04714607216434 355.3558615143595 58.1296582226351
    vertex 138.6808456573349 355.3558615143595 60.93451144661549
    vertex 134.55915891738917 355.3558615143595 58.64167106785987
  endloop
endfacet
facet normal -1.257565305910196e-06 -0.9999999999988036 -9.007616752993332e-07
  outer loop
    vertex 134.55915891738917 355.3558615143595 58.64167106785987
    vertex 138.6808456573349 355.3558615143595 60.93451144661549
    vertex 134.92120667230208 355.3558615143595 59.26875617413538
  endloop
endfacet
facet normal -1.257565305910196e-06 -0.9999999999988036 -9.007616752993332e-07
  outer loop
    vertex 134.92120667230208 355.3558615143595 59.26875617413538
    vertex 138.6808456573349 355.3558615143595 60.93451144661549
    vertex 135.1086163807183 355.3558615143595 59.968178727776234
  endloop
endfacet
facet normal -1.257565305910196e-06 -0.9999999999988036 -9.007616752993332e-07
  outer loop
    vertex 135.1086163807183 355.3558615143595 59.968178727776234
    vertex 138.6808456573349 355.3558615143595 60.93451144661549
    vertex 135.1086163807183 355.3558615143595 60.692274237602376
  endloop
endfacet
facet normal -1.257565305910196e-06 -0.9999999999988036 -9.007616752993332e-07
  outer loop
    vertex 135.1086163807183 355.3558615143595 60.692274237602376
    vertex 138.6808456573349 355.3558615143595 60.93451144661549
    vertex 134.92120667230208 355.3558615143595 61.391696791243255
  endloop
endfacet
facet normal -1.257565305910196e-06 -0.9999999999988036 -9.007616752993332e-07
  outer loop
    vertex 134.92120667230208 355.3558615143595 61.391696791243255
    vertex 138.6808456573349 355.3558615143595 60.93451144661549
    vertex 137.20358426836395 355.35586151435956 63.14924411549187
  endloop
endfacet
facet normal -1.257565305910196e-06 -0.9999999999988036 -9.007616752993332e-07
  outer loop
    vertex 134.92120667230208 355.3558615143595 61.391696791243255
    vertex 137.20358426836395 355.35586151435956 63.14924411549187
    vertex 134.87706900910052 355.3558615143595 62.00262293638767
  endloop
endfacet
facet normal -1.257565305910196e-06 -0.9999999999988036 -9.007616752993332e-07
  outer loop
    vertex 134.87706900910052 355.3558615143595 62.00262293638767
    vertex 137.20358426836395 355.35586151435956 63.14924411549187
    vertex 135.13293134589898 355.3558615143595 62.61354908153206
  endloop
endfacet
facet normal -1.257565305910196e-06 -0.9999999999988036 -9.007616752993332e-07
  outer loop
    vertex 135.13293134589898 355.3558615143595 62.61354908153206
    vertex 137.20358426836395 355.35586151435956 63.14924411549187
    vertex 135.6176464040631 355.35586151435956 63.491976992197685
  endloop
endfacet
facet normal -1.257565305910196e-06 -0.9999999999988036 -9.007616752993332e-07
  outer loop
    vertex 126.73197879498755 355.3558988999424 41.26618123984989
    vertex 126.84745673374863 355.35628454134985 44.88812551015665
    vertex 123.93546193780143 355.3558988999377 47.35005294757219
  endloop
endfacet
facet normal -1.257565305910196e-06 -0.9999999999988036 -9.007616752993332e-07
  outer loop
    vertex 126.84745673374863 355.35628454134985 44.88812551015665
    vertex 126.73197879498755 355.3558988999424 41.26618123984989
    vertex 134.05802108992333 355.35628454134985 44.88812551015664
  endloop
endfacet
facet normal -1.257565305910196e-06 -0.9999999999988036 -9.007616752993332e-07
  outer loop
    vertex 134.05802108992333 355.35628454134985 44.88812551015664
    vertex 126.73197879498755 355.3558988999424 41.26618123984989
    vertex 137.06112881499948 355.35628454134985 44.88812551015664
  endloop
endfacet
facet normal -1.257565305910196e-06 -0.9999999999988036 -9.007616752993332e-07
  outer loop
    vertex 126.84745673374863 355.35628454134985 44.88812551015665
    vertex 134.05802108992333 355.35628454134985 44.88812551015664
    vertex 129.85056445882498 355.35628454134985 44.88812551015665
  endloop
endfacet
facet normal -1.257565305910196e-06 -0.9999999999988036 -9.007616752993332e-07
  outer loop
    vertex 123.93546193780143 355.3558988999377 47.35005294757219
    vertex 126.84745673374863 355.35628454134985 44.88812551015665
    vertex 126.84745673374863 355.35624469814877 45.553726953866004
  endloop
endfacet
facet normal -1.257565305910196e-06 -0.9999999999988036 -9.007616752993332e-07
  outer loop
    vertex 123.93546193780143 355.3558988999377 47.35005294757219
    vertex 126.84745673374863 355.35624469814877 45.553726953866004
    vertex 127.48139278227846 355.35623053874895 45.79026710667329
  endloop
endfacet
facet normal -1.257565305910196e-06 -0.9999999999988036 -9.007616752993332e-07
  outer loop
    vertex 123.93546193780143 355.3558988999377 47.35005294757219
    vertex 127.48139278227846 355.35623053874895 45.79026710667329
    vertex 127.53238914204341 355.3559962945144 49.70343916103343
  endloop
endfacet
facet normal -1.257565305910196e-06 -0.9999999999988036 -9.007616752993332e-07
  outer loop
    vertex 123.93546193780143 355.3558988999377 47.35005294757219
    vertex 127.53238914204341 355.3559962945144 49.70343916103343
    vertex 126.84745673374863 355.35597723139784 50.02189846166362
  endloop
endfacet
facet normal -1.257565305910196e-06 -0.9999999999988036 -9.007616752993332e-07
  outer loop
    vertex 123.93546193780143 355.3558988999377 47.35005294757219
    vertex 126.84745673374863 355.35597723139784 50.02189846166362
    vertex 126.61651685297399 355.35589889993764 51.33046633845562
  endloop
endfacet
facet normal -1.257565305910196e-06 -0.9999999999988036 -9.007616752993332e-07
  outer loop
    vertex 123.93546193780143 355.3558988999377 47.35005294757219
    vertex 126.61651685297399 355.35589889993764 51.33046633845562
    vertex 126.67082657808164 355.35588020714766 57.58021696011153
  endloop
endfacet
facet normal -1.257565305910196e-06 -0.9999999999988036 -9.007616752993332e-07
  outer loop
    vertex 126.61651685297399 355.35589889993764 51.33046633845562
    vertex 126.84745673374863 355.35597723139784 50.02189846166362
    vertex 126.84745673374863 355.35593738819676 50.68749990537293
  endloop
endfacet
facet normal -1.257565305910196e-06 -0.9999999999988036 -9.007616752993332e-07
  outer loop
    vertex 126.61651685297399 355.35589889993764 51.33046633845562
    vertex 126.84745673374863 355.35593738819676 50.68749990537293
    vertex 130.45273891183598 355.35593738819676 50.68749990537293
  endloop
endfacet
facet normal -1.257565305910196e-06 -0.9999999999988036 -9.007616752993332e-07
  outer loop
    vertex 126.61651685297399 355.35589889993764 51.33046633845562
    vertex 130.45273891183598 355.35593738819676 50.68749990537293
    vertex 137.23415760066374 355.35589889993764 51.33046633845562
  endloop
endfacet
facet normal -1.257565305910196e-06 -0.9999999999988036 -9.007616752993332e-07
  outer loop
    vertex 126.67082657808164 355.35588020714766 57.58021696011153
    vertex 126.61651685297399 355.35589889993764 51.33046633845562
    vertex 131.95911412542276 355.35572687359956 54.204255997919
  endloop
endfacet
facet normal -1.257565305910196e-06 -0.9999999999988036 -9.007616752993332e-07
  outer loop
    vertex 126.67082657808164 355.35588020714766 57.58021696011153
    vertex 131.95911412542276 355.35572687359956 54.204255997919
    vertex 131.99654290242188 355.3558615143595 57.5802007593059
  endloop
endfacet
facet normal -1.257565305910196e-06 -0.9999999999988036 -9.007616752993332e-07
  outer loop
    vertex 131.99654290242188 355.3558615143595 57.5802007593059
    vertex 131.95911412542276 355.35572687359956 54.204255997919
    vertex 139.03324032664565 355.3558615143595 57.5802007593059
  endloop
endfacet
facet normal -1.257565305910196e-06 -0.9999999999988036 -9.007616752993332e-07
  outer loop
    vertex 131.99654290242188 355.3558615143595 57.5802007593059
    vertex 139.03324032664565 355.3558615143595 57.5802007593059
    vertex 132.7206384122479 355.3558615143595 57.5802007593059
  endloop
endfacet
facet normal -1.257565305910196e-06 -0.9999999999988036 -9.007616752993332e-07
  outer loop
    vertex 126.67082657808164 355.35588020714766 57.58021696011153
    vertex 131.99654290242188 355.3558615143595 57.5802007593059
    vertex 131.29712034878102 355.3558615143595 57.767610467722065
  endloop
endfacet
facet normal -1.257565305910196e-06 -0.9999999999988036 -9.007616752993332e-07
  outer loop
    vertex 126.67082657808164 355.35588020714766 57.58021696011153
    vertex 131.29712034878102 355.3558615143595 57.767610467722065
    vertex 130.67003524250543 355.3558615143595 58.1296582226351
  endloop
endfacet
facet normal -1.257565305910196e-06 -0.9999999999988036 -9.007616752993332e-07
  outer loop
    vertex 126.67082657808164 355.35588020714766 57.58021696011153
    vertex 130.67003524250543 355.3558615143595 58.1296582226351
    vertex 130.15802239728063 355.3558615143595 58.641671067859846
  endloop
endfacet
facet normal -1.257565305910196e-06 -0.9999999999988036 -9.007616752993332e-07
  outer loop
    vertex 126.67082657808164 355.35588020714766 57.58021696011153
    vertex 130.15802239728063 355.3558615143595 58.641671067859846
    vertex 127.15571153592745 355.35586151435956 63.14855261257439
  endloop
endfacet
facet normal -1.257565305910196e-06 -0.9999999999988036 -9.007616752993332e-07
  outer loop
    vertex 127.15571153592745 355.35586151435956 63.14855261257439
    vertex 130.15802239728063 355.3558615143595 58.641671067859846
    vertex 129.79597464236767 355.3558615143595 59.268756174135426
  endloop
endfacet
facet normal -1.257565305910196e-06 -0.9999999999988036 -9.007616752993332e-07
  outer loop
    vertex 127.15571153592745 355.35586151435956 63.14855261257439
    vertex 129.79597464236767 355.3558615143595 59.268756174135426
    vertex 129.6085649339515 355.3558615143595 59.968178727776234
  endloop
endfacet
facet normal -1.257565305910196e-06 -0.9999999999988036 -9.007616752993332e-07
  outer loop
    vertex 127.15571153592745 355.35586151435956 63.14855261257439
    vertex 129.6085649339515 355.3558615143595 59.968178727776234
    vertex 129.6085649339515 355.3558615143595 60.692274237602376
  endloop
endfacet
facet normal -1.257565305910196e-06 -0.9999999999988036 -9.007616752993332e-07
  outer loop
    vertex 127.15571153592745 355.35586151435956 63.14855261257439
    vertex 129.6085649339515 355.3558615143595 60.692274237602376
    vertex 129.7022697881596 355.3558615143595 61.04198551442281
  endloop
endfacet
facet normal -1.257565305910196e-06 -0.9999999999988036 -9.007616752993332e-07
  outer loop
    vertex 127.15571153592745 355.35586151435956 63.14855261257439
    vertex 129.7022697881596 355.3558615143595 61.04198551442281
    vertex 129.79597464236767 355.3558615143595 61.391696791243234
  endloop
endfacet
facet normal -1.257565305910196e-06 -0.9999999999988036 -9.007616752993332e-07
  outer loop
    vertex 127.15571153592745 355.35586151435956 63.14855261257439
    vertex 129.79597464236767 355.3558615143595 61.391696791243234
    vertex 129.84011230556925 355.3558615143595 62.002622936387645
  endloop
endfacet
facet normal -1.257565305910196e-06 -0.9999999999988036 -9.007616752993332e-07
  outer loop
    vertex 127.15571153592745 355.35586151435956 63.14855261257439
    vertex 129.84011230556925 355.3558615143595 62.002622936387645
    vertex 129.58424996877076 355.3558615143595 62.61354908153206
  endloop
endfacet
facet normal -1.257565305910196e-06 -0.9999999999988036 -9.007616752993332e-07
  outer loop
    vertex 134.05802108992333 355.35628454134985 44.88812551015664
    vertex 133.45584663691227 355.35628454134985 44.88812551015665
    vertex 129.85056445882498 355.35628454134985 44.88812551015665
  endloop
endfacet
facet normal -1.257565305910196e-06 -0.9999999999988036 -9.007616752993332e-07
  outer loop
    vertex 133.45584663691227 355.35628454134985 44.88812551015665
    vertex 134.05802108992333 355.35628454134985 44.88812551015664
    vertex 134.05802108992333 355.35624469814877 45.553726953866
  endloop
endfacet
facet normal -1.257565305910196e-06 -0.9999999999988036 -9.007616752993332e-07
  outer loop
    vertex 133.45584663691227 355.35628454134985 44.88812551015665
    vertex 134.05802108992333 355.35624469814877 45.553726953866
    vertex 133.45584663691227 355.35624469814877 45.55372695386601
  endloop
endfacet
facet normal -1.257565305910196e-06 -0.9999999999988036 -9.007616752993332e-07
  outer loop
    vertex 133.45584663691227 355.35624469814877 45.55372695386601
    vertex 134.05802108992333 355.35624469814877 45.553726953866
    vertex 134.69195713845295 355.35623053874895 45.79026710667329
  endloop
endfacet
facet normal -1.257565305910196e-06 -0.9999999999988036 -9.007616752993332e-07
  outer loop
    vertex 133.45584663691227 355.35624469814877 45.55372695386601
    vertex 134.69195713845295 355.35623053874895 45.79026710667329
    vertex 132.8219105883825 355.35623053874895 45.7902671066733
  endloop
endfacet
facet normal -1.257565305910196e-06 -0.9999999999988036 -9.007616752993332e-07
  outer loop
    vertex 132.8219105883825 355.35623053874895 45.7902671066733
    vertex 134.69195713845295 355.35623053874895 45.79026710667329
    vertex 134.742953498218 355.3559962945144 49.70343916103343
  endloop
endfacet
facet normal -1.257565305910196e-06 -0.9999999999988036 -9.007616752993332e-07
  outer loop
    vertex 132.8219105883825 355.35623053874895 45.7902671066733
    vertex 134.742953498218 355.3559962945144 49.70343916103343
    vertex 132.8219105883825 355.35599139079744 49.78535830885626
  endloop
endfacet
facet normal -1.257565305910196e-06 -0.9999999999988036 -9.007616752993332e-07
  outer loop
    vertex 132.8219105883825 355.35599139079744 49.78535830885626
    vertex 134.742953498218 355.3559962945144 49.70343916103343
    vertex 134.05802108992333 355.35597723139784 50.0218984616636
  endloop
endfacet
facet normal -1.257565305910196e-06 -0.9999999999988036 -9.007616752993332e-07
  outer loop
    vertex 132.8219105883825 355.35599139079744 49.78535830885626
    vertex 134.05802108992333 355.35597723139784 50.0218984616636
    vertex 133.45584663691227 355.35597723139784 50.021898461663625
  endloop
endfacet
facet normal -1.257565305910196e-06 -0.9999999999988036 -9.007616752993332e-07
  outer loop
    vertex 133.45584663691227 355.35597723139784 50.021898461663625
    vertex 134.05802108992333 355.35597723139784 50.0218984616636
    vertex 134.05802108992333 355.35593738819676 50.687499905372924
  endloop
endfacet
facet normal -1.257565305910196e-06 -0.9999999999988036 -9.007616752993332e-07
  outer loop
    vertex 133.45584663691227 355.35597723139784 50.021898461663625
    vertex 134.05802108992333 355.35593738819676 50.687499905372924
    vertex 133.45584663691227 355.35593738819676 50.68749990537293
  endloop
endfacet
facet normal -1.97698112965e-14 -1.0 7.892878915332038e-14
  outer loop
    vertex 128.52957013281522 355.35586151435956 63.49267198270416
    vertex 127.15571153592745 355.35586151435956 63.14855261257439
    vertex 129.58424996877076 355.3558615143595 62.61354908153206
  endloop
endfacet
facet normal 0.9945206765757448 3.822826875641843e-05 0.1045400516640511
  outer loop
    vertex 139.03324032664565 360.4831510481252 57.5802007593059
    vertex 138.6808456573349 355.3558615143595 60.93451144661549
    vertex 139.03324032664565 355.3558615143595 57.5802007593059
  endloop
endfacet
facet normal 0.9945206765757448 3.822826875641843e-05 0.1045400516640511
  outer loop
    vertex 138.6808456573349 355.3558615143595 60.93451144661549
    vertex 139.03324032664565 360.4831510481252 57.5802007593059
    vertex 138.68037879468818 360.4831510481252 60.935202949532965
  endloop
endfacet
facet normal 0.00429302447999942 0.9999774889894378 0.0051566903332513165
  outer loop
    vertex 128.52957013281517 360.4781937632698 63.492671982703975
    vertex 129.58471918603522 360.47819376326964 62.61424407203855
    vertex 127.15618075319186 360.48586086326986 63.149247603080674
  endloop
endfacet
facet normal -0.25881904510252446 -4.2505698474572725e-15 0.9659258262890673
  outer loop
    vertex 133.42006096588875 355.3558615143595 57.76761046772209
    vertex 132.7206384122479 360.48586086326964 57.58020075930593
    vertex 132.7206384122479 355.3558615143595 57.5802007593059
  endloop
endfacet
facet normal -0.259872044105786 -0.00015389603616925766 0.9656430484440357
  outer loop
    vertex 133.42006096588875 355.3558615143595 57.76761046772209
    vertex 133.41959410324205 360.4831510481252 57.768301970639556
    vertex 132.7206384122479 360.48586086326964 57.58020075930593
  endloop
endfacet
facet normal 2.7100201282116545e-06 0.9999999999963267 5.0426139002205004e-08
  outer loop
    vertex 126.73201288830869 365.03531051879514 41.26618123934672
    vertex 139.03324032664565 365.03527313321223 57.5802007593059
    vertex 137.23074986806168 365.0352753496588 36.493725279461884
  endloop
endfacet
facet normal 2.7100201282116545e-06 0.9999999999963267 5.0426139002205004e-08
  outer loop
    vertex 139.03324032664565 365.03527313321223 57.5802007593059
    vertex 126.73201288830869 365.03531051879514 41.26618123934672
    vertex 123.93557464448418 365.03531051879037 47.35007876949382
  endloop
endfacet
facet normal 2.7100201282116545e-06 0.9999999999963267 5.0426139002205004e-08
  outer loop
    vertex 139.03324032664565 365.03527313321223 57.5802007593059
    vertex 123.93557464448418 365.03531051879037 47.35007876949382
    vertex 127.14169404555437 365.0353028310572 57.58052248142538
  endloop
endfacet
facet normal -0.6948041684717275 -0.6947906536683787 0.1857770573816325
  outer loop
    vertex 124.06321808255022 357.96357059712136 57.58033354166017
    vertex 123.93546193780143 355.3558988999377 47.35005294757219
    vertex 126.67082657808164 355.35588020714766 57.58021696011153
  endloop
endfacet
facet normal -0.8742191650762174 1.5766490721621894e-05 0.48553151408004336
  outer loop
    vertex 127.15618075319186 360.48586086326986 63.149247603080674
    vertex 124.06321808255022 357.96357059712136 57.58033354166017
    vertex 127.15571153592745 355.35586151435956 63.14855261257439
  endloop
endfacet
facet normal -0.8742191650762174 1.5766490721621894e-05 0.48553151408004336
  outer loop
    vertex 124.06321808255022 357.96357059712136 57.58033354166017
    vertex 127.15618075319186 360.48586086326986 63.149247603080674
    vertex 124.06327921774223 360.48587801016816 57.58032768373856
  endloop
endfacet
facet normal 0.00398380608733082 0.9999741422242412 0.0059870002464958594
  outer loop
    vertex 127.15618075319186 360.48586086326986 63.149247603080674
    vertex 129.84058152283367 360.48202731326967 62.00331792689414
    vertex 129.79644385963212 360.48586086326964 61.39239178174973
  endloop
endfacet
facet normal 0.005000610877315658 0.9999524758056619 0.008368991634652751
  outer loop
    vertex 127.15618075319186 360.48586086326986 63.149247603080674
    vertex 129.58471918603522 360.47819376326964 62.61424407203855
    vertex 129.84058152283367 360.48202731326967 62.00331792689414
  endloop
endfacet
facet normal -0.7057799024779543 -0.7057604849925522 0.06145622085099986
  outer loop
    vertex 124.06321808255022 357.96357059712136 57.58033354166017
    vertex 126.67082657808164 355.35588020714766 57.58021696011153
    vertex 127.15571153592745 355.35586151435956 63.14855261257439
  endloop
endfacet
facet normal 2.226574119570292e-06 0.9999999999963416 1.5360017154101725e-06
  outer loop
    vertex 124.06327921774223 360.48587801016816 57.58032768373856
    vertex 131.29758956604545 360.48586086326964 57.76830545822857
    vertex 131.9970121196863 360.48586086326964 57.580895749812385
  endloop
endfacet
facet normal 2.226574119570292e-06 0.9999999999963416 1.5360017154101725e-06
  outer loop
    vertex 131.29758956604545 360.48586086326964 57.76830545822857
    vertex 124.06327921774223 360.48587801016816 57.58032768373856
    vertex 130.67050445976986 360.48586086326964 58.1303532131416
  endloop
endfacet
facet normal 2.226574119570292e-06 0.9999999999963416 1.5360017154101725e-06
  outer loop
    vertex 130.67050445976986 360.48586086326964 58.1303532131416
    vertex 124.06327921774223 360.48587801016816 57.58032768373856
    vertex 130.15849161454506 360.48586086326964 58.64236605836634
  endloop
endfacet
facet normal 2.226574119570292e-06 0.9999999999963416 1.5360017154101725e-06
  outer loop
    vertex 130.15849161454506 360.48586086326964 58.64236605836634
    vertex 124.06327921774223 360.48587801016816 57.58032768373856
    vertex 127.15618075319186 360.48586086326986 63.149247603080674
  endloop
endfacet
facet normal 2.226574119570292e-06 0.9999999999963416 1.5360017154101725e-06
  outer loop
    vertex 130.15849161454506 360.48586086326964 58.64236605836634
    vertex 127.15618075319186 360.48586086326986 63.149247603080674
    vertex 129.79644385963212 360.48586086326964 59.2694511646419
  endloop
endfacet
facet normal 2.226574119570292e-06 0.9999999999963416 1.5360017154101725e-06
  outer loop
    vertex 129.79644385963212 360.48586086326964 59.2694511646419
    vertex 127.15618075319186 360.48586086326986 63.149247603080674
    vertex 129.60903415121592 360.48586086326964 59.96887371828274
  endloop
endfacet
facet normal 2.226574119570292e-06 0.9999999999963416 1.5360017154101725e-06
  outer loop
    vertex 129.60903415121592 360.48586086326964 59.96887371828274
    vertex 127.15618075319186 360.48586086326986 63.149247603080674
    vertex 129.60903415121592 360.48586086326964 60.69296922810887
  endloop
endfacet
facet normal 2.226574119570292e-06 0.9999999999963416 1.5360017154101725e-06
  outer loop
    vertex 129.60903415121592 360.48586086326964 60.69296922810887
    vertex 127.15618075319186 360.48586086326986 63.149247603080674
    vertex 129.79644385963212 360.48586086326964 61.39239178174973
  endloop
endfacet
facet normal 1.5889139380646164e-05 5.717076024656421e-06 0.9999999998574252
  outer loop
    vertex 131.9970121196863 360.48586086326964 57.580895749812385
    vertex 124.06333704753231 362.87181159440706 57.58052248142538
    vertex 124.06327921774223 360.48587801016816 57.58032768373856
  endloop
endfacet
facet normal 1.5889139380646164e-05 5.717076024656421e-06 0.9999999998574252
  outer loop
    vertex 124.06333704753231 362.87181159440706 57.58052248142538
    vertex 131.9970121196863 360.48586086326964 57.580895749812385
    vertex 127.14169404555437 365.0353028310572 57.58052248142538
  endloop
endfacet
facet normal 1.5889139380646164e-05 5.717076024656421e-06 0.9999999998574252
  outer loop
    vertex 127.14169404555437 365.0353028310572 57.58052248142538
    vertex 131.9970121196863 360.48586086326964 57.580895749812385
    vertex 139.03324032664565 365.03527313321223 57.5802007593059
  endloop
endfacet
facet normal 1.5889139380646164e-05 5.717076024656421e-06 0.9999999998574252
  outer loop
    vertex 139.03324032664565 365.03527313321223 57.5802007593059
    vertex 131.9970121196863 360.48586086326964 57.580895749812385
    vertex 132.36391226326998 360.4851134056675 57.58040033733067
  endloop
endfacet
facet normal 1.5889139380646164e-05 5.717076024656421e-06 0.9999999998574252
  outer loop
    vertex 139.03324032664565 365.03527313321223 57.5802007593059
    vertex 132.36391226326998 360.4851134056675 57.58040033733067
    vertex 132.7206384122479 360.48586086326964 57.58020075930593
  endloop
endfacet
facet normal 1.5889139380646164e-05 5.717076024656421e-06 0.9999999998574252
  outer loop
    vertex 139.03324032664565 365.03527313321223 57.5802007593059
    vertex 132.7206384122479 360.48586086326964 57.58020075930593
    vertex 139.03324032664565 360.4831510481252 57.5802007593059
  endloop
endfacet
facet normal -0.004417457312559674 0.9999872721402007 0.002437545587739076
  outer loop
    vertex 135.61717954141665 360.47548394812566 63.49266849511517
    vertex 137.1632929160958 360.4831510481257 63.14924411549191
    vertex 135.13246448325228 360.4754839481252 62.61424058444954
  endloop
endfacet
facet normal 0.8249223528486046 -1.1202544030086295e-06 0.5652460630287197
  outer loop
    vertex 137.1632929160958 360.4831510481257 63.14924411549191
    vertex 138.6808456573349 355.3558615143595 60.93451144661549
    vertex 138.68037879468818 360.4831510481252 60.935202949532965
  endloop
endfacet
facet normal 0.8318984909478258 0.006537238618838474 0.5548893270463677
  outer loop
    vertex 137.1632929160958 360.4831510481257 63.14924411549191
    vertex 137.20358426836395 355.35586151435956 63.14924411549187
    vertex 138.6808456573349 355.3558615143595 60.93451144661549
  endloop
endfacet
facet normal -0.8755501959221952 -0.0001450977133757877 0.48312713996137646
  outer loop
    vertex 135.6176464040631 355.35586151435956 63.491976992197685
    vertex 135.13246448325228 360.4754839481252 62.61424058444954
    vertex 135.13293134589898 355.3558615143595 62.61354908153206
  endloop
endfacet
facet normal -0.8755501959221952 -0.0001450977133757877 0.48312713996137646
  outer loop
    vertex 135.13246448325228 360.4754839481252 62.61424058444954
    vertex 135.6176464040631 355.35586151435956 63.491976992197685
    vertex 135.61717954141665 360.47548394812566 63.49266849511517
  endloop
endfacet
facet normal -0.004652463454908221 0.9999715429544974 0.005938675357550336
  outer loop
    vertex 137.1632929160958 360.4831510481257 63.14924411549191
    vertex 134.92073980965543 360.4831510481252 61.39238829416072
    vertex 134.87660214645385 360.4793174981252 62.00331443930513
  endloop
endfacet
facet normal -0.006101298446226869 0.999942401781984 0.00882990802598898
  outer loop
    vertex 137.1632929160958 360.4831510481257 63.14924411549191
    vertex 134.87660214645385 360.4793174981252 62.00331443930513
    vertex 135.13246448325228 360.4754839481252 62.61424058444954
  endloop
endfacet
facet normal 0.21683689990905963 -0.00011208199973750948 0.976207839691658
  outer loop
    vertex 137.1632929160958 360.4831510481257 63.14924411549191
    vertex 135.61717954141665 360.47548394812566 63.49266849511517
    vertex 135.6176464040631 355.35586151435956 63.491976992197685
  endloop
endfacet
facet normal 0.21123087105699326 0.0016598979596479976 0.9774347875184654
  outer loop
    vertex 137.20358426836395 355.35586151435956 63.14924411549187
    vertex 137.1632929160958 360.4831510481257 63.14924411549191
    vertex 135.6176464040631 355.35586151435956 63.491976992197685
  endloop
endfacet
facet normal 0.00014362678539512385 0.9999999847486629 9.936810717932897e-05
  outer loop
    vertex 139.03324032664565 360.4831510481252 57.5802007593059
    vertex 134.0466792095177 360.4831510481252 58.13034972555257
    vertex 138.68037879468818 360.4831510481252 60.935202949532965
  endloop
endfacet
facet normal 0.00014362678539512385 0.9999999847486629 9.936810717932897e-05
  outer loop
    vertex 134.0466792095177 360.4831510481252 58.13034972555257
    vertex 139.03324032664565 360.4831510481252 57.5802007593059
    vertex 133.41959410324205 360.4831510481252 57.768301970639556
  endloop
endfacet
facet normal 0.00014362678539512385 0.9999999847486629 9.936810717932897e-05
  outer loop
    vertex 133.41959410324205 360.4831510481252 57.768301970639556
    vertex 139.03324032664565 360.4831510481252 57.5802007593059
    vertex 132.7206384122479 360.48586086326964 57.58020075930593
  endloop
endfacet
facet normal 0.00014362678539512385 0.9999999847486629 9.936810717932897e-05
  outer loop
    vertex 138.68037879468818 360.4831510481252 60.935202949532965
    vertex 134.0466792095177 360.4831510481252 58.13034972555257
    vertex 134.55869205474244 360.4831510481252 58.64236257077733
  endloop
endfacet
facet normal 0.00014362678539512385 0.9999999847486629 9.936810717932897e-05
  outer loop
    vertex 138.68037879468818 360.4831510481252 60.935202949532965
    vertex 134.55869205474244 360.4831510481252 58.64236257077733
    vertex 134.92073980965543 360.4831510481252 59.26944767705287
  endloop
endfacet
facet normal 0.00014362678539512385 0.9999999847486629 9.936810717932897e-05
  outer loop
    vertex 138.68037879468818 360.4831510481252 60.935202949532965
    vertex 134.92073980965543 360.4831510481252 59.26944767705287
    vertex 135.10814951807157 360.4831510481252 59.9688702306937
  endloop
endfacet
facet normal 0.00014362678539512385 0.9999999847486629 9.936810717932897e-05
  outer loop
    vertex 138.68037879468818 360.4831510481252 60.935202949532965
    vertex 135.10814951807157 360.4831510481252 59.9688702306937
    vertex 135.10814951807157 360.4831510481252 60.69296574051986
  endloop
endfacet
facet normal 0.00014362678539512385 0.9999999847486629 9.936810717932897e-05
  outer loop
    vertex 138.68037879468818 360.4831510481252 60.935202949532965
    vertex 135.10814951807157 360.4831510481252 60.69296574051986
    vertex 134.92073980965543 360.4831510481252 61.39238829416072
  endloop
endfacet
facet normal 0.00014362678539512385 0.9999999847486629 9.936810717932897e-05
  outer loop
    vertex 138.68037879468818 360.4831510481252 60.935202949532965
    vertex 134.92073980965543 360.4831510481252 61.39238829416072
    vertex 137.1632929160958 360.4831510481257 63.14924411549191
  endloop
endfacet
facet normal -0.9974003267576655 -8.11296104656025e-05 -0.07205956981337404
  outer loop
    vertex 134.87660214645385 360.4793174981252 62.00331443930513
    vertex 134.92120667230208 355.3558615143595 61.391696791243255
    vertex 134.87706900910052 355.3558615143595 62.00262293638767
  endloop
endfacet
facet normal -0.9974003267576655 -8.11296104656025e-05 -0.07205956981337404
  outer loop
    vertex 134.92120667230208 355.3558615143595 61.391696791243255
    vertex 134.87660214645385 360.4793174981252 62.00331443930513
    vertex 134.92073980965543 360.4831510481252 61.39238829416072
  endloop
endfacet
facet normal -0.9223734601272191 -0.00013623809377277536 0.3862993418220164
  outer loop
    vertex 135.13246448325228 360.4754839481252 62.61424058444954
    vertex 134.87706900910052 355.3558615143595 62.00262293638767
    vertex 135.13293134589898 355.3558615143595 62.61354908153206
  endloop
endfacet
facet normal -0.9223734601272191 -0.00013623809377277536 0.3862993418220164
  outer loop
    vertex 134.87706900910052 355.3558615143595 62.00262293638767
    vertex 135.13246448325228 360.4754839481252 62.61424058444954
    vertex 134.87660214645385 360.4793174981252 62.00331443930513
  endloop
endfacet
endsolid 穿山甲
