solid 穿山甲
facet normal -0.18924040896383615 0.9775944662849048 0.09217986279189361
  outer loop
    vertex 126.73199824346825 393.4553394927457 41.26618309240813
    vertex 126.73200021296756 393.9053454888678 36.49374163316705
    vertex 119.49973090496141 392.50533949276286 36.493747198094184
  endloop
endfacet
facet normal -0.24853037521460236 -0.9643467251499048 0.09092879790442003
  outer loop
    vertex 126.7319856136518 398.3629864640693 41.26618123974926
    vertex 121.29972774849831 399.31298646406856 36.49374713088159
    vertex 126.73200306081196 397.9129864640708 36.49374720160334
  endloop
endfacet
facet normal -0.9999999958545416 9.105447267993516e-05 -1.1318420948116722e-20
  outer loop
    vertex 135.1086163807183 400.7489061734255 60.692274237602376
    vertex 135.10814951807157 395.6216166396598 59.9688702306937
    vertex 135.10814951807157 395.6216166396598 60.69296574051986
  endloop
endfacet
facet normal -0.9999999958545416 9.105447267993516e-05 -1.1318420948116722e-20
  outer loop
    vertex 135.10814951807157 395.6216166396598 59.9688702306937
    vertex 135.1086163807183 400.7489061734255 60.692274237602376
    vertex 135.1086163807183 400.7489061734255 59.968178727776234
  endloop
endfacet
facet normal -0.15521606899437662 -0.9594686224393878 0.23521890757376787
  outer loop
    vertex 126.73201288830869 391.06945716898986 41.26618123934672
    vertex 119.49972864826404 391.0694571689871 36.493747164334025
    vertex 126.73200191773124 389.89946916121113 36.4937397018742
  endloop
endfacet
facet normal -0.7071067721637395 0.0001597507083713932 0.7071067721637863
  outer loop
    vertex 134.55869205474244 395.6216166396598 58.64236257077733
    vertex 134.04714607216434 400.7489061734255 58.1296582226351
    vertex 134.0466792095177 395.6216166396598 58.13034972555257
  endloop
endfacet
facet normal -0.7071067721637395 0.0001597507083713932 0.7071067721637863
  outer loop
    vertex 134.04714607216434 400.7489061734255 58.1296582226351
    vertex 134.55869205474244 395.6216166396598 58.64236257077733
    vertex 134.55915891738917 400.7489061734255 58.64167106785987
  endloop
endfacet
facet normal -1.2575653032866972e-06 0.9999999999988036 -9.007616721731484e-07
  outer loop
    vertex 126.67082657808164 400.7488874806374 57.58021696011153
    vertex 131.99654290242188 400.7489061734255 57.5802007593059
    vertex 123.93546193780143 400.74886878784736 47.35005294757219
  endloop
endfacet
facet normal -1.2575653032866972e-06 0.9999999999988036 -9.007616721731484e-07
  outer loop
    vertex 131.99654290242188 400.7489061734255 57.5802007593059
    vertex 126.67082657808164 400.7488874806374 57.58021696011153
    vertex 131.29712034878102 400.7489061734255 57.767610467722065
  endloop
endfacet
facet normal -1.2575653032866972e-06 0.9999999999988036 -9.007616721731484e-07
  outer loop
    vertex 131.29712034878102 400.7489061734255 57.767610467722065
    vertex 126.67082657808164 400.7488874806374 57.58021696011153
    vertex 130.67003524250543 400.7489061734255 58.1296582226351
  endloop
endfacet
facet normal -1.2575653032866972e-06 0.9999999999988036 -9.007616721731484e-07
  outer loop
    vertex 130.67003524250543 400.7489061734255 58.1296582226351
    vertex 126.67082657808164 400.7488874806374 57.58021696011153
    vertex 130.15802239728063 400.7489061734255 58.641671067859846
  endloop
endfacet
facet normal -1.2575653032866972e-06 0.9999999999988036 -9.007616721731484e-07
  outer loop
    vertex 130.15802239728063 400.7489061734255 58.641671067859846
    vertex 126.67082657808164 400.7488874806374 57.58021696011153
    vertex 127.15571153592745 400.7489061734255 63.14855261257439
  endloop
endfacet
facet normal -1.2575653032866972e-06 0.9999999999988036 -9.007616721731484e-07
  outer loop
    vertex 130.15802239728063 400.7489061734255 58.641671067859846
    vertex 127.15571153592745 400.7489061734255 63.14855261257439
    vertex 129.79597464236767 400.7489061734255 59.268756174135426
  endloop
endfacet
facet normal -1.2575653032866972e-06 0.9999999999988036 -9.007616721731484e-07
  outer loop
    vertex 129.79597464236767 400.7489061734255 59.268756174135426
    vertex 127.15571153592745 400.7489061734255 63.14855261257439
    vertex 129.6085649339515 400.7489061734255 59.968178727776234
  endloop
endfacet
facet normal -1.2575653032866972e-06 0.9999999999988036 -9.007616721731484e-07
  outer loop
    vertex 129.6085649339515 400.7489061734255 59.968178727776234
    vertex 127.15571153592745 400.7489061734255 63.14855261257439
    vertex 129.6085649339515 400.7489061734255 60.692274237602376
  endloop
endfacet
facet normal -1.2575653032866972e-06 0.9999999999988036 -9.007616721731484e-07
  outer loop
    vertex 129.6085649339515 400.7489061734255 60.692274237602376
    vertex 127.15571153592745 400.7489061734255 63.14855261257439
    vertex 129.7022697881596 400.7489061734255 61.04198551442281
  endloop
endfacet
facet normal -1.2575653032866972e-06 0.9999999999988036 -9.007616721731484e-07
  outer loop
    vertex 129.7022697881596 400.7489061734255 61.04198551442281
    vertex 127.15571153592745 400.7489061734255 63.14855261257439
    vertex 129.79597464236767 400.7489061734255 61.391696791243234
  endloop
endfacet
facet normal -1.2575653032866972e-06 0.9999999999988036 -9.007616721731484e-07
  outer loop
    vertex 129.79597464236767 400.7489061734255 61.391696791243234
    vertex 127.15571153592745 400.7489061734255 63.14855261257439
    vertex 129.84011230556925 400.7489061734255 62.002622936387645
  endloop
endfacet
facet normal -1.2575653032866972e-06 0.9999999999988036 -9.007616721731484e-07
  outer loop
    vertex 129.84011230556925 400.7489061734255 62.002622936387645
    vertex 127.15571153592745 400.7489061734255 63.14855261257439
    vertex 129.58424996877076 400.7489061734255 62.61354908153206
  endloop
endfacet
facet normal -1.2575653032866972e-06 0.9999999999988036 -9.007616721731484e-07
  outer loop
    vertex 126.73197879498755 400.74886878784264 41.26618123984989
    vertex 139.03324032664565 400.7489061734255 57.5802007593059
    vertex 137.23073804079644 400.74890395695996 36.493718604681334
  endloop
endfacet
facet normal -1.2575653032866972e-06 0.9999999999988036 -9.007616721731484e-07
  outer loop
    vertex 139.03324032664565 400.7489061734255 57.5802007593059
    vertex 126.73197879498755 400.74886878784264 41.26618123984989
    vertex 123.93546193780143 400.74886878784736 47.35005294757219
  endloop
endfacet
facet normal -1.2575653032866972e-06 0.9999999999988036 -9.007616721731484e-07
  outer loop
    vertex 139.03324032664565 400.7489061734255 57.5802007593059
    vertex 123.93546193780143 400.74886878784736 47.35005294757219
    vertex 131.99654290242188 400.7489061734255 57.5802007593059
  endloop
endfacet
facet normal -1.2575653032866972e-06 0.9999999999988036 -9.007616721731484e-07
  outer loop
    vertex 139.03324032664565 400.7489061734255 57.5802007593059
    vertex 131.99654290242188 400.7489061734255 57.5802007593059
    vertex 132.7206384122479 400.7489061734255 57.5802007593059
  endloop
endfacet
facet normal -1.2575653032866972e-06 0.9999999999988036 -9.007616721731484e-07
  outer loop
    vertex 139.03324032664565 400.7489061734255 57.5802007593059
    vertex 132.7206384122479 400.7489061734255 57.5802007593059
    vertex 133.42006096588875 400.7489061734255 57.76761046772209
  endloop
endfacet
facet normal -1.2575653032866972e-06 0.9999999999988036 -9.007616721731484e-07
  outer loop
    vertex 139.03324032664565 400.7489061734255 57.5802007593059
    vertex 133.42006096588875 400.7489061734255 57.76761046772209
    vertex 134.04714607216434 400.7489061734255 58.1296582226351
  endloop
endfacet
facet normal -1.2575653032866972e-06 0.9999999999988036 -9.007616721731484e-07
  outer loop
    vertex 139.03324032664565 400.7489061734255 57.5802007593059
    vertex 134.04714607216434 400.7489061734255 58.1296582226351
    vertex 138.6808456573349 400.7489061734255 60.93451144661549
  endloop
endfacet
facet normal -1.2575653032866972e-06 0.9999999999988036 -9.007616721731484e-07
  outer loop
    vertex 138.6808456573349 400.7489061734255 60.93451144661549
    vertex 134.04714607216434 400.7489061734255 58.1296582226351
    vertex 134.55915891738917 400.7489061734255 58.64167106785987
  endloop
endfacet
facet normal -1.2575653032866972e-06 0.9999999999988036 -9.007616721731484e-07
  outer loop
    vertex 138.6808456573349 400.7489061734255 60.93451144661549
    vertex 134.55915891738917 400.7489061734255 58.64167106785987
    vertex 134.92120667230208 400.7489061734255 59.26875617413538
  endloop
endfacet
facet normal -1.2575653032866972e-06 0.9999999999988036 -9.007616721731484e-07
  outer loop
    vertex 138.6808456573349 400.7489061734255 60.93451144661549
    vertex 134.92120667230208 400.7489061734255 59.26875617413538
    vertex 135.1086163807183 400.7489061734255 59.968178727776234
  endloop
endfacet
facet normal -1.2575653032866972e-06 0.9999999999988036 -9.007616721731484e-07
  outer loop
    vertex 138.6808456573349 400.7489061734255 60.93451144661549
    vertex 135.1086163807183 400.7489061734255 59.968178727776234
    vertex 135.1086163807183 400.7489061734255 60.692274237602376
  endloop
endfacet
facet normal -1.2575653032866972e-06 0.9999999999988036 -9.007616721731484e-07
  outer loop
    vertex 138.6808456573349 400.7489061734255 60.93451144661549
    vertex 135.1086163807183 400.7489061734255 60.692274237602376
    vertex 134.92120667230208 400.7489061734255 61.391696791243255
  endloop
endfacet
facet normal -1.2575653032866972e-06 0.9999999999988036 -9.007616721731484e-07
  outer loop
    vertex 138.6808456573349 400.7489061734255 60.93451144661549
    vertex 134.92120667230208 400.7489061734255 61.391696791243255
    vertex 137.20358426836395 400.7489061734255 63.14924411549187
  endloop
endfacet
facet normal -1.2575653032866972e-06 0.9999999999988036 -9.007616721731484e-07
  outer loop
    vertex 137.20358426836395 400.7489061734255 63.14924411549187
    vertex 134.92120667230208 400.7489061734255 61.391696791243255
    vertex 134.87706900910052 400.7489061734255 62.00262293638767
  endloop
endfacet
facet normal -1.2575653032866972e-06 0.9999999999988036 -9.007616721731484e-07
  outer loop
    vertex 137.20358426836395 400.7489061734255 63.14924411549187
    vertex 134.87706900910052 400.7489061734255 62.00262293638767
    vertex 135.13293134589898 400.7489061734255 62.61354908153206
  endloop
endfacet
facet normal -1.2575653032866972e-06 0.9999999999988036 -9.007616721731484e-07
  outer loop
    vertex 137.20358426836395 400.7489061734255 63.14924411549187
    vertex 135.13293134589898 400.7489061734255 62.61354908153206
    vertex 135.6176464040631 400.7489061734255 63.491976992197685
  endloop
endfacet
facet normal -1.402131346344584e-06 -5.996402690293909e-08 -0.9999999999990152
  outer loop
    vertex 126.73200191773118 397.7771041403 36.49374608927354
    vertex 120.39972868250487 395.1912218165283 36.493747149882225
    vertex 120.39972861696532 396.6271041402988 36.49374717928935
  endloop
endfacet
facet normal -1.402131346344584e-06 -5.996402690293909e-08 -0.9999999999990152
  outer loop
    vertex 120.39972868250487 395.1912218165283 36.493747149882225
    vertex 126.73200191773118 397.7771041403 36.49374608927354
    vertex 126.73200285863095 394.041221816532 36.4937448778902
  endloop
endfacet
facet normal -1.402131346344584e-06 -5.996402690293909e-08 -0.9999999999990152
  outer loop
    vertex 126.73200285863095 394.041221816532 36.4937448778902
    vertex 126.73200191773118 397.7771041403 36.49374608927354
    vertex 126.73200306081196 397.9129864640708 36.49374720160334
  endloop
endfacet
facet normal -1.402131346344584e-06 -5.996402690293909e-08 -0.9999999999990152
  outer loop
    vertex 121.29972864826404 400.7488687878399 36.493747164334025
    vertex 126.73200306081196 397.9129864640708 36.49374720160334
    vertex 121.29972774849831 399.31298646406856 36.49374713088159
  endloop
endfacet
facet normal -1.402131346344584e-06 -5.996402690293909e-08 -0.9999999999990152
  outer loop
    vertex 126.73200306081196 397.9129864640708 36.49374720160334
    vertex 121.29972864826404 400.7488687878399 36.493747164334025
    vertex 126.87210133307642 401.91046252657395 36.4937371706939
  endloop
endfacet
facet normal -1.402131346344584e-06 -5.996402690293909e-08 -0.9999999999990152
  outer loop
    vertex 119.49973090496141 392.50533949276286 36.493747198094184
    vertex 126.73200191773124 389.89946916121113 36.4937397018742
    vertex 119.49972864826404 391.0694571689871 36.493747164334025
  endloop
endfacet
facet normal -1.402131346344584e-06 -5.996402690293909e-08 -0.9999999999990152
  outer loop
    vertex 126.73200191773124 389.89946916121113 36.4937397018742
    vertex 119.49973090496141 392.50533949276286 36.493747198094184
    vertex 126.73200021296756 393.9053454888678 36.49374163316705
  endloop
endfacet
facet normal -1.402131346344584e-06 -5.996402690293909e-08 -0.9999999999990152
  outer loop
    vertex 126.73200191773124 389.89946916121113 36.4937397018742
    vertex 126.73200021296756 393.9053454888678 36.49374163316705
    vertex 126.73200285863095 394.041221816532 36.4937448778902
  endloop
endfacet
facet normal -1.402131346344584e-06 -5.996402690293909e-08 -0.9999999999990152
  outer loop
    vertex 126.73200191773124 389.89946916121113 36.4937397018742
    vertex 126.73200285863095 394.041221816532 36.4937448778902
    vertex 137.23074986806168 391.0694923381263 36.493725279461884
  endloop
endfacet
facet normal -1.402131346344584e-06 -5.996402690293909e-08 -0.9999999999990152
  outer loop
    vertex 137.23074986806168 391.0694923381263 36.493725279461884
    vertex 126.73200285863095 394.041221816532 36.4937448778902
    vertex 126.73200306081196 397.9129864640708 36.49374720160334
  endloop
endfacet
facet normal -1.402131346344584e-06 -5.996402690293909e-08 -0.9999999999990152
  outer loop
    vertex 137.23074986806168 391.0694923381263 36.493725279461884
    vertex 126.73200306081196 397.9129864640708 36.49374720160334
    vertex 126.87210133307642 401.91046252657395 36.4937371706939
  endloop
endfacet
facet normal -1.402131346344584e-06 -5.996402690293909e-08 -0.9999999999990152
  outer loop
    vertex 137.23074986806168 391.0694923381263 36.493725279461884
    vertex 126.87210133307642 401.91046252657395 36.4937371706939
    vertex 137.23073804079644 400.74890395695996 36.493718604681334
  endloop
endfacet
facet normal 0.9963663881640888 5.790227139606858e-07 -0.08517053796068891
  outer loop
    vertex 137.23073804079644 400.74890395695996 36.493718604681334
    vertex 139.03324032664565 391.0694945545728 57.5802007593059
    vertex 137.23074986806168 391.0694923381263 36.493725279461884
  endloop
endfacet
facet normal 0.9963663881640888 5.790227139606858e-07 -0.08517053796068891
  outer loop
    vertex 139.03324032664565 391.0694945545728 57.5802007593059
    vertex 137.23073804079644 400.74890395695996 36.493718604681334
    vertex 139.03324032664565 395.6216166396598 57.5802007593059
  endloop
endfacet
facet normal 0.9963663881640888 5.790227139606858e-07 -0.08517053796068891
  outer loop
    vertex 139.03324032664565 395.6216166396598 57.5802007593059
    vertex 137.23073804079644 400.74890395695996 36.493718604681334
    vertex 139.03324032664565 400.7489061734255 57.5802007593059
  endloop
endfacet
facet normal -0.5658882595824716 -0.8051828703875268 0.17734436247376015
  outer loop
    vertex 124.06333704753231 393.23295609337794 57.58052248142538
    vertex 123.93557464448418 391.0694571689947 47.35007876949382
    vertex 127.14169404555437 391.0694648567278 57.58052248142538
  endloop
endfacet
facet normal -0.6948041684717333 0.6947906536683724 0.185777057381634
  outer loop
    vertex 126.67082657808164 400.7488874806374 57.58021696011153
    vertex 123.93546193780143 400.74886878784736 47.35005294757219
    vertex 124.06321808255022 398.14119709066364 57.58033354166017
  endloop
endfacet
facet normal 0.10761069178375737 -0.9655997744280853 0.23672138610242247
  outer loop
    vertex 126.73201288830869 391.06945716898986 41.26618123934672
    vertex 126.73200191773124 389.89946916121113 36.4937397018742
    vertex 137.23074986806168 391.0694923381263 36.493725279461884
  endloop
endfacet
facet normal -0.999922033912087 -1.4095451079012141e-05 0.01248702920768658
  outer loop
    vertex 124.06333704753231 393.23295609337794 57.58052248142538
    vertex 123.93546193780143 400.74886878784736 47.35005294757219
    vertex 123.93557464448418 391.0694571689947 47.35007876949382
  endloop
endfacet
facet normal -0.999922033912087 -1.4095451079012141e-05 0.01248702920768658
  outer loop
    vertex 123.93546193780143 400.74886878784736 47.35005294757219
    vertex 124.06333704753231 393.23295609337794 57.58052248142538
    vertex 124.06327921774223 395.6188896776169 57.58032768373856
  endloop
endfacet
facet normal -0.999922033912087 -1.4095451079012141e-05 0.01248702920768658
  outer loop
    vertex 123.93546193780143 400.74886878784736 47.35005294757219
    vertex 124.06327921774223 395.6188896776169 57.58032768373856
    vertex 124.06321808255022 398.14119709066364 57.58033354166017
  endloop
endfacet
facet normal 0.9223734607369869 0.00013685280022866092 0.3862993401487833
  outer loop
    vertex 129.84011230556925 400.7489061734255 62.002622936387645
    vertex 129.58471918603522 395.62657392451536 62.61424407203855
    vertex 129.84058152283367 395.6227403745153 62.00331792689414
  endloop
endfacet
facet normal 0.9223734607369869 0.00013685280022866092 0.3862993401487833
  outer loop
    vertex 129.58471918603522 395.62657392451536 62.61424407203855
    vertex 129.84011230556925 400.7489061734255 62.002622936387645
    vertex 129.58424996877076 400.7489061734255 62.61354908153206
  endloop
endfacet
facet normal -0.9999999999900877 -4.287862657624009e-06 -1.1995813907585474e-06
  outer loop
    vertex 126.73199337829155 394.4912218165568 41.26618506599282
    vertex 126.73200021296756 393.9053454888678 36.49374163316705
    vertex 126.73199824346825 393.4553394927457 41.26618309240813
  endloop
endfacet
facet normal -0.9999999999900877 -4.287862657624009e-06 -1.1995813907585474e-06
  outer loop
    vertex 126.73200021296756 393.9053454888678 36.49374163316705
    vertex 126.73199337829155 394.4912218165568 41.26618506599282
    vertex 126.73200285863095 394.041221816532 36.4937448778902
  endloop
endfacet
facet normal -0.9999999999919122 -2.3549117529120948e-06 -3.260380798899755e-06
  outer loop
    vertex 126.7319856136518 398.3629864640693 41.26618123974926
    vertex 126.73200191773118 397.7771041403 36.49374608927354
    vertex 126.73198824498503 397.3271041402896 41.26618055620035
  endloop
endfacet
facet normal -0.9999999999919122 -2.3549117529120948e-06 -3.260380798899755e-06
  outer loop
    vertex 126.73200191773118 397.7771041403 36.49374608927354
    vertex 126.7319856136518 398.3629864640693 41.26618123974926
    vertex 126.73200306081196 397.9129864640708 36.49374720160334
  endloop
endfacet
facet normal -0.6018740509862603 1.3472487020642316e-07 0.7985910259634592
  outer loop
    vertex 120.39972868250487 395.1912218165283 36.493747149882225
    vertex 126.73198824498503 397.3271041402896 41.26618055620035
    vertex 120.39972861696532 396.6271041402988 36.49374717928935
  endloop
endfacet
facet normal -0.6018740509862603 1.3472487020642316e-07 0.7985910259634592
  outer loop
    vertex 126.73198824498503 397.3271041402896 41.26618055620035
    vertex 120.39972868250487 395.1912218165283 36.493747149882225
    vertex 126.73199337829155 394.4912218165568 41.26618506599282
  endloop
endfacet
facet normal -0.5507723808474512 -2.7327667297892088e-06 0.8346554885029883
  outer loop
    vertex 126.73201288830869 391.06945716898986 41.26618123934672
    vertex 119.49973090496141 392.50533949276286 36.493747198094184
    vertex 119.49972864826404 391.0694571689871 36.493747164334025
  endloop
endfacet
facet normal -0.5507723808474512 -2.7327667297892088e-06 0.8346554885029883
  outer loop
    vertex 119.49973090496141 392.50533949276286 36.493747198094184
    vertex 126.73201288830869 391.06945716898986 41.26618123934672
    vertex 126.73199824346825 393.4553394927457 41.26618309240813
  endloop
endfacet
facet normal -0.660008157949661 -1.2794272670610837e-06 0.7512584318583445
  outer loop
    vertex 126.7319856136518 398.3629864640693 41.26618123974926
    vertex 121.29972864826404 400.7488687878399 36.493747164334025
    vertex 121.29972774849831 399.31298646406856 36.49374713088159
  endloop
endfacet
facet normal -0.660008157949661 -1.2794272670610837e-06 0.7512584318583445
  outer loop
    vertex 121.29972864826404 400.7488687878399 36.493747164334025
    vertex 126.7319856136518 398.3629864640693 41.26618123974926
    vertex 126.73197879498755 400.74886878784264 41.26618123984989
  endloop
endfacet
facet normal -0.9086101675486427 -6.715648205390051e-06 -0.41764526021748133
  outer loop
    vertex 123.93557464448418 391.0694571689947 47.35007876949382
    vertex 126.73199824346825 393.4553394927457 41.26618309240813
    vertex 126.73201288830869 391.06945716898986 41.26618123934672
  endloop
endfacet
facet normal -0.9086101675486427 -6.715648205390051e-06 -0.41764526021748133
  outer loop
    vertex 126.73199824346825 393.4553394927457 41.26618309240813
    vertex 123.93557464448418 391.0694571689947 47.35007876949382
    vertex 123.93546193780143 400.74886878784736 47.35005294757219
  endloop
endfacet
facet normal -0.9086101675486427 -6.715648205390051e-06 -0.41764526021748133
  outer loop
    vertex 126.73199824346825 393.4553394927457 41.26618309240813
    vertex 123.93546193780143 400.74886878784736 47.35005294757219
    vertex 126.73199337829155 394.4912218165568 41.26618506599282
  endloop
endfacet
facet normal -0.9086101675486427 -6.715648205390051e-06 -0.41764526021748133
  outer loop
    vertex 126.73199337829155 394.4912218165568 41.26618506599282
    vertex 123.93546193780143 400.74886878784736 47.35005294757219
    vertex 126.73198824498503 397.3271041402896 41.26618055620035
  endloop
endfacet
facet normal -0.9086101675486427 -6.715648205390051e-06 -0.41764526021748133
  outer loop
    vertex 126.73198824498503 397.3271041402896 41.26618055620035
    vertex 123.93546193780143 400.74886878784736 47.35005294757219
    vertex 126.7319856136518 398.3629864640693 41.26618123974926
  endloop
endfacet
facet normal -0.9086101675486427 -6.715648205390051e-06 -0.41764526021748133
  outer loop
    vertex 126.7319856136518 398.3629864640693 41.26618123974926
    vertex 123.93546193780143 400.74886878784736 47.35005294757219
    vertex 126.73197879498755 400.74886878784264 41.26618123984989
  endloop
endfacet
facet normal -0.49999999341258644 0.00016232561087110237 0.8660253923747326
  outer loop
    vertex 134.0466792095177 395.6216166396598 58.13034972555257
    vertex 133.42006096588875 400.7489061734255 57.76761046772209
    vertex 133.41959410324205 395.6216166396598 57.768301970639556
  endloop
endfacet
facet normal -0.49999999341258644 0.00016232561087110237 0.8660253923747326
  outer loop
    vertex 133.42006096588875 400.7489061734255 57.76761046772209
    vertex 134.0466792095177 395.6216166396598 58.13034972555257
    vertex 134.04714607216434 400.7489061734255 58.1296582226351
  endloop
endfacet
facet normal 0.9974003266454239 8.149569955195795e-05 -0.07205957095384852
  outer loop
    vertex 129.79597464236767 400.7489061734255 61.391696791243234
    vertex 129.84058152283367 395.6227403745153 62.00331792689414
    vertex 129.79644385963212 395.61890682451536 61.39239178174973
  endloop
endfacet
facet normal 0.9974003266454239 8.149569955195795e-05 -0.07205957095384852
  outer loop
    vertex 129.84058152283367 395.6227403745153 62.00331792689414
    vertex 129.79597464236767 400.7489061734255 61.391696791243234
    vertex 129.84011230556925 400.7489061734255 62.002622936387645
  endloop
endfacet
facet normal -0.17792247612153728 0.9796989963838809 0.09237677725054909
  outer loop
    vertex 126.73198824498503 397.3271041402896 41.26618055620035
    vertex 126.73200191773118 397.7771041403 36.49374608927354
    vertex 120.39972861696532 396.6271041402988 36.49374717928935
  endloop
endfacet
facet normal -0.9659258249300899 5.304568052841988e-05 -0.2588190447383678
  outer loop
    vertex 134.92120667230208 400.7489061734255 61.391696791243255
    vertex 135.10814951807157 395.6216166396598 60.69296574051986
    vertex 134.92073980965543 395.6216166396598 61.39238829416072
  endloop
endfacet
facet normal -0.9659258249300899 5.304568052841988e-05 -0.2588190447383678
  outer loop
    vertex 135.10814951807157 395.6216166396598 60.69296574051986
    vertex 134.92120667230208 400.7489061734255 61.391696791243255
    vertex 135.1086163807183 400.7489061734255 60.692274237602376
  endloop
endfacet
facet normal -0.1779224348578167 -0.9796989995536445 0.09237682310977288
  outer loop
    vertex 126.73199337829155 394.4912218165568 41.26618506599282
    vertex 120.39972868250487 395.1912218165283 36.493747149882225
    vertex 126.73200285863095 394.041221816532 36.4937448778902
  endloop
endfacet
facet normal -0.0 1.0 -0.0
  outer loop
    vertex 128.52957013281522 400.7489061734255 63.49267198270416
    vertex 129.58424996877076 400.7489061734255 62.61354908153206
    vertex 127.15571153592745 400.7489061734255 63.14855261257439
  endloop
endfacet
facet normal -0.1987767431532789 0.9535694951998207 0.22625875498140258
  outer loop
    vertex 126.73197879498755 400.74886878784264 41.26618123984989
    vertex 126.87210133307642 401.91046252657395 36.4937371706939
    vertex 121.29972864826404 400.7488687878399 36.493747164334025
  endloop
endfacet
facet normal -0.8742191650762174 -1.5766490721622006e-05 0.4855315140800434
  outer loop
    vertex 127.15618075319186 395.6189068245152 63.149247603080674
    vertex 124.06321808255022 398.14119709066364 57.58033354166017
    vertex 124.06327921774223 395.6188896776169 57.58032768373856
  endloop
endfacet
facet normal -0.8742191650762174 -1.5766490721622006e-05 0.4855315140800434
  outer loop
    vertex 124.06321808255022 398.14119709066364 57.58033354166017
    vertex 127.15618075319186 395.6189068245152 63.149247603080674
    vertex 127.15571153592745 400.7489061734255 63.14855261257439
  endloop
endfacet
facet normal 0.9659258249177923 5.3285054369423604e-05 -0.25881904473509243
  outer loop
    vertex 129.6085649339515 400.7489061734255 60.692274237602376
    vertex 129.79644385963212 395.61890682451536 61.39239178174973
    vertex 129.60903415121592 395.61890682451536 60.69296922810887
  endloop
endfacet
facet normal 0.9659258249177923 5.3285054369423604e-05 -0.25881904473509243
  outer loop
    vertex 129.79644385963212 395.61890682451536 61.39239178174973
    vertex 129.6085649339515 400.7489061734255 60.692274237602376
    vertex 129.79597464236767 400.7489061734255 61.391696791243234
  endloop
endfacet
facet normal 0.9659258249177923 5.3285054369423604e-05 -0.25881904473509243
  outer loop
    vertex 129.79597464236767 400.7489061734255 61.391696791243234
    vertex 129.6085649339515 400.7489061734255 60.692274237602376
    vertex 129.7022697881596 400.7489061734255 61.04198551442281
  endloop
endfacet
facet normal 0.8660253944339688 0.0001469492030573638 0.49999999460142047
  outer loop
    vertex 130.15802239728063 400.7489061734255 58.641671067859846
    vertex 129.79644385963212 395.61890682451536 59.2694511646419
    vertex 130.15849161454506 395.61890682451536 58.64236605836634
  endloop
endfacet
facet normal 0.8660253944339688 0.0001469492030573638 0.49999999460142047
  outer loop
    vertex 129.79644385963212 395.61890682451536 59.2694511646419
    vertex 130.15802239728063 400.7489061734255 58.641671067859846
    vertex 129.79597464236767 400.7489061734255 59.268756174135426
  endloop
endfacet
facet normal 0.7071067720821 0.0001604715991083399 0.7071067720821934
  outer loop
    vertex 130.15849161454506 395.61890682451536 58.64236605836634
    vertex 130.67003524250543 400.7489061734255 58.1296582226351
    vertex 130.15802239728063 400.7489061734255 58.641671067859846
  endloop
endfacet
facet normal 0.7071067720821 0.0001604715991083399 0.7071067720821934
  outer loop
    vertex 130.67003524250543 400.7489061734255 58.1296582226351
    vertex 130.15849161454506 395.61890682451536 58.64236605836634
    vertex 130.67050445976986 395.61890682451536 58.1303532131416
  endloop
endfacet
facet normal -0.9659258189991792 0.00012285805270755162 0.25881904314919346
  outer loop
    vertex 135.1086163807183 400.7489061734255 59.968178727776234
    vertex 134.92073980965543 395.6216166396598 59.26944767705287
    vertex 135.10814951807157 395.6216166396598 59.9688702306937
  endloop
endfacet
facet normal -0.9659258189991792 0.00012285805270755162 0.25881904314919346
  outer loop
    vertex 134.92073980965543 395.6216166396598 59.26944767705287
    vertex 135.1086163807183 400.7489061734255 59.968178727776234
    vertex 134.92120667230208 400.7489061734255 59.26875617413538
  endloop
endfacet
facet normal -0.8660253945177689 0.000146289059330731 0.4999999946498542
  outer loop
    vertex 134.92120667230208 400.7489061734255 59.26875617413538
    vertex 134.55869205474244 395.6216166396598 58.64236257077733
    vertex 134.92073980965543 395.6216166396598 59.26944767705287
  endloop
endfacet
facet normal -0.8660253945177689 0.000146289059330731 0.4999999946498542
  outer loop
    vertex 134.55869205474244 395.6216166396598 58.64236257077733
    vertex 134.92120667230208 400.7489061734255 59.26875617413538
    vertex 134.55915891738917 400.7489061734255 58.64167106785987
  endloop
endfacet
facet normal -0.24258741179693946 0.00010924068101389235 0.9701295458360887
  outer loop
    vertex 128.52957013281517 395.6265739245152 63.492671982703975
    vertex 127.15571153592745 400.7489061734255 63.14855261257439
    vertex 127.15618075319186 395.6189068245152 63.149247603080674
  endloop
endfacet
facet normal -0.2429706835587184 -3.097686528882818e-14 0.9700336318556224
  outer loop
    vertex 128.52957013281522 400.7489061734255 63.49267198270416
    vertex 127.15571153592745 400.7489061734255 63.14855261257439
    vertex 128.52957013281517 395.6265739245152 63.492671982703975
  endloop
endfacet
facet normal 0.6398133676743991 0.0001628814186117135 0.7685303039014063
  outer loop
    vertex 129.58471918603522 395.62657392451536 62.61424407203855
    vertex 129.58424996877076 400.7489061734255 62.61354908153206
    vertex 128.52957013281517 395.6265739245152 63.492671982703975
  endloop
endfacet
facet normal 0.6402802622689854 -3.5533798252021273e-14 0.768141383957901
  outer loop
    vertex 129.58424996877076 400.7489061734255 62.61354908153206
    vertex 128.52957013281522 400.7489061734255 63.49267198270416
    vertex 128.52957013281517 395.6265739245152 63.492671982703975
  endloop
endfacet
facet normal 0.0009622604901017218 -9.419352581585351e-06 0.9999995369829054
  outer loop
    vertex 132.36391226326998 395.61965428211755 57.58040033733067
    vertex 132.7206384122479 400.7489061734255 57.5802007593059
    vertex 131.9970121196863 395.61890682451536 57.580895749812385
  endloop
endfacet
facet normal 0.0009622604901017218 -9.419352581585351e-06 0.9999995369829054
  outer loop
    vertex 132.7206384122479 400.7489061734255 57.5802007593059
    vertex 132.36391226326998 395.61965428211755 57.58040033733067
    vertex 132.7206384122479 395.61890682451536 57.58020075930593
  endloop
endfacet
facet normal 1.4971321304064405e-19 0.00013547574820768014 0.9999999908231608
  outer loop
    vertex 132.7206384122479 400.7489061734255 57.5802007593059
    vertex 131.99654290242188 400.7489061734255 57.5802007593059
    vertex 131.9970121196863 395.61890682451536 57.580895749812385
  endloop
endfacet
facet normal 0.9999999958170436 9.146536491879452e-05 2.75838798841611e-20
  outer loop
    vertex 129.6085649339515 400.7489061734255 59.968178727776234
    vertex 129.60903415121592 395.61890682451536 60.69296922810887
    vertex 129.60903415121592 395.61890682451536 59.96887371828274
  endloop
endfacet
facet normal 0.9999999958170436 9.146536491879452e-05 2.75838798841611e-20
  outer loop
    vertex 129.60903415121592 395.61890682451536 60.69296922810887
    vertex 129.6085649339515 400.7489061734255 59.968178727776234
    vertex 129.6085649339515 400.7489061734255 60.692274237602376
  endloop
endfacet
facet normal 0.4999999933530367 0.00016305812110804354 0.8660253922715041
  outer loop
    vertex 130.67050445976986 395.61890682451536 58.1303532131416
    vertex 131.29712034878102 400.7489061734255 57.767610467722065
    vertex 130.67003524250543 400.7489061734255 58.1296582226351
  endloop
endfacet
facet normal 0.4999999933530367 0.00016305812110804354 0.8660253922715041
  outer loop
    vertex 131.29712034878102 400.7489061734255 57.767610467722065
    vertex 130.67050445976986 395.61890682451536 58.1303532131416
    vertex 131.29758956604545 395.61890682451536 57.76830545822857
  endloop
endfacet
facet normal 0.965925818933232 0.00012341246172375902 0.2588190431315469
  outer loop
    vertex 129.79597464236767 400.7489061734255 59.268756174135426
    vertex 129.60903415121592 395.61890682451536 59.96887371828274
    vertex 129.79644385963212 395.61890682451536 59.2694511646419
  endloop
endfacet
facet normal 0.965925818933232 0.00012341246172375902 0.2588190431315469
  outer loop
    vertex 129.60903415121592 395.61890682451536 59.96887371828274
    vertex 129.79597464236767 400.7489061734255 59.268756174135426
    vertex 129.6085649339515 400.7489061734255 59.968178727776234
  endloop
endfacet
facet normal 0.2588190420121685 0.0001545325018941823 0.9659258147557758
  outer loop
    vertex 131.29758956604545 395.61890682451536 57.76830545822857
    vertex 131.99654290242188 400.7489061734255 57.5802007593059
    vertex 131.29712034878102 400.7489061734255 57.767610467722065
  endloop
endfacet
facet normal 0.2588190420121685 0.0001545325018941823 0.9659258147557758
  outer loop
    vertex 131.99654290242188 400.7489061734255 57.5802007593059
    vertex 131.29758956604545 395.61890682451536 57.76830545822857
    vertex 131.9970121196863 395.61890682451536 57.580895749812385
  endloop
endfacet
facet normal 0.10823145380759014 0.9651910106613402 0.23810137619349572
  outer loop
    vertex 126.73197879498755 400.74886878784264 41.26618123984989
    vertex 137.23073804079644 400.74890395695996 36.493718604681334
    vertex 126.87210133307642 401.91046252657395 36.4937371706939
  endloop
endfacet
facet normal 0.9945206765757448 -3.82282687564191e-05 0.10454005166405111
  outer loop
    vertex 139.03324032664565 400.7489061734255 57.5802007593059
    vertex 138.68037879468818 395.6216166396598 60.935202949532965
    vertex 139.03324032664565 395.6216166396598 57.5802007593059
  endloop
endfacet
facet normal 0.9945206765757448 -3.82282687564191e-05 0.10454005166405111
  outer loop
    vertex 138.68037879468818 395.6216166396598 60.935202949532965
    vertex 139.03324032664565 400.7489061734255 57.5802007593059
    vertex 138.6808456573349 400.7489061734255 60.93451144661549
  endloop
endfacet
facet normal 0.004293024479958773 -0.9999774889894385 0.00515669033315113
  outer loop
    vertex 128.52957013281517 395.6265739245152 63.492671982703975
    vertex 127.15618075319186 395.6189068245152 63.149247603080674
    vertex 129.58471918603522 395.62657392451536 62.61424407203855
  endloop
endfacet
facet normal -0.25881904510252446 4.245610022664514e-15 0.9659258262890673
  outer loop
    vertex 133.42006096588875 400.7489061734255 57.76761046772209
    vertex 132.7206384122479 400.7489061734255 57.5802007593059
    vertex 132.7206384122479 395.61890682451536 57.58020075930593
  endloop
endfacet
facet normal -0.259872044105786 0.00015389603616926536 0.9656430484440357
  outer loop
    vertex 133.42006096588875 400.7489061734255 57.76761046772209
    vertex 132.7206384122479 395.61890682451536 57.58020075930593
    vertex 133.41959410324205 395.6216166396598 57.768301970639556
  endloop
endfacet
facet normal 2.7100201319767905e-06 -0.9999999999963267 5.042613830150332e-08
  outer loop
    vertex 139.03324032664565 391.0694945545728 57.5802007593059
    vertex 126.73201288830869 391.06945716898986 41.26618123934672
    vertex 137.23074986806168 391.0694923381263 36.493725279461884
  endloop
endfacet
facet normal 2.7100201319767905e-06 -0.9999999999963267 5.042613830150332e-08
  outer loop
    vertex 126.73201288830869 391.06945716898986 41.26618123934672
    vertex 139.03324032664565 391.0694945545728 57.5802007593059
    vertex 123.93557464448418 391.0694571689947 47.35007876949382
  endloop
endfacet
facet normal 2.7100201319767905e-06 -0.9999999999963267 5.042613830150332e-08
  outer loop
    vertex 123.93557464448418 391.0694571689947 47.35007876949382
    vertex 139.03324032664565 391.0694945545728 57.5802007593059
    vertex 127.14169404555437 391.0694648567278 57.58052248142538
  endloop
endfacet
facet normal -0.004652463454817751 -0.9999715429544987 0.0059386753574091735
  outer loop
    vertex 137.1632929160958 395.6216166396593 63.14924411549191
    vertex 134.87660214645385 395.6254501896597 62.00331443930513
    vertex 134.92073980965543 395.6216166396598 61.39238829416072
  endloop
endfacet
facet normal 2.2265741123355166e-06 -0.9999999999963416 1.536001716381561e-06
  outer loop
    vertex 124.06327921774223 395.6188896776169 57.58032768373856
    vertex 130.15849161454506 395.61890682451536 58.64236605836634
    vertex 127.15618075319186 395.6189068245152 63.149247603080674
  endloop
endfacet
facet normal 2.2265741123355166e-06 -0.9999999999963416 1.536001716381561e-06
  outer loop
    vertex 130.15849161454506 395.61890682451536 58.64236605836634
    vertex 124.06327921774223 395.6188896776169 57.58032768373856
    vertex 130.67050445976986 395.61890682451536 58.1303532131416
  endloop
endfacet
facet normal 2.2265741123355166e-06 -0.9999999999963416 1.536001716381561e-06
  outer loop
    vertex 130.67050445976986 395.61890682451536 58.1303532131416
    vertex 124.06327921774223 395.6188896776169 57.58032768373856
    vertex 131.29758956604545 395.61890682451536 57.76830545822857
  endloop
endfacet
facet normal 2.2265741123355166e-06 -0.9999999999963416 1.536001716381561e-06
  outer loop
    vertex 131.29758956604545 395.61890682451536 57.76830545822857
    vertex 124.06327921774223 395.6188896776169 57.58032768373856
    vertex 131.9970121196863 395.61890682451536 57.580895749812385
  endloop
endfacet
facet normal 2.2265741123355166e-06 -0.9999999999963416 1.536001716381561e-06
  outer loop
    vertex 127.15618075319186 395.6189068245152 63.149247603080674
    vertex 130.15849161454506 395.61890682451536 58.64236605836634
    vertex 129.79644385963212 395.61890682451536 59.2694511646419
  endloop
endfacet
facet normal 2.2265741123355166e-06 -0.9999999999963416 1.536001716381561e-06
  outer loop
    vertex 127.15618075319186 395.6189068245152 63.149247603080674
    vertex 129.79644385963212 395.61890682451536 59.2694511646419
    vertex 129.60903415121592 395.61890682451536 59.96887371828274
  endloop
endfacet
facet normal 2.2265741123355166e-06 -0.9999999999963416 1.536001716381561e-06
  outer loop
    vertex 127.15618075319186 395.6189068245152 63.149247603080674
    vertex 129.60903415121592 395.61890682451536 59.96887371828274
    vertex 129.60903415121592 395.61890682451536 60.69296922810887
  endloop
endfacet
facet normal 2.2265741123355166e-06 -0.9999999999963416 1.536001716381561e-06
  outer loop
    vertex 127.15618075319186 395.6189068245152 63.149247603080674
    vertex 129.60903415121592 395.61890682451536 60.69296922810887
    vertex 129.79644385963212 395.61890682451536 61.39239178174973
  endloop
endfacet
facet normal 0.005000610877331031 -0.9999524758056606 0.008368991634806882
  outer loop
    vertex 127.15618075319186 395.6189068245152 63.149247603080674
    vertex 129.84058152283367 395.6227403745153 62.00331792689414
    vertex 129.58471918603522 395.62657392451536 62.61424407203855
  endloop
endfacet
facet normal 1.5889139380646178e-05 -5.717076024655889e-06 0.9999999998574252
  outer loop
    vertex 124.06333704753231 393.23295609337794 57.58052248142538
    vertex 131.9970121196863 395.61890682451536 57.580895749812385
    vertex 124.06327921774223 395.6188896776169 57.58032768373856
  endloop
endfacet
facet normal 1.5889139380646178e-05 -5.717076024655889e-06 0.9999999998574252
  outer loop
    vertex 131.9970121196863 395.61890682451536 57.580895749812385
    vertex 124.06333704753231 393.23295609337794 57.58052248142538
    vertex 127.14169404555437 391.0694648567278 57.58052248142538
  endloop
endfacet
facet normal 1.5889139380646178e-05 -5.717076024655889e-06 0.9999999998574252
  outer loop
    vertex 131.9970121196863 395.61890682451536 57.580895749812385
    vertex 127.14169404555437 391.0694648567278 57.58052248142538
    vertex 139.03324032664565 391.0694945545728 57.5802007593059
  endloop
endfacet
facet normal 1.5889139380646178e-05 -5.717076024655889e-06 0.9999999998574252
  outer loop
    vertex 131.9970121196863 395.61890682451536 57.580895749812385
    vertex 139.03324032664565 391.0694945545728 57.5802007593059
    vertex 132.36391226326998 395.61965428211755 57.58040033733067
  endloop
endfacet
facet normal 1.5889139380646178e-05 -5.717076024655889e-06 0.9999999998574252
  outer loop
    vertex 132.36391226326998 395.61965428211755 57.58040033733067
    vertex 139.03324032664565 391.0694945545728 57.5802007593059
    vertex 132.7206384122479 395.61890682451536 57.58020075930593
  endloop
endfacet
facet normal 1.5889139380646178e-05 -5.717076024655889e-06 0.9999999998574252
  outer loop
    vertex 132.7206384122479 395.61890682451536 57.58020075930593
    vertex 139.03324032664565 391.0694945545728 57.5802007593059
    vertex 139.03324032664565 395.6216166396598 57.5802007593059
  endloop
endfacet
facet normal 0.003983806087220745 -0.9999741422242425 0.005987000246356116
  outer loop
    vertex 127.15618075319186 395.6189068245152 63.149247603080674
    vertex 129.79644385963212 395.61890682451536 61.39239178174973
    vertex 129.84058152283367 395.6227403745153 62.00331792689414
  endloop
endfacet
facet normal 0.8318984909478258 -0.006537238618838469 0.5548893270463677
  outer loop
    vertex 137.20358426836395 400.7489061734255 63.14924411549187
    vertex 137.1632929160958 395.6216166396593 63.14924411549191
    vertex 138.6808456573349 400.7489061734255 60.93451144661549
  endloop
endfacet
facet normal -0.006101298446295562 -0.999942401781982 0.008829908026165434
  outer loop
    vertex 137.1632929160958 395.6216166396593 63.14924411549191
    vertex 135.13246448325228 395.6292837396598 62.61424058444954
    vertex 134.87660214645385 395.6254501896597 62.00331443930513
  endloop
endfacet
facet normal -0.7057799024779604 0.7057604849925461 0.06145622085100037
  outer loop
    vertex 127.15571153592745 400.7489061734255 63.14855261257439
    vertex 126.67082657808164 400.7488874806374 57.58021696011153
    vertex 124.06321808255022 398.14119709066364 57.58033354166017
  endloop
endfacet
facet normal 0.8249223528486046 1.1202544030628136e-06 0.5652460630287196
  outer loop
    vertex 138.6808456573349 400.7489061734255 60.93451144661549
    vertex 137.1632929160958 395.6216166396593 63.14924411549191
    vertex 138.68037879468818 395.6216166396598 60.935202949532965
  endloop
endfacet
facet normal -0.004417457312601501 -0.9999872721402002 0.0024375455878135202
  outer loop
    vertex 135.61717954141665 395.62928373965946 63.49266849511517
    vertex 135.13246448325228 395.6292837396598 62.61424058444954
    vertex 137.1632929160958 395.6216166396593 63.14924411549191
  endloop
endfacet
facet normal 0.21683689990905966 0.00011208199973751147 0.976207839691658
  outer loop
    vertex 137.1632929160958 395.6216166396593 63.14924411549191
    vertex 135.6176464040631 400.7489061734255 63.491976992197685
    vertex 135.61717954141665 395.62928373965946 63.49266849511517
  endloop
endfacet
facet normal -0.8755501959221952 0.00014509771337579185 0.48312713996137646
  outer loop
    vertex 135.6176464040631 400.7489061734255 63.491976992197685
    vertex 135.13246448325228 395.6292837396598 62.61424058444954
    vertex 135.61717954141665 395.62928373965946 63.49266849511517
  endloop
endfacet
facet normal -0.8755501959221952 0.00014509771337579185 0.48312713996137646
  outer loop
    vertex 135.13246448325228 395.6292837396598 62.61424058444954
    vertex 135.6176464040631 400.7489061734255 63.491976992197685
    vertex 135.13293134589898 400.7489061734255 62.61354908153206
  endloop
endfacet
facet normal 0.21123087105699326 -0.0016598979596479837 0.9774347875184654
  outer loop
    vertex 137.20358426836395 400.7489061734255 63.14924411549187
    vertex 135.6176464040631 400.7489061734255 63.491976992197685
    vertex 137.1632929160958 395.6216166396593 63.14924411549191
  endloop
endfacet
facet normal 0.00014362678539482065 -0.9999999847486629 9.936810717462974e-05
  outer loop
    vertex 139.03324032664565 395.6216166396598 57.5802007593059
    vertex 133.41959410324205 395.6216166396598 57.768301970639556
    vertex 132.7206384122479 395.61890682451536 57.58020075930593
  endloop
endfacet
facet normal 0.00014362678539482065 -0.9999999847486629 9.936810717462974e-05
  outer loop
    vertex 133.41959410324205 395.6216166396598 57.768301970639556
    vertex 139.03324032664565 395.6216166396598 57.5802007593059
    vertex 134.0466792095177 395.6216166396598 58.13034972555257
  endloop
endfacet
facet normal 0.00014362678539482065 -0.9999999847486629 9.936810717462974e-05
  outer loop
    vertex 134.0466792095177 395.6216166396598 58.13034972555257
    vertex 139.03324032664565 395.6216166396598 57.5802007593059
    vertex 138.68037879468818 395.6216166396598 60.935202949532965
  endloop
endfacet
facet normal 0.00014362678539482065 -0.9999999847486629 9.936810717462974e-05
  outer loop
    vertex 134.0466792095177 395.6216166396598 58.13034972555257
    vertex 138.68037879468818 395.6216166396598 60.935202949532965
    vertex 134.55869205474244 395.6216166396598 58.64236257077733
  endloop
endfacet
facet normal 0.00014362678539482065 -0.9999999847486629 9.936810717462974e-05
  outer loop
    vertex 134.55869205474244 395.6216166396598 58.64236257077733
    vertex 138.68037879468818 395.6216166396598 60.935202949532965
    vertex 134.92073980965543 395.6216166396598 59.26944767705287
  endloop
endfacet
facet normal 0.00014362678539482065 -0.9999999847486629 9.936810717462974e-05
  outer loop
    vertex 134.92073980965543 395.6216166396598 59.26944767705287
    vertex 138.68037879468818 395.6216166396598 60.935202949532965
    vertex 135.10814951807157 395.6216166396598 59.9688702306937
  endloop
endfacet
facet normal 0.00014362678539482065 -0.9999999847486629 9.936810717462974e-05
  outer loop
    vertex 135.10814951807157 395.6216166396598 59.9688702306937
    vertex 138.68037879468818 395.6216166396598 60.935202949532965
    vertex 135.10814951807157 395.6216166396598 60.69296574051986
  endloop
endfacet
facet normal 0.00014362678539482065 -0.9999999847486629 9.936810717462974e-05
  outer loop
    vertex 135.10814951807157 395.6216166396598 60.69296574051986
    vertex 138.68037879468818 395.6216166396598 60.935202949532965
    vertex 134.92073980965543 395.6216166396598 61.39238829416072
  endloop
endfacet
facet normal 0.00014362678539482065 -0.9999999847486629 9.936810717462974e-05
  outer loop
    vertex 134.92073980965543 395.6216166396598 61.39238829416072
    vertex 138.68037879468818 395.6216166396598 60.935202949532965
    vertex 137.1632929160958 395.6216166396593 63.14924411549191
  endloop
endfacet
facet normal -0.9974003267576655 8.112961046560297e-05 -0.07205956981337402
  outer loop
    vertex 134.87660214645385 395.6254501896597 62.00331443930513
    vertex 134.92120667230208 400.7489061734255 61.391696791243255
    vertex 134.92073980965543 395.6216166396598 61.39238829416072
  endloop
endfacet
facet normal -0.9974003267576655 8.112961046560297e-05 -0.07205956981337402
  outer loop
    vertex 134.92120667230208 400.7489061734255 61.391696791243255
    vertex 134.87660214645385 395.6254501896597 62.00331443930513
    vertex 134.87706900910052 400.7489061734255 62.00262293638767
  endloop
endfacet
facet normal -0.9223734601272191 0.00013623809377277324 0.3862993418220164
  outer loop
    vertex 135.13246448325228 395.6292837396598 62.61424058444954
    vertex 134.87706900910052 400.7489061734255 62.00262293638767
    vertex 134.87660214645385 395.6254501896597 62.00331443930513
  endloop
endfacet
facet normal -0.9223734601272191 0.00013623809377277324 0.3862993418220164
  outer loop
    vertex 134.87706900910052 400.7489061734255 62.00262293638767
    vertex 135.13246448325228 395.6292837396598 62.61424058444954
    vertex 135.13293134589898 400.7489061734255 62.61354908153206
  endloop
endfacet
endsolid 穿山甲
